<?xml version="1.0" standalone="no"?>
<!DOCTYPE svg PUBLIC "-//W3C//DTD SVG 1.1//EN" "http://www.w3.org/Graphics/SVG/1.1/DTD/svg11.dtd" >
<svg>
<metadata>
Created by FontForge 20120731 at Fri Oct 31 09:52:07 2014
 By Orthosie Webhosting
Copyright 1991, Atech Software, Carlsbad CA 
</metadata>
<defs>
<font id="AcademyBold" horiz-adv-x="515" >
  <font-face 
    font-family="AcademyBold"
    font-weight="700"
    font-stretch="normal"
    units-per-em="1000"
    panose-1="0 0 0 0 0 0 0 0 0 0"
    ascent="800"
    descent="-200"
    x-height="387"
    cap-height="700"
    bbox="-39 -224 1365 1000"
    underline-thickness="50"
    underline-position="-55"
    unicode-range="U+0020-2219"
  />
<missing-glyph 
d="M32 0v35q20 3 28 19t8 35v208q0 22 -8 36t-28 19v35h10h196v-35q-20 -4 -28.5 -19t-8.5 -36v-257h113v257q0 22 -8 36t-28 19v35h10h195v-35q-16 -4 -23.5 -12.5t-10.5 -18.5q-1 -7 -1.5 -13t-0.5 -11v-208q0 -3 0.5 -10.5t3.5 -15.5q3 -10 10.5 -18t21.5 -10v-35h-98h-8
t-8 -1q-26 -8 -47.5 -44.5t-22.5 -117.5l-10 -1h-73q-1 81 -24.5 122.5t-60.5 41.5h-99v0z" />
    <glyph glyph-name=".notdef" 
d="M32 0v35q20 3 28 19t8 35v208q0 22 -8 36t-28 19v35h10h196v-35q-20 -4 -28.5 -19t-8.5 -36v-257h113v257q0 22 -8 36t-28 19v35h10h195v-35q-16 -4 -23.5 -12.5t-10.5 -18.5q-1 -7 -1.5 -13t-0.5 -11v-208q0 -3 0.5 -10.5t3.5 -15.5q3 -10 10.5 -18t21.5 -10v-35h-98h-8
t-8 -1q-26 -8 -47.5 -44.5t-22.5 -117.5l-10 -1h-73q-1 81 -24.5 122.5t-60.5 41.5h-99v0z" />
    <glyph glyph-name="glyph1" horiz-adv-x="0" 
 />
    <glyph glyph-name="glyph2" horiz-adv-x="351" 
 />
    <glyph glyph-name="glyph3" unicode=" " horiz-adv-x="361" 
 />
    <glyph glyph-name="glyph4" unicode="!" horiz-adv-x="311" 
d="M74 69v1.5v1.5q1 28 22 51t55 23h10q33 0 53.5 -21.5t23.5 -47.5v-4v-4v-4v-4q-3 -26 -23.5 -47t-53.5 -21l-10 -1q-34 1 -55 23.5t-22 50.5v1.5v1.5v0zM80 684h161l-63 -497h-10h-36l-62 497h10v0z" />
    <glyph glyph-name="glyph5" unicode="&#x22;" horiz-adv-x="436" 
d="M198 700l-40 -206h-10h-38l-40 206h10h118v0zM366 700l-40 -206h-10h-38l-40 206h10h118v0z" />
    <glyph glyph-name="glyph6" unicode="#" horiz-adv-x="857" 
d="M446 0l31 172h-164l-30 -172h-10h-76l31 172h-158l15 82h158l33 190h-158l15 82h158l31 177h10h76l-31 -177h163l31 177h10h76l-32 -177h162l-14 -82h-162l-34 -190h162l-15 -82h-162l-30 -172h-10h-76v0zM525 444h-163l-34 -190h164l33 190v0z" />
    <glyph glyph-name="glyph7" unicode="$" horiz-adv-x="624" 
d="M284 797h48v-70q88 -1 139 -41.5t51 -90.5q0 -29 -16 -46.5t-36 -21.5q-3 0 -5.5 -0.5t-5.5 -0.5h-10q-4 0 -8.5 0.5t-9.5 1.5q-19 4 -35 19t-16 45q0 11 2 18t5 11q0 1 1 2t1 2q1 1 1.5 2t0.5 3q1 2 2 3.5t1 3.5q1 2 1 3v2q0 2 -0.5 4.5t-2.5 4.5q-5 9 -19.5 15.5
t-40.5 7.5v-209q112 -35 167 -89t55 -154q0 -94 -63 -157.5t-159 -70.5v-80h-10h-48v75q-75 6 -117.5 30t-62.5 52q-14 20 -19 38t-5 30q0 37 21.5 64t58.5 27h10q34 0 56 -20t22 -49q0 -22 -5.5 -29.5t-11.5 -11.5q-1 0 -1.5 -0.5l-0.5 -0.5q-6 -4 -11 -10t-5 -23
q0 -3 1 -7.5t6 -9.5q6 -6 21 -12t43 -7v279q-3 1 -5.5 2t-4.5 2l-0.5 0.5l-0.5 0.5q-3 1 -7.5 3t-12.5 6q-11 5 -31 14t-42 24q-31 22 -57 56.5t-26 86.5q0 86 55.5 141t131.5 62v70h10v0zM332 309v-256q55 9 85 38.5t36 63.5q1 5 1.5 9.5t0.5 9.5q0 43 -30.5 78.5
t-92.5 56.5v0zM274 490v182q-32 -8 -49.5 -23t-25.5 -32q-4 -10 -6 -19t-2 -17q0 -26 20.5 -50.5t62.5 -40.5v0z" />
    <glyph glyph-name="glyph8" unicode="%" horiz-adv-x="990" 
d="M568 109q0 90 39.5 136t87.5 60q11 3 22 4.5t22 1.5h10q11 0 22 -1.5t22 -4.5q48 -14 87.5 -60.5t39.5 -135.5t-39.5 -135t-87.5 -60q-11 -3 -22 -4.5t-22 -1.5l-10 -1q-11 1 -22 2.5t-22 4.5q-48 14 -87.5 59.5t-39.5 135.5v0zM692 155v-92v-1.5v-1.5v-1.5v-1.5
q0 -41 7 -75.5t45 -36.5q40 2 46.5 35.5t6.5 82.5v92q0 51 -6.5 84t-46.5 35q-37 -2 -44.5 -35t-7.5 -84v0zM289 -69l334 779h10l49 -21l-336 -778h-10l-47 20v0zM70 596q0 93 49.5 147.5t121.5 54.5h10q72 0 121.5 -55t49.5 -147q0 -94 -49.5 -148t-121.5 -54h-10
q-72 0 -121.5 54t-49.5 148v0zM194 642v-92v-1.5v-1.5v-6.5v-6.5q0 -38 8 -69.5t44 -34.5q40 3 46.5 38t6.5 82v92q0 49 -6.5 83t-46.5 36q-37 -2 -44.5 -36t-7.5 -83v0z" />
    <glyph glyph-name="glyph9" unicode="&#x26;" horiz-adv-x="863" 
d="M567 427h221v-36q-31 -3 -53 -24.5t-37 -45.5q-9 -16 -16 -31t-11 -25q-3 -7 -6 -13t-5 -12q-1 -1 -2 -3t-2 -3q-5 -11 -11.5 -23t-17.5 -30l68 -86q11 -14 23.5 -26.5t28.5 -14.5l8 2t8 3h10l20 -36q-22 -15 -37 -21.5t-29 -9.5q-5 -1 -11 -1.5t-13 -0.5l-10 -1
q-38 1 -63.5 9t-48.5 25q-11 9 -23 20.5t-26 24.5q-55 -43 -109.5 -60.5t-106.5 -17.5l-10 -1q-100 1 -168 67.5t-68 161.5q0 80 47.5 127.5t115.5 79.5v7q-36 43 -51 77t-15 65q0 62 46 99.5t105 37.5h10q74 0 114 -42t40 -96q0 -13 -4 -29t-15 -32q-9 -14 -23 -28t-34 -26
l185 -230q6 10 11 21l10 22q5 15 8.5 29.5t3.5 26.5q0 30 -19.5 47t-44.5 17h-3v36h10v0zM276 390q-10 -9 -18 -17.5t-14 -17.5q-14 -20 -19 -40t-5 -38q0 -91 55 -145.5t121 -56.5q6 0 11.5 0.5t10.5 1.5q23 3 44.5 11.5t40.5 21.5l-227 280v0zM364 494q12 15 19.5 33.5
t10.5 37.5q2 11 3 21t1 20q0 25 -16.5 39.5t-36.5 17.5q-2 0 -4 0.5t-4 0.5q-28 -1 -41 -18t-13 -37q0 -16 6.5 -28t13.5 -21l4 -4l4 -4l53 -58v0z" />
    <glyph glyph-name="glyph10" unicode="'" horiz-adv-x="268" 
d="M198 700l-40 -206h-10h-38l-40 206h10h118v0z" />
    <glyph glyph-name="glyph11" unicode="(" horiz-adv-x="429" 
d="M359 683q0 -4 -3.5 -9t-9.5 -12t-24 -32t-38 -69q-24 -52 -44 -129t-20 -180t19 -178t42 -125q17 -38 33 -61t23 -33q13 -17 17.5 -23.5t4.5 -10.5q0 -1 -0.5 -2.5t-0.5 -2.5q-2 -5 -6 -8.5t-9 -3.5l-10 -1q-12 1 -33.5 17t-44.5 37q-5 5 -10.5 10t-10.5 10
q-24 23 -42.5 43.5t-23.5 27.5q-7 10 -19.5 29t-26.5 47q-19 40 -35.5 97.5t-16.5 130.5q0 109 45 204.5t99 157.5q34 41 66.5 63.5t52.5 22.5h10q5 0 9 -3.5t6 -8.5q0 -1 0.5 -2.5t0.5 -2.5v0z" />
    <glyph glyph-name="glyph12" unicode=")" horiz-adv-x="429" 
d="M70 683q0 1 0.5 2.5t0.5 2.5q2 5 6 8.5t9 3.5h10q20 0 52.5 -22.5t66.5 -63.5q54 -62 99 -157.5t45 -204.5q0 -73 -16.5 -130.5t-35.5 -97.5q-14 -28 -26.5 -47t-19.5 -29q-5 -7 -23.5 -27.5t-42.5 -43.5q-5 -5 -10.5 -10t-10.5 -10q-23 -21 -44.5 -37t-33.5 -16l-10 -1
q-5 1 -9 4.5t-6 8.5q0 1 -0.5 2.5t-0.5 2.5q0 4 4.5 10.5t17.5 23.5q7 10 23 33t33 61q23 50 42 125t19 178t-20 180t-44 129q-20 44 -38 69t-24 32t-9.5 12t-3.5 9v0z" />
    <glyph glyph-name="glyph13" unicode="*" horiz-adv-x="520" 
d="M265 711q27 -1 42 -18.5t17 -39.5q-22 -14 -33 -34.5t-13 -57.5q6 -2 11 -5t8 -8q4 2 8.5 4t8.5 4q19 11 31 24t18 38q2 0 3.5 0.5t3.5 0.5h3.5h3.5h10q29 0 46 -16t17 -39q0 -19 -10.5 -33.5t-28.5 -26.5h-10q-7 6 -14.5 10t-13.5 7q-7 3 -14 4.5t-15 1.5
q-9 -1 -18 -2.5t-20 -3.5v-4q0 -7 -2.5 -12t-6.5 -9q7 -9 13.5 -16t13.5 -13q11 -9 22.5 -14.5t26.5 -6.5q2 1 4.5 1h4.5h10q2 -3 3 -5.5t2 -5.5q2 -6 3 -11.5t1 -10.5q0 -25 -16 -42t-36 -17h-10q-7 0 -16 1.5t-19 6.5q-5 2 -9.5 5.5t-9.5 8.5q2 5 3.5 9t2.5 9q1 4 1.5 8.5
t0.5 8.5q0 14 -6 30t-19 38h-0.5h-1.5h-1.5h-0.5h-10h-1.5h-1.5q-13 -22 -19 -38t-6 -30q0 -4 0.5 -8.5t1.5 -8.5q1 -5 3 -9t4 -9q-8 -8 -18 -13.5t-20 -7.5q-4 -1 -7.5 -1.5t-6.5 -0.5h-10q-25 0 -39.5 18t-14.5 43q0 8 1.5 16t5.5 16h10q1 0 2 -0.5t2 -0.5h2h2
q15 0 26.5 5.5t22.5 14.5q7 6 14 13.5t15 16.5q-4 6 -6 12t-2 13q-11 2 -20.5 3.5t-18.5 2.5q-6 0 -11.5 -1t-10.5 -3q-8 -3 -16.5 -7.5t-17.5 -11.5h-10q-16 8 -27.5 23t-11.5 33q0 23 16 41.5t44 18.5h10h4t4 -1q2 0 4 -0.5t4 -0.5q5 -23 14.5 -35t25.5 -21
q6 -3 12.5 -6.5t14.5 -7.5q3 5 7.5 8t10.5 5q-1 33 -10 54.5t-37 37.5q4 23 21 40.5t39 17.5h10h1v0z" />
    <glyph glyph-name="glyph14" unicode="+" horiz-adv-x="739" 
d="M70 292v79h255v255h10h79v-255h255v-79h-255v-255h-10h-79v255h-255v0z" />
    <glyph glyph-name="glyph15" unicode="," horiz-adv-x="310" 
d="M90 -119l-19 29q37 23 56 43.5t28 35.5l-1 3h-4q-34 1 -57 23.5t-23 53.5q0 30 20.5 53.5t56.5 23.5h10q34 0 58.5 -23t24.5 -70q0 -59 -43 -104t-97 -67l-10 -1v0z" />
    <glyph glyph-name="glyph16" unicode="-" horiz-adv-x="413" 
d="M70 122l34 119h144q8 0 19 1.5t23 9.5q3 2 7 5t7 7h10h29l-37 -120h-141q-14 0 -27.5 -3t-23.5 -19h-10h-34v0z" />
    <glyph glyph-name="glyph17" unicode="." horiz-adv-x="304" 
d="M70 69v1.5v1.5q1 28 22 51t55 23h10q33 0 53.5 -21.5t23.5 -47.5v-4v-4v-4v-4q-3 -26 -23.5 -47t-53.5 -21l-10 -1q-34 1 -55 23.5t-22 50.5v1.5v1.5v0z" />
    <glyph glyph-name="glyph18" unicode="/" horiz-adv-x="465" 
d="M61 -197h-61l395 897h10h60l-394 -897h-10v0z" />
    <glyph glyph-name="glyph19" unicode="0" horiz-adv-x="590" 
d="M290 -11q-14 1 -28 2.5t-28 4.5q-71 15 -130 92t-59 263q0 193 63 268.5t139 88.5q11 1 21.5 2t21.5 1h10q11 0 21.5 -1t21.5 -2q76 -13 139 -88.5t63 -268.5q0 -186 -59 -263t-130 -92q-14 -3 -28 -4.5t-28 -1.5l-10 -1v0zM295 658q-52 -2 -69 -48t-17 -114v-290
q0 -13 0.5 -29.5t3.5 -32.5q5 -37 22.5 -68.5t59.5 -33.5q47 2 64 39t21 81q0 12 0.5 23t0.5 21v290q0 68 -16.5 114t-69.5 48v0z" />
    <glyph glyph-name="glyph20" unicode="1" horiz-adv-x="404" 
d="M217 700h98v-598v-0.5v-1.5q0 -5 0.5 -12.5t2.5 -16.5q4 -11 14 -21.5t32 -13.5v-36h-10h-249v36q24 3 34.5 15t13.5 27q1 6 1.5 12.5t0.5 11.5v454q-24 -25 -50.5 -47t-54.5 -42h-10v55q6 4 12.5 9t13.5 10q27 21 53 47.5t48 54.5q12 15 22 29t18 28h10v0z" />
    <glyph glyph-name="glyph21" unicode="2" horiz-adv-x="517" 
d="M465 171l-30 -171h-10h-395v38q13 18 20 27.5t13 17.5l0.5 0.5l0.5 0.5q2 3 4.5 5.5t4.5 5.5l10.5 14t9.5 12q0 1 0.5 1.5l0.5 0.5q7 10 16 23t26 38q99 148 132 221.5t33 115.5q0 49 -25.5 72.5t-64.5 24.5q-18 -1 -32.5 -6.5t-28.5 -15.5q-12 -8 -24 -19t-26 -25h-10
l-38 30q41 59 96 94t129 35h10q87 0 135 -47t54 -103q1 -4 1 -8v-8q0 -85 -73 -173.5t-165 -177.5q-6 -6 -12 -11.5t-12 -11.5q-9 -9 -18.5 -18t-18.5 -18v-5h173q6 0 13.5 0.5t14.5 3.5q12 3 22.5 11.5t17.5 25.5h10h36v0z" />
    <glyph glyph-name="glyph22" unicode="3" horiz-adv-x="486" 
d="M88 546l-43 25q35 66 75.5 96t82.5 39q13 3 26 4t26 1h10q63 0 100 -33.5t37 -79.5q0 -40 -23 -75.5t-51 -61.5q-10 -9 -20 -17t-19 -14v-7h3h3h2.5h2.5h10q60 0 103 -37t43 -112q0 -32 -14 -74.5t-55 -87.5q-12 -13 -27.5 -26t-33.5 -26q-8 -6 -19 -12.5t-25 -12.5
q-32 -16 -78 -29t-102 -13l-10 -1q-11 1 -23 1.5t-24 2.5l12 51q100 3 151.5 42.5t70.5 85.5q7 19 10.5 38t3.5 35q0 49 -24.5 75.5t-59.5 27.5q-16 -1 -33 -7t-34 -17h-10l-23 41q11 7 22 14.5t22 15.5q47 33 86 75.5t39 93.5q0 5 -1.5 13.5t-5.5 17.5q-6 13 -19 24.5
t-38 12.5q-15 -1 -39 -10t-49 -39q-7 -8 -14 -18t-14 -22h-10v0z" />
    <glyph glyph-name="glyph23" unicode="4" horiz-adv-x="588" 
d="M350 711h105v-406q17 3 31.5 17.5t27.5 45.5h10h36l-41 -197h-64v-171h-10h-150v174h-265v70l310 467h10v0zM137 304h158v235l-158 -235v0z" />
    <glyph glyph-name="glyph24" unicode="5" horiz-adv-x="506" 
d="M128 698h177h7.5h6.5q10 0 19 2t16 11h10h36l-31 -143h-206l-28 -125q15 7 30.5 12t30.5 8t30.5 4.5t30.5 1.5h10q10 0 21 -1l22 -2q60 -10 110.5 -52.5t50.5 -132.5q0 -127 -94.5 -208t-229.5 -80l-10 -1q-23 1 -47.5 3.5t-49.5 7.5l15 44h10h4h4q2 -1 4 -1h4
q96 3 144.5 56.5t62.5 117.5q4 16 5.5 32t1.5 31q0 56 -28 85t-66 31q-17 -1 -34 -7t-33 -18h-10l-63 25l67 299v0z" />
    <glyph glyph-name="glyph25" unicode="6" horiz-adv-x="575" 
d="M361 711l26 -40q-68 -44 -111 -116.5t-51 -154.5l4 2t4 3q14 8 36 15.5t50 7.5h10q15 0 32 -2.5t34 -7.5q51 -16 93 -63.5t42 -142.5q0 -117 -69 -169.5t-167 -52.5l-10 -1q-98 1 -168.5 62.5t-70.5 208.5q0 107 38 192.5t109 155.5q7 7 15.5 14t17.5 14q12 10 26 19
l28 18q19 12 38 22t34 16h10v0zM291 360q-59 -2 -68.5 -47.5t-9.5 -103.5v-5.5v-5.5v-5.5v-5.5q0 -60 9.5 -104.5t68.5 -46.5q59 2 68.5 46.5t9.5 104.5v5.5v5.5v5.5v5.5q0 58 -9.5 103.5t-68.5 47.5v0z" />
    <glyph glyph-name="glyph26" unicode="7" horiz-adv-x="476" 
d="M50 496l13 204h10h383v-38q-16 -50 -39.5 -124.5t-48.5 -156.5q-5 -14 -9 -28.5t-8 -28.5q-28 -92 -51.5 -178t-35.5 -146h-10h-166q12 60 47.5 143.5t81.5 172.5q19 37 39.5 73t40.5 71q17 29 34.5 56.5t33.5 52.5l-199 1h-1.5h-0.5h-1.5h-1.5q-4 0 -8 -0.5t-9 -0.5
q-15 -3 -28.5 -18t-17.5 -55h-10h-38v0z" />
    <glyph glyph-name="glyph27" unicode="8" horiz-adv-x="522" 
d="M272 711q88 0 134 -40.5t56 -89.5q2 -9 3 -17t1 -16q0 -49 -27 -85.5t-66 -54.5l1 -5q52 -27 87.5 -77t35.5 -118q0 -85 -55.5 -151.5t-168.5 -66.5l-10 -1q-91 1 -160 49.5t-69 145.5q0 61 32 108t88 64v3q-26 20 -44 43t-28 46q-8 19 -12 38t-4 36q0 12 1.5 24t4.5 24
q13 53 58 97t132 44h10v0zM215 323q-3 -4 -6.5 -9t-6.5 -10q-13 -21 -23.5 -54t-10.5 -79q0 -62 32 -94.5t75 -34.5q44 2 76 34.5t32 84.5q0 48 -30 80t-66 52q-20 11 -39 18.5t-33 11.5v0zM304 434q35 43 41 79t6 49v0.5v1.5q0 42 -21 63.5t-46 27.5q-4 2 -8.5 2.5
t-8.5 0.5q-40 -2 -64.5 -26.5t-24.5 -58.5q0 -50 38.5 -86t87.5 -53v0z" />
    <glyph glyph-name="glyph28" unicode="9" horiz-adv-x="575" 
d="M214 -11l-26 40q69 44 112 117t50 155q-1 -1 -2 -1.5t-2 -1.5q-15 -10 -37.5 -18t-52.5 -8h-10q-15 0 -32 2.5t-34 7.5q-51 16 -93 63.5t-42 142.5q0 117 69.5 170t166.5 53h10q98 0 168.5 -62t70.5 -209q0 -107 -38 -192.5t-109 -155.5q-6 -6 -13 -12l-14 -12
q-14 -11 -29 -21l-30 -20q-20 -12 -38.5 -21.5t-34.5 -15.5l-10 -1v0zM284 340q59 2 68.5 47.5t9.5 103.5v5.5v5.5v5.5v5.5q0 60 -9.5 104.5t-68.5 46.5q-59 -2 -68.5 -46.5t-9.5 -104.5v-5.5v-5.5v-5.5v-5.5q0 -58 9.5 -103.5t68.5 -47.5v0z" />
    <glyph glyph-name="glyph29" unicode=":" horiz-adv-x="304" 
d="M70 69v1.5v1.5q1 28 22 51t55 23h10q33 0 53.5 -21.5t23.5 -47.5v-4v-4v-4v-4q-3 -26 -23.5 -47t-53.5 -21l-10 -1q-34 1 -55 23.5t-22 50.5v1.5v1.5v0zM70 318v1.5v1.5q1 28 22 51t55 23h10q33 0 53.5 -21.5t23.5 -47.5v-4v-4v-4v-4q-3 -26 -23.5 -47.5t-53.5 -21.5h-10
q-34 0 -55 23t-22 51v1.5v1.5v0z" />
    <glyph glyph-name="glyph30" unicode=";" horiz-adv-x="310" 
d="M90 -119l-19 29q37 23 56 43.5t28 35.5l-1 3h-4q-34 1 -57 23.5t-23 53.5q0 30 20.5 53.5t56.5 23.5h10q34 0 58.5 -23t24.5 -70q0 -59 -43 -104t-97 -67l-10 -1v0zM73 318v1.5v1.5q1 28 22 51t55 23h10q33 0 53.5 -21.5t23.5 -47.5v-4v-4v-4v-4q-3 -26 -23.5 -47.5
t-53.5 -21.5h-10q-34 0 -55 23t-22 51v1.5v1.5v0z" />
    <glyph glyph-name="glyph31" unicode="&#x3c;" horiz-adv-x="640" 
d="M70 335l455 264h10l35 -64l-340 -197v-6l340 -196l-35 -63h-10l-455 262v0z" />
    <glyph glyph-name="glyph32" unicode="=" horiz-adv-x="769" 
d="M70 219v79h10h619v-79h-10h-619v0zM70 363v79h10h619v-79h-10h-619v0z" />
    <glyph glyph-name="glyph33" unicode="&#x3e;" horiz-adv-x="640" 
d="M570 335l-455 -262h-10l-35 63l341 197v5l-341 197l35 64h10l455 -264v0z" />
    <glyph glyph-name="glyph34" unicode="?" horiz-adv-x="469" 
d="M88 69v4v4q3 26 24 47.5t53 21.5h10q34 0 55.5 -23t21.5 -54t-21.5 -53.5t-55.5 -22.5l-10 -1q-32 1 -53 22t-24 47v4v4v0zM184 203h-36l-16 131h10h29q1 -1 2 -1.5t2 -1.5q6 -3 12.5 -6t12.5 -5q2 0 3.5 -0.5t2.5 -0.5q3 0 6.5 1.5t6.5 2.5q14 7 25 28t11 63
q0 78 -15.5 135.5t-34.5 80.5q-4 6 -8.5 9.5t-8.5 4.5q-3 -1 -4.5 -3t-2.5 -4v-2.5v-2.5v-0.5v-0.5v-7v-6v-6q-2 -19 -11.5 -28t-21.5 -12q-3 0 -5.5 -0.5t-5.5 -0.5h-10q-27 0 -41.5 16.5t-15.5 35.5v1.5v1.5q0 3 0.5 6.5t1.5 6.5q4 21 24 38t54 17h10q42 0 83 -24.5
t80 -76.5q18 -23 31.5 -47.5t22.5 -49.5q11 -28 16.5 -55t5.5 -52q0 -74 -29.5 -108t-65.5 -43q-8 -1 -15.5 -2t-14.5 -1h-10q-12 0 -24.5 3t-25.5 8q-6 3 -12.5 6t-12.5 7l5 -56h-10v0z" />
    <glyph glyph-name="glyph35" unicode="@" horiz-adv-x="1048" 
d="M791 516l-69 -232q-1 -2 -1.5 -4t-0.5 -4q-3 -9 -5.5 -19.5t-4.5 -21.5q-1 -8 -2 -15.5t-1 -15.5q0 -5 0.5 -14t4.5 -19q5 -13 17 -24.5t37 -12.5q62 3 102 64.5t40 150.5q0 146 -103.5 250.5t-275.5 105.5q-154 -1 -269 -103t-115 -288q0 -173 90 -264.5t199 -117.5
q22 -6 45 -9t45 -3q41 1 99.5 14.5t122.5 64.5l10 -1l35 -47q-75 -56 -143.5 -73t-118.5 -17l-10 -1q-187 1 -318 125t-131 319q0 189 124.5 321.5t329.5 132.5h10q203 0 323.5 -121.5t120.5 -289.5q0 -16 -1.5 -33.5t-4.5 -34.5q-15 -76 -66.5 -139.5t-154.5 -63.5h-10
q-13 0 -31 2.5t-36 9.5q-19 8 -37.5 22.5t-31.5 38.5q-45 -40 -85 -56.5t-77 -16.5h-10q-76 0 -126 55t-50 133v1.5v1.5q1 106 68.5 195t174.5 89h10q40 0 67 -12.5t44 -26.5q12 -11 19.5 -21t10.5 -15l15 40h10h115v0zM623 404q-4 28 -22 49t-49 22q-67 -3 -112 -70
t-45 -149q0 -51 21.5 -81.5t58.5 -32.5q32 2 55.5 20.5t36.5 40.5q1 2 1.5 3.5t1.5 2.5l53 195v0z" />
    <glyph glyph-name="glyph36" unicode="A" horiz-adv-x="768" 
d="M0 36q7 2 22.5 11t32.5 34q5 7 9.5 15t8.5 17l202 427q3 7 5.5 15t3.5 16q2 7 2.5 15t0.5 15q0 8 -10.5 14.5t-27.5 5.5h-4.5h-4.5v36q41 3 67.5 14.5t42.5 24.5q5 3 9 7t7 8h10h36l262 -548q31 -64 51 -89.5t39 -35.5q1 0 2 -0.5t2 -1.5v-36h-10h-286v36h3q22 0 35 14.5
t16 31.5q0 3 0.5 5.5t0.5 5.5q0 2 -1 6.5t-3 8.5v2t-1 2q-1 4 -2 7t-2 5l-31 65h-309l-26 -59q-1 -2 -1.5 -4t-1.5 -4q-2 -4 -4 -9t-3 -11q-1 -3 -1 -6.5v-7.5q0 -16 13.5 -30.5t51.5 -21.5v-36h-10h-196v36v0zM332 514l-124 -268v-4h250v3l-126 269v0z" />
    <glyph glyph-name="glyph37" unicode="B" horiz-adv-x="660" 
d="M50 700h270h12h12q110 0 160 -35t65 -76q5 -15 7 -28.5t2 -26.5q0 -61 -31.5 -96t-69.5 -52q-14 -6 -27 -10t-25 -7v-10q79 -7 134.5 -55.5t55.5 -125.5t-41.5 -114t-90.5 -51q-34 -9 -65 -11t-49 -2h-10h-319v36q26 4 36 16.5t12 27.5q1 3 1 6.5v6.5v514v6.5t-1 6.5
q-2 15 -12 27.5t-36 16.5v36h10v0zM249 338v-285h48q12 0 29 1.5t35 7.5q31 10 56.5 38.5t25.5 89.5q0 72 -42 105.5t-92 40.5q-8 1 -16.5 1.5t-16.5 0.5h-27v0zM249 647v-256h44q55 0 90.5 34t35.5 93q0 62 -27.5 88.5t-60.5 34.5q-16 4 -31 5t-27 1h-24v0z" />
    <glyph glyph-name="glyph38" unicode="C" horiz-adv-x="726" 
d="M650 148l31 -39q-82 -70 -148 -94.5t-128 -24.5l-10 -1q-144 1 -247 99t-103 266q0 171 102 263t224 94h3.5h2.5h10q29 0 53 -3t41 -7q11 -3 19 -5.5t12 -3.5q13 -4 24 -6t21 -3q4 1 8 3t8 5q1 0 2 0.5t2 1.5t2 1.5t2 1.5l2 2l2 2h10h36v-165h-10h-36q-19 51 -64.5 82
t-96.5 39q-7 1 -13.5 1.5t-12.5 0.5q-105 -3 -138 -81.5t-38 -171.5q0 -16 -0.5 -32t-0.5 -31t0.5 -31t1.5 -32q7 -81 48.5 -148.5t158.5 -69.5q37 1 72 11t69 29q17 10 34.5 21.5t34.5 25.5h10v0z" />
    <glyph glyph-name="glyph39" unicode="D" horiz-adv-x="802" 
d="M50 700h296q172 0 257.5 -60t118.5 -131q23 -49 29 -94.5t6 -71.5q0 -76 -27 -142.5t-91 -119.5q-21 -17 -43 -29t-45 -21q-57 -22 -108 -26.5t-74 -4.5h-10h-319v36q37 12 43 27t6 36v1.5v1.5v496v1.5v1.5q0 21 -6 36t-43 27v36h10v0zM249 53h68q22 0 51.5 3t60.5 14
q57 20 104.5 81t47.5 195q0 142 -55.5 205t-121.5 83q-26 7 -52 10t-48 3h-55v-594v0z" />
    <glyph glyph-name="glyph40" unicode="E" horiz-adv-x="718" 
d="M40 700h495q20 0 30 2.5t16 15.5h10h25v-179h-10h-36q-19 70 -58 89t-103 19h-157v-253h101q40 0 63 13.5t23 48.5v2h10h36v-180h-10h-36q-2 25 -12.5 38t-21.5 19q-10 4 -19 5t-13 1h-121v-288h230q61 0 101.5 37.5t48.5 86.5h10h36v-177h-10h-628v36q26 3 36.5 15.5
t13.5 27.5q1 6 1.5 12t0.5 11v496v8.5t-1 8.5q-2 16 -12 30.5t-39 18.5v36v0z" />
    <glyph glyph-name="glyph41" unicode="F" horiz-adv-x="626" 
d="M40 700h495q20 0 30 2.5t16 15.5h10h25v-179h-10h-36q-19 70 -58 89t-103 19h-157v-253h101q40 0 63 13.5t23 48.5v2h10h36v-180h-10h-36q-2 25 -12.5 38t-21.5 19q-10 4 -19 5t-13 1h-121v-239v-8.5v-8.5q0 -15 8 -26.5t40 -22.5v-36h-10h-250v36q26 3 36.5 15.5
t13.5 27.5q1 6 1.5 12t0.5 11v496v8.5t-1 8.5q-2 16 -12 30.5t-39 18.5v36v0z" />
    <glyph glyph-name="glyph42" unicode="G" horiz-adv-x="765" 
d="M519 283h206v-253q-50 -16 -112.5 -28t-129.5 -12l-10 -1q-31 1 -64.5 4.5t-67.5 9.5q-111 25 -203.5 104.5t-92.5 248.5q0 137 97 246.5t266 109.5h10q28 0 49.5 -3.5t40.5 -8.5q25 -6 42.5 -12t33.5 -8q3 0 6 -0.5t6 -0.5q12 1 19.5 5t13.5 14h10h33v-168h-10h-36
l-6 14t-7 14q-20 37 -63.5 68.5t-120.5 32.5q-118 -2 -160 -81t-47 -174q-1 -10 -1 -20v-20q0 -151 44 -218t97 -89q20 -8 40.5 -11.5t37.5 -3.5q9 0 18 1t19 4q33 7 60.5 29.5t27.5 65.5v33q0 6 -0.5 14t-2.5 16q-4 15 -15.5 27.5t-37.5 14.5v36h10v0z" />
    <glyph glyph-name="glyph43" unicode="H" horiz-adv-x="837" 
d="M299 700v-36q-4 0 -9.5 -1.5t-10.5 -4.5q-11 -5 -20.5 -17t-9.5 -34v-220h338v220v6.5t-1 6.5q-2 15 -12 27.5t-36 16.5v36h10h249v-36q-25 -4 -37.5 -17.5t-12.5 -39.5l1 -514q0 -24 8.5 -35t30.5 -18q2 -1 4.5 -2t5.5 -2v-36h-10h-249v36q3 1 5.5 2t4.5 2q22 7 30.5 18
t8.5 35v241h-338v-241q0 -22 9.5 -35.5t40.5 -21.5v-36h-10h-249v36q29 10 39 22t10 35v514q0 22 -9 33.5t-20 16.5q-5 3 -10.5 4.5t-9.5 2.5v36h10h249v0z" />
    <glyph glyph-name="glyph44" unicode="I" horiz-adv-x="339" 
d="M50 700h249v-36q-22 -3 -32 -13.5t-14 -21.5q-2 -9 -2.5 -16.5t-0.5 -12.5v-1.5v-0.5v-496v-0.5v-1.5q0 -5 0.5 -12.5t2.5 -16.5q4 -11 14 -21.5t32 -13.5v-36h-10h-249v36q24 3 34.5 15t13.5 27q1 6 1.5 12.5t0.5 11.5v496q0 5 -0.5 11.5t-1.5 12.5q-3 14 -13.5 26.5
t-34.5 15.5v36h10v0z" />
    <glyph glyph-name="glyph45" unicode="J" horiz-adv-x="369" 
d="M80 700h249v-36q-25 -3 -35 -15t-12 -26q-2 -6 -2 -12v-12v-0.5v-0.5v-508q0 -128 -57 -188t-126 -65h-5.5h-5.5l-10 -1q-60 1 -87.5 25t-27.5 53q0 23 14.5 38.5t38.5 15.5l10 -1q1 1 1.5 1h1.5q18 -1 33 -13t15 -42v-3q0 1 0 0.5v-1.5v-4v-4q1 -6 4 -11t12 -7
q13 2 19 12t8 22q1 8 1.5 16t0.5 13v652q0 23 -8.5 42t-41.5 24v36h10v0z" />
    <glyph glyph-name="glyph46" unicode="K" horiz-adv-x="763" 
d="M50 700h249v-36q-22 -3 -32 -13.5t-14 -21.5q-2 -9 -2.5 -16.5t-0.5 -12.5v-1.5v-0.5v-220l255 213q20 17 26.5 27.5t6.5 16.5q0 2 -1 6t-5 8q-4 5 -13.5 9t-26.5 6v36h10h243v-36q-6 -1 -11.5 -2.5t-10.5 -2.5q-16 -4 -29.5 -8.5t-26.5 -11.5q-10 -5 -20.5 -12
t-21.5 -16l-197 -165l207 -307q1 -1 2 -2.5t2 -3.5q19 -28 43 -54.5t71 -42.5v-36h-10h-315v36q20 0 36 9.5t15 27.5q0 7 -2.5 14t-7.5 15l-163 243l-56 -45v-198v-0.5v-1.5q0 -5 0.5 -12.5t2.5 -16.5q4 -11 14 -21.5t32 -13.5v-36h-10h-249v36q24 3 34.5 15t13.5 27
q1 6 1.5 12.5t0.5 11.5v496q0 5 -0.5 11.5t-1.5 12.5q-3 14 -13.5 26.5t-34.5 15.5v36h10v0z" />
    <glyph glyph-name="glyph47" unicode="L" horiz-adv-x="695" 
d="M50 700h251v-36q-25 -3 -35 -15t-12 -26q-2 -6 -2 -12v-12v-0.5v-0.5v-545h217q61 0 101.5 37.5t48.5 86.5h10h36v-177h-10h-615v36q26 3 36.5 15.5t13.5 27.5q1 6 1.5 12t0.5 11v496q0 27 -9.5 43.5t-42.5 22.5v36h10v0z" />
    <glyph glyph-name="glyph48" unicode="M" horiz-adv-x="927" 
d="M50 700h241l179 -491l179 491h10h228v-36q-19 -3 -29 -11.5t-15 -17.5q-4 -9 -4.5 -16.5t-0.5 -11.5v-515q0 -21 8.5 -32t18.5 -17q6 -3 12 -4.5l10 -2.5v-36h-10h-249v36q21 3 31 11.5t15 18.5q3 8 3.5 15t0.5 11v504l-217 -596h-10h-70l-220 604v-502q0 -32 12 -46
t27 -18q4 -1 8.5 -1.5t8.5 -0.5v-36h-10h-167v36q24 0 35.5 11t15.5 24q4 10 4.5 19t0.5 13v479q0 39 -14.5 60.5t-41.5 21.5v36h10v0z" />
    <glyph glyph-name="glyph49" unicode="N" horiz-adv-x="775" 
d="M52 700h189l371 -445h1v348q0 5 -0.5 12t-3.5 15q-4 11 -16.5 20.5t-38.5 13.5v36h10h171v-36q-25 -3 -37 -13t-17 -20q-3 -8 -4 -15.5t-1 -12.5v-603h-10h-53l-451 542v0v-445q0 -5 0.5 -10.5t2.5 -11.5q4 -13 16.5 -24t39.5 -15v-36h-10h-171v36q27 4 39.5 15t16.5 24
q2 6 2.5 11.5t0.5 10.5v506q0 5 -0.5 12t-2.5 14q-3 13 -13.5 24t-34.5 11h-6v36h10v0z" />
    <glyph glyph-name="glyph50" unicode="O" horiz-adv-x="806" 
d="M408 711q165 0 258.5 -112.5t94.5 -247.5v-1.5v-1.5q0 -163 -107 -260.5t-246 -97.5l-10 -1q-139 1 -246 98.5t-107 260.5v1.5v1.5q1 135 94.5 247.5t258.5 112.5h10v0zM403 658q-76 -1 -129 -56t-53 -254q0 -175 45.5 -239.5t136.5 -66.5q92 2 137 66.5t45 239.5
q0 198 -53 253.5t-129 56.5v0z" />
    <glyph glyph-name="glyph51" unicode="P" horiz-adv-x="663" 
d="M40 0v36q3 0 9.5 1.5t14.5 6.5q9 5 17 17t8 33v391q0 117 71.5 169t156.5 56q5 1 9.5 1h9.5h10q135 0 203.5 -71.5t68.5 -161.5q0 -20 -3 -42.5t-10 -45.5q-17 -58 -64 -106.5t-140 -48.5h-10q-25 0 -63 6.5t-79 31.5v-179q0 -21 14.5 -38t38.5 -20v-36h-10h-252v0z
M249 556v-170q0 -34 29.5 -58.5t70.5 -26.5q61 2 77 52t16 126t-13.5 126.5t-78.5 52.5q-3 0 -6 -0.5t-6 -0.5q-34 -5 -61.5 -29t-27.5 -72v0z" />
    <glyph glyph-name="glyph52" unicode="Q" horiz-adv-x="806" 
d="M408 711q165 0 258.5 -112.5t94.5 -247.5v-1.5v-1.5q0 -8 -0.5 -16.5t-0.5 -16.5q-8 -90 -59 -171.5t-145 -123.5l6.5 -13t7.5 -13q14 -28 33 -52t45 -26q3 0 6 1l6 2q10 4 19.5 14.5t11.5 29.5l10 -1h40v-3.5v-4.5q0 -7 -0.5 -15t-2.5 -16q-7 -38 -36.5 -70t-89.5 -32
l-10 -1q-75 1 -107 49.5t-51 122.5q-8 -1 -17 -1.5t-18 -0.5l-10 -1q-1 1 -2.5 1h-3.5q-130 2 -239 95.5t-109 262.5v1.5v1.5q1 135 94.5 247.5t258.5 112.5h10v0zM420 43q-6 23 -18 35.5t-26 17.5q-7 3 -14.5 4.5t-13.5 2.5q-7 -1 -19 -4.5t-25 -13.5q-2 -2 -4.5 -4
t-5.5 -5q1 -1 2 -1.5t2 -1.5q16 -11 41.5 -20.5t63.5 -10.5h4h5q2 0 4 0.5t4 0.5v0zM403 658q-118 -2 -150 -93.5t-32 -216.5q0 -90 11.5 -143t33.5 -94q3 4 7.5 9t8.5 9q16 16 38.5 28.5t52.5 12.5h10q13 0 26 -3t26 -8q21 -10 42 -28t40 -47q4 4 8 8.5t8 9.5
q20 26 36 81.5t16 164.5q0 125 -31.5 216.5t-150.5 93.5v0z" />
    <glyph glyph-name="glyph53" unicode="R" horiz-adv-x="714" 
d="M50 700h294q21 0 55.5 -1.5t72.5 -10.5q56 -13 103 -52t47 -123q0 -59 -27 -96.5t-59 -57.5q-12 -8 -23.5 -13t-21.5 -9l-1 -10l143 -239q14 -22 30 -35t41 -17v-36h-10h-192l-168 282q-2 4 -4 7t-5 6q-11 17 -25.5 23.5t-46.5 6.5h-1.5h-1.5v-223v-1.5v-0.5
q0 -24 5.5 -37.5t36.5 -24.5q2 0 3.5 -0.5t3.5 -1.5v-36h-10h-249v36q2 1 3 1t2 1v0h1t2.5 0.5l4.5 1.5t6.5 2t6.5 3q9 5 16.5 17.5t7.5 39.5v496q0 27 -7.5 39.5t-16.5 17.5q-3 2 -6.5 3t-6.5 2l-4.5 1.5t-2.5 0.5h-1v0q-1 1 -2 1t-3 1v36h10v0zM250 647v-269h78
q50 0 84 33t34 97q0 66 -27 95t-59 37q-16 5 -31.5 6t-27.5 1h-51v0z" />
    <glyph glyph-name="glyph54" unicode="S" horiz-adv-x="600" 
d="M508 683v-163h-10h-39q-14 60 -47 89.5t-69 40.5q-14 4 -27 6t-25 2q-49 -1 -73.5 -26t-29.5 -55q0 -4 -0.5 -7.5t-0.5 -7.5q0 -31 19.5 -51.5t42.5 -33.5q16 -8 30 -13.5t23 -8.5q5 -2 9 -3.5t9 -3.5q94 -34 164.5 -80t70.5 -152q0 -92 -68 -159t-181 -67l-10 -1
q-33 1 -58.5 6t-46.5 10q-3 1 -7 2t-7 2q-16 5 -28 8t-23 4q-9 -1 -15 -5t-9 -8q-1 -1 -2 -3t-2 -3l-1 -3h-10h-31l-11 175h10h39q23 -48 65 -81.5t88 -44.5q10 -3 20 -4.5t20 -1.5q60 2 94 29.5t45 60.5q4 9 5.5 18.5t1.5 18.5q0 48 -40 71t-89 41q-1 0 -1.5 0.5t-1.5 0.5
q-3 1 -6.5 2.5t-6.5 2.5q-18 7 -41.5 16t-47.5 22q-46 25 -84.5 68.5t-38.5 115.5q0 88 61 145t145 57h10q29 0 51 -4.5t39 -12.5q18 -8 29.5 -15t21.5 -10q1 -1 3 -1.5t4 -0.5q7 1 13.5 4.5t10.5 11.5h10h34v0z" />
    <glyph glyph-name="glyph55" unicode="T" horiz-adv-x="694" 
d="M20 718h40q14 -7 29.5 -10.5t34.5 -3.5h446q10 0 18.5 1t17.5 2q7 2 14 4.5t15 6.5h10h39v-180h-10h-36q-14 33 -32 54t-37 33q-25 17 -48 21t-38 4l-56 1v-558q0 -22 9.5 -35.5t40.5 -21.5v-36h-10h-249v36q3 1 5.5 2t4.5 2q22 7 30.5 18t8.5 35v558l-46 -1
q-15 0 -32.5 -2t-35.5 -8q-28 -9 -54.5 -32t-42.5 -70h-10h-36v180h10v0z" />
    <glyph glyph-name="glyph56" unicode="U" horiz-adv-x="799" 
d="M50 700h245v-36q-29 -5 -37.5 -20.5t-9.5 -33.5v-6v-6v-285v-24t1 -24q4 -72 39 -131.5t153 -60.5q102 1 143 43.5t51 92.5q3 16 4 32t1 30v332v0.5v1.5q0 5 -0.5 11t-1.5 12q-4 11 -15.5 21t-39.5 15v36h10h166v-36q-24 -3 -35.5 -13t-16.5 -20q-3 -8 -3.5 -15.5
t-0.5 -12.5v-328q0 -61 -15.5 -116t-63.5 -96q-10 -9 -20.5 -16.5t-21.5 -13.5q-54 -32 -102 -37.5t-67 -5.5l-10 -1q-74 1 -123 16t-79 33q-17 11 -28.5 21t-18.5 17q-5 5 -11 12t-13 16q-15 23 -28.5 61.5t-13.5 101.5v331v9t-1 9q-1 16 -10 29.5t-37 18.5v36h10v0z" />
    <glyph glyph-name="glyph57" unicode="V" horiz-adv-x="785" 
d="M20 700l289 -1v-37h-4.5h-4.5q-28 0 -42.5 -12.5t-14.5 -31.5q0 -5 1 -11t3 -12l4 -10t4 -9l189 -381h5l173 388q1 2 1.5 3.5t1.5 3.5q3 6 5 13t2 15q0 19 -12 28.5t-26 13.5q-8 2 -16.5 3t-13.5 1v36h10h201v-36q-31 -6 -49.5 -26t-32.5 -52l-263 -586h-10h-38l-290 589
q-3 6 -6 12.5t-7 13.5q-10 16 -26 30.5t-43 18.5v36h10v0z" />
    <glyph glyph-name="W" unicode="W" horiz-adv-x="1056" 
d="M20 700h274v-36q-16 -1 -29.5 -10t-13.5 -30q0 -10 4 -21t9 -22l160 -379l68 146l-103 242q-19 47 -37 60t-32 14v36h10h440v-36q-30 -7 -46 -24.5t-30 -48.5l-70 -155l100 -231l171 378q1 2 2 5t2 5l1.5 3t0.5 3q2 5 3.5 10.5t1.5 8.5q0 23 -19.5 34t-43.5 12h-2.5h-2.5
v36h10h198v-36q-30 -6 -49 -25.5t-32 -51.5l-263 -587h-10h-51l-116 272l-123 -272h-10h-54l-252 593q-13 30 -28.5 48t-47.5 23v36h10v0zM591 513l44 96q5 9 7 17t2 14q0 13 -10.5 18.5t-30.5 5.5h-26q-21 0 -28 -7.5t-7 -18.5q0 -3 0.5 -6t1.5 -7q1 -3 2.5 -6.5t2.5 -6.5
q0 -2 1 -3t1 -2l40 -94v0z" />
    <glyph glyph-name="glyph59" unicode="X" horiz-adv-x="852" 
d="M760 700v-36q-10 -1 -40.5 -11.5t-77.5 -65.5l-156 -183l267 -304q1 -1 2 -2.5t2 -2.5q16 -18 33 -33t42 -26v-36h-10h-303v36h2q19 0 30.5 9.5t11.5 20.5q0 2 -0.5 3.5t-0.5 2.5q-1 3 -2.5 6t-3.5 6q-2 2 -3.5 4.5t-2.5 3.5l-178 206l-166 -191q-1 -1 -2 -2.5t-2 -2.5
q-7 -7 -12.5 -16t-5.5 -19v-1.5v-1.5q2 -10 14.5 -19t35.5 -9h2v-36h-10h-206v36q20 4 36 12.5t28 17.5q9 7 16 14t11 12l219 253l-228 262q-28 32 -44.5 43t-27.5 14v36h10h301v-36q-3 0 -6.5 -0.5t-7.5 -1.5q-10 -3 -18.5 -8.5t-8.5 -14.5q0 -2 0.5 -4.5t0.5 -5.5
q2 -6 5.5 -12.5t7.5 -11.5q1 -1 2 -2.5t2 -2.5l129 -148l125 145q16 18 20.5 27.5t4.5 15.5v2t-1 2q-1 8 -11.5 14t-33.5 6v36h10h199v0z" />
    <glyph glyph-name="glyph60" unicode="Y" horiz-adv-x="732" 
d="M20 700h301v-36q-18 -1 -32 -7t-14 -21v-2.5v-2.5q1 -6 3.5 -11l4.5 -9q2 -2 3 -4t2 -3l151 -192h7l122 192q8 12 11 17.5t3 9.5q0 20 -17.5 26t-39.5 7v36h10h187v-36q-25 -7 -40.5 -18.5t-29.5 -30.5l-196 -276v-246q0 -21 6.5 -31.5t14.5 -15.5q4 -2 8 -3.5t7 -2.5
l4.5 -1.5t2.5 -0.5h1v0q1 -1 2.5 -1t2.5 -1v-36h-10h-252v36q22 2 37.5 17t15.5 40v247l-208 264q-12 16 -22.5 27t-20.5 18q-8 6 -16.5 9.5t-17.5 5.5l-1 36h10v0z" />
    <glyph glyph-name="glyph61" unicode="Z" horiz-adv-x="758" 
d="M95 562v138h10h579v-34l-443 -613h324q43 0 68.5 18t38.5 67h10h36v-138h-10h-668v35l441 612h-201h-3.5h-3.5h-23t-24 -2q-27 -5 -51 -22t-34 -61h-10h-36v0z" />
    <glyph glyph-name="glyph62" unicode="[" horiz-adv-x="416" 
d="M338 700v-53h-94v-791h102v-53h-10h-266v897h10h258v0z" />
    <glyph glyph-name="glyph63" unicode="\" horiz-adv-x="465" 
d="M394 -197l-394 897h10h60l395 -897h-10h-61v0z" />
    <glyph glyph-name="glyph64" unicode="]" horiz-adv-x="416" 
d="M88 700h258v-897h-10h-266v53h102v791h-94v53h10v0z" />
    <glyph glyph-name="glyph65" unicode="^" horiz-adv-x="444" 
d="M226 700l176 -180h-10h-99l-72 73l-70 -73h-10h-99l174 180h10v0z" />
    <glyph glyph-name="glyph66" unicode="_" horiz-adv-x="555" 
d="M10 -118h545v-79h-10h-545v79h10v0z" />
    <glyph glyph-name="glyph67" unicode="`" horiz-adv-x="332" 
d="M238 522q-14 4 -33.5 12t-40.5 19q-25 13 -47.5 28.5t-35.5 30.5q-6 8 -9.5 15.5t-3.5 14.5v3.5t1 3.5q0 1 1 3t2 3h10h113q11 -34 26.5 -60.5t40.5 -47.5l-14 -25h-10v0z" />
    <glyph glyph-name="glyph68" unicode="a" horiz-adv-x="440" 
d="M426 52v-34q-2 -2 -5.5 -5t-8.5 -6q-8 -6 -21.5 -10t-32.5 -4l-10 -1q-23 1 -39 10.5t-25 21.5q-4 5 -7 10t-5 9q-25 -24 -53 -37t-69 -13l-10 -1q-46 1 -69.5 17.5t-33.5 37.5q-5 12 -7 23t-2 19q0 12 2 27t9 30q15 34 60.5 62.5t147.5 30.5v28q0 53 -12 70t-31 18
q-10 -1 -21.5 -7.5t-25.5 -29.5q0 -1 -0.5 -1.5l-1.5 -1.5q-8 -12 -17.5 -22t-26.5 -10h-10q-16 0 -26.5 10t-10.5 26q0 29 37.5 52.5t108.5 23.5h10q76 0 109 -32t43 -71q5 -19 6.5 -37.5t1.5 -32.5v-126v-9t2 -11q1 -9 7 -16.5t19 -8.5h2h2t2 0.5t2 0.5h10v0zM247 198
q-37 -4 -59 -31t-22 -65q0 -23 7.5 -34.5t16.5 -15.5q3 -2 6 -3t6 -1q21 2 30.5 17t12.5 32q1 9 1.5 17.5t0.5 15.5v68v0z" />
    <glyph glyph-name="glyph69" unicode="b" horiz-adv-x="507" 
d="M42 703h158v-341q22 17 46.5 25t53.5 8h10q79 0 124 -59.5t45 -135.5q0 -80 -47.5 -143.5t-144.5 -63.5l-10 -1q-33 1 -43 4.5t-15 8.5h-0.5t-0.5 1q-5 4 -16 8.5t-45 4.5q-14 -1 -26 -8t-19 -18l-10 -1h-35v621q0 5 -0.5 11t-1.5 12q-2 11 -9.5 20.5t-23.5 11.5v35h10v0
zM200 227v-124q0 -28 18.5 -48.5t46.5 -22.5q50 2 58.5 47t8.5 106v1.5v1.5q0 55 -8.5 98t-59.5 45q-43 -2 -53.5 -33t-10.5 -71v0z" />
    <glyph glyph-name="glyph70" unicode="c" horiz-adv-x="413" 
d="M362 99l27 -24q-7 -9 -14.5 -16t-15.5 -14q-43 -36 -82 -44t-60 -8l-10 -1q-88 1 -133.5 59t-45.5 140q0 97 58 148t127 56h7.5h6.5h10q63 0 100.5 -28t37.5 -62q0 -21 -11 -32t-25 -14q-3 -1 -6.5 -1.5t-6.5 -0.5h-10q-22 0 -34 10t-17 22q-4 9 -5.5 17t-1.5 12
q0 3 -1 7.5t-2 9.5q-3 7 -8.5 13.5t-17.5 7.5q-38 -4 -46 -52.5t-8 -106.5v-2.5v-3.5v-46q0 -47 21 -71.5t54 -26.5q29 2 56 17.5t46 34.5h10v0z" />
    <glyph glyph-name="glyph71" unicode="d" horiz-adv-x="505" 
d="M278 703h159v-613q0 -5 0.5 -11t1.5 -13q3 -10 10.5 -18.5t23.5 -12.5v-35h-10h-159v29q-22 -21 -46 -28.5t-52 -7.5l-10 -1q-77 1 -122.5 54.5t-45.5 148.5q0 93 37.5 137.5t82.5 56.5q11 3 21.5 4.5t20.5 1.5h10q11 0 27 -2.5t33 -9.5q12 -4 23 -11.5t20 -17.5l1 260
q0 19 -8 35t-28 19v35h10v0zM304 127v112v4.5v4.5q0 40 -16.5 60.5t-40.5 22.5q-37 -3 -51.5 -30.5t-18.5 -60.5q-1 -15 -1.5 -30.5t-0.5 -27.5q0 -11 0.5 -24.5t2.5 -27.5q4 -31 18.5 -56.5t49.5 -28.5q26 2 41.5 25t16.5 57v0z" />
    <glyph glyph-name="glyph72" unicode="e" horiz-adv-x="419" 
d="M391 210h-216q-1 -10 -1 -20v-19q0 -55 14.5 -89t62.5 -36q30 2 52.5 18.5t42.5 39.5h10l29 -28q-5 -7 -13 -16.5t-19 -20.5q-20 -17 -51 -31.5t-73 -14.5l-10 -1q-91 1 -141 58.5t-50 134.5q0 80 50.5 145t141.5 65h10q74 0 112 -46t46 -102q2 -9 2.5 -18.5t0.5 -18.5v0
zM271 250v6v6q0 50 -12 71t-35 22q-23 -1 -36 -21.5t-13 -74.5v-4.5v-4.5h96v0z" />
    <glyph glyph-name="glyph73" unicode="f" horiz-adv-x="316" 
d="M299 388v-40h-85v-258q0 -22 7.5 -36t28.5 -19v-35h-10h-195v35q16 4 23.5 12.5t10.5 18.5q1 7 1.5 13t0.5 11v258h-49v40h49v115q0 119 45.5 164t103.5 45h10q42 0 66 -21.5t24 -51.5q0 -20 -13 -34t-33 -14h-10q-22 0 -32.5 14t-11.5 31v2.5v2.5q0 2 0.5 4t0.5 3v1v1
q1 1 1 2.5v2.5q0 7 -4 11t-9 5h-1.5t-1.5 -1q-11 -3 -20.5 -14.5t-9.5 -27.5t4 -31.5t9 -28.5q2 -6 4 -11l4 -10q3 -9 4.5 -19t1.5 -25l1 -115h85v0z" />
    <glyph glyph-name="glyph74" unicode="g" horiz-adv-x="489" 
d="M58 -27l-25 40q5 8 10.5 17t11.5 17q11 18 23.5 35t25.5 32q6 8 12.5 15t12.5 14q-43 9 -70.5 40t-27.5 74q0 68 55.5 101.5t122.5 33.5h10q36 0 62 -7t48 -20q3 4 7.5 8t10.5 9q12 9 27 17t31 8h10q20 0 31.5 -10t11.5 -23v-4t-1 -4q-1 -11 -8 -20.5t-23 -9.5h-10
q-8 0 -13 2.5t-8 5.5q-3 2 -4.5 4t-2.5 3q-1 4 -3.5 6.5t-5.5 3.5q-6 -1 -11 -5t-8 -9q1 -1 2.5 -2t2.5 -2q14 -12 25.5 -31t11.5 -47q0 -70 -53 -103.5t-124 -33.5h-10q-10 0 -21.5 1t-22.5 2q-10 -10 -18.5 -22t-16.5 -26v0q19 4 34.5 6.5t30.5 3.5q8 1 15.5 1.5t15.5 0.5
h10q97 0 148 -43t51 -95v-5.5v-5.5q-5 -44 -49.5 -80.5t-149.5 -36.5l-10 -1q-90 1 -130 23.5t-42 49.5v1.5v1.5q0 20 13 34.5t38 14.5l10 -1q21 1 31 -8.5t11 -20.5v-1.5v-1.5v-7v-6q-1 -1 -1 -1.5v-1.5v-4.5v-5.5q0 -13 17 -23.5t58 -11.5q59 1 87 19t35 40q1 3 1.5 7
t0.5 8v4t-1 4q-3 21 -29.5 38t-95.5 18q-20 0 -43.5 -2t-47.5 -6q-20 -3 -39 -6.5t-37 -8.5l-10 -1v0zM217 165q21 1 31 13t13 26q2 9 2.5 17t0.5 14v0.5v0.5v47q0 33 -9 48t-20 20q-5 2 -9.5 3t-8.5 1q-22 -1 -35 -15.5t-13 -56.5v-47q0 -29 9 -49t39 -22v0z" />
    <glyph glyph-name="glyph75" unicode="h" horiz-adv-x="493" 
d="M201 703v-356q13 14 28 23.5t30 14.5q14 5 27.5 7.5t25.5 2.5h10q64 0 82.5 -37.5t20.5 -82.5v-12.5v-12.5v-160q0 -22 7 -36t29 -19v-35h-10h-195v35q16 4 23.5 12.5t10.5 18.5q1 7 1.5 13t0.5 11v183q0 2 -1 9t-4 15q-5 9 -13.5 16.5t-24.5 8.5q-27 -2 -37.5 -23
t-10.5 -46v-163q0 -5 0.5 -11t1.5 -13q3 -10 10.5 -18.5t23.5 -12.5v-35h-10h-195v35q21 5 28.5 19t7.5 36v524q0 23 -8 36t-28 18v35h10h159v0z" />
    <glyph glyph-name="glyph76" unicode="i" horiz-adv-x="270" 
d="M202 387v-297q0 -22 8.5 -36t27.5 -19v-35h-10h-196v35q20 5 28.5 19.5t8.5 35.5v208q0 21 -9 36.5t-28 17.5v35h10h160v0zM63 568v4.5t1 5.5q3 20 20.5 37t42.5 17h10q26 0 43.5 -18.5t19.5 -40.5v-2.5v-2.5v-4t-1 -4q-2 -20 -19.5 -37.5t-42.5 -17.5h-10h-2.5h-2.5
q-22 2 -40.5 20t-18.5 43v0z" />
    <glyph glyph-name="glyph77" unicode="j" horiz-adv-x="262" 
d="M47 387h159v-434q0 -10 -2 -29t-10 -40q-10 -30 -37 -55t-80 -25l-10 -1q-40 1 -59.5 20.5t-20.5 42.5v1.5v1.5q0 16 11 28t29 12l10 -1q3 1 8.5 0.5t10.5 -3.5q7 -3 13.5 -11t8.5 -22q0 -2 1 -5.5t2 -6.5q2 -5 6.5 -10t12.5 -6q8 1 14 8t6 21q0 5 -1 10.5t-3 10.5
q-2 6 -4 11t-5 10q-4 7 -7.5 13t-4.5 8q-1 1 -2 2.5t-1 2.5q-8 13 -13.5 28.5t-5.5 45.5v276q0 35 -7.5 46t-15.5 13q-2 0 -3 0.5t-2 0.5l-8 1v35h10v0zM70 568q0 29 19.5 46.5t43.5 17.5h10q25 0 43 -18.5t20 -40.5v-2.5v-2.5q0 -23 -17.5 -42.5t-46.5 -19.5h-10
q-28 0 -45 19t-17 43v0z" />
    <glyph glyph-name="glyph78" unicode="k" horiz-adv-x="474" 
d="M284 387h176v-35q-10 -1 -35 -10t-55 -36l-45 -40l99 -184q2 -4 4.5 -8.5t5.5 -8.5q7 -10 16.5 -18.5t23.5 -11.5v-35h-10h-202v35q14 0 18.5 5.5t4.5 12.5q0 3 -0.5 5.5t-1.5 4.5t-2 4.5t-3 5.5q-2 5 -3 7t-2 3v0v0q-1 2 -1.5 3.5t-2.5 5.5l-44 89l-23 -19v-72
q0 -22 8.5 -36t27.5 -19v-35h-10h-196v35q20 5 28.5 19.5t8.5 35.5v523v3.5v3.5q-1 16 -8.5 29.5t-28.5 18.5v35h10h160v-484l72 62q1 1 2 1.5t1 1.5h0.5h0.5l4.5 4.5t7.5 6.5l4 4t5 4q5 6 10 13t5 15q0 9 -7 13.5t-16 5.5q-5 1 -9.5 1.5t-7.5 0.5v35h10v0z" />
    <glyph glyph-name="glyph79" unicode="l" horiz-adv-x="269" 
d="M32 0v35q20 5 28 19t8 36v513v1.5v1.5v11t-1 11q-2 13 -9.5 24t-25.5 16v35h10h159v-613q0 -5 0.5 -11t1.5 -13q3 -10 10.5 -18.5t23.5 -12.5v-35h-10h-195v0z" />
    <glyph glyph-name="glyph80" unicode="m" horiz-adv-x="721" 
d="M42 387h159v-45q13 16 28 26.5t30 16.5q14 5 28 7.5t26 2.5h10q33 0 58.5 -16t40.5 -40q22 26 52.5 41t66.5 15h10q39 0 70.5 -25.5t31.5 -89.5v-190q0 -5 0.5 -11t1.5 -13q3 -10 10.5 -18.5t23.5 -12.5v-35h-10h-195v35q17 5 26.5 18.5t9.5 36.5v168v0.5v1.5v10t-1 11
q-1 15 -8 27.5t-27 14.5q-18 -1 -33.5 -12t-23.5 -31v-190q0 -21 8.5 -35.5t28.5 -19.5v-35h-10h-197v35q20 5 28.5 19.5t8.5 35.5v168q0 25 -5.5 44t-31.5 21q-1 0 -2.5 -0.5t-2.5 -0.5q-18 -3 -33.5 -15t-17.5 -25v-1.5v-1.5v-189q0 -25 10 -38.5t26 -16.5v-35h-10h-195
v35q16 4 23.5 12.5t10.5 18.5q1 7 1.5 13t0.5 11v208v9t-1 10q-3 12 -10 22t-25 13v35h10v0z" />
    <glyph glyph-name="glyph81" unicode="n" horiz-adv-x="492" 
d="M32 0v35q21 6 28.5 19.5t7.5 35.5v208q0 23 -8 36.5t-28 17.5v35h10h159v-40q20 21 48 34.5t61 13.5h10q58 0 78.5 -32.5t24.5 -70.5q1 -11 1.5 -22t0.5 -21v-159q0 -21 5.5 -34.5t29.5 -22.5v-33h-10h-194v35q16 4 23.5 12.5t10.5 18.5q1 7 1.5 13t0.5 11v170v10t-1 11
q-2 14 -10 26t-28 14q-21 -2 -36.5 -18.5t-15.5 -42.5v-170q0 -5 0.5 -11t1.5 -13q3 -10 10.5 -18.5t23.5 -12.5v-35h-10h-195v0z" />
    <glyph glyph-name="glyph82" unicode="o" horiz-adv-x="468" 
d="M229 -8q-82 1 -141.5 53.5t-59.5 149.5q0 92 58.5 146t142.5 54h10q80 0 140.5 -53t60.5 -147q0 -98 -60.5 -150t-140.5 -52l-10 -1v0zM234 32q45 2 52.5 41t6.5 99v11v12v12v11q1 59 -6.5 97t-52.5 40q-45 -2 -52.5 -40t-6.5 -97v-11v-12v-12v-11q-1 -60 6.5 -99
t52.5 -41v0z" />
    <glyph glyph-name="glyph83" unicode="p" horiz-adv-x="543" 
d="M32 -197v35q18 3 26.5 11t12.5 18q2 6 2.5 11.5t0.5 9.5v317q0 86 45 127t99 54q19 5 37.5 7t35.5 2h10q86 0 150 -49.5t64 -146.5q0 -93 -53.5 -146t-126.5 -53h-10q-22 0 -53 5t-65 24v-142q0 -1 0.5 -3.5t0.5 -5.5q2 -8 6 -15t10 -12l4 -3q1 0 2.5 -1.5t4.5 -2.5
t6.5 -2.5t9.5 -2.5v-36h-10h-209v0zM207 266v-143q0 -32 25.5 -51t57.5 -21q51 2 64.5 44.5t13.5 106.5q0 56 -11.5 103.5t-70.5 49.5q-5 0 -10.5 -1t-10.5 -3q-22 -6 -40 -26t-18 -59v0z" />
    <glyph glyph-name="glyph84" unicode="q" horiz-adv-x="502" 
d="M434 395v-502q0 -3 0.5 -7.5t0.5 -8.5q2 -12 9.5 -23t25.5 -15v-36h-10h-196v35q21 6 28.5 19.5t8.5 29.5v3.5v3.5v130q-6 -5 -11.5 -8.5t-11.5 -7.5q-17 -8 -33.5 -11.5t-32.5 -3.5l-10 -1q-13 1 -28 3t-30 6q-43 14 -79.5 55t-36.5 123q0 83 48.5 149.5t143.5 66.5h10
q19 0 33 -3t26 -8q5 -2 10 -3.5t10 -3.5q17 -7 29 -9.5t21 -3.5q11 2 21.5 10t16.5 21h10h27v0zM301 294q0 24 -14 42t-40 19q-43 -2 -57.5 -39t-14.5 -125q0 -54 9.5 -94t58.5 -42q24 1 36 13.5t17 26.5q4 12 4.5 22t0.5 15v162v0z" />
    <glyph glyph-name="glyph85" unicode="r" horiz-adv-x="341" 
d="M42 387h138v-47q16 26 37 40.5t43 14.5h10q26 0 41.5 -13.5t15.5 -39.5q0 -22 -12 -34.5t-26 -15.5q-3 0 -5.5 -0.5t-5.5 -0.5h-10h-3.5t-3.5 1q-4 0 -7.5 1.5t-6.5 2.5q-3 2 -6 3.5t-5 3.5q-4 3 -7.5 6t-7.5 4q-1 0 -3 -1t-3 -2q-6 -4 -10 -12.5t-4 -24.5v-183
q0 -25 10 -38.5t26 -16.5v-35h-10h-195v35q16 4 23.5 12.5t10.5 18.5q1 7 1.5 13t0.5 11v208v9t-1 10q-3 12 -10 22t-25 13v35h10v0z" />
    <glyph glyph-name="glyph86" unicode="s" horiz-adv-x="364" 
d="M177 -8q-68 1 -106 22t-38 54q0 20 12 33t31 13h10q4 0 9.5 -0.5t11.5 -2.5q9 -4 17.5 -13t11.5 -27q1 -3 2 -7.5t3 -8.5q4 -8 13.5 -15t28.5 -8q22 1 34 12.5t15 24.5q1 4 1.5 7t0.5 6q0 20 -11 32.5t-32 23.5q-11 5 -25 11.5t-31 13.5q-2 1 -3.5 1.5t-2.5 1.5
q-38 15 -67.5 36.5t-29.5 69.5q0 49 36 86t108 37h10q52 0 87 -22.5t35 -51.5q0 -13 -8.5 -23t-27.5 -10h-10q-13 0 -20.5 6t-10.5 13q-3 4 -4 8t-2 7t-2 6.5t-4 7.5q-4 7 -12.5 12.5t-24.5 6.5q-19 -1 -29.5 -10.5t-12.5 -21.5q-1 -1 -1 -3v-4q0 -22 23 -36t50 -25
q4 -1 7 -2.5t7 -2.5q7 -3 14.5 -6.5t14.5 -6.5t15 -7.5t16 -10.5q20 -14 37 -37.5t17 -57.5v-7.5t-1 -7.5q-5 -44 -40.5 -80t-111.5 -36l-10 -1v0z" />
    <glyph glyph-name="glyph87" unicode="t" horiz-adv-x="324" 
d="M32 391h49v91l123 39h10v-130h81v-40h-81v-261q0 -4 0.5 -9.5t1.5 -11.5q3 -9 9.5 -17.5t20.5 -9.5q6 1 15 3t19 7h10l13 -29q-6 -4 -12 -7.5t-12 -6.5q-25 -11 -47.5 -13.5t-31.5 -2.5l-10 -1q-6 1 -11.5 1t-11.5 1q-32 4 -59 26t-27 89v242h-49v40v0z" />
    <glyph glyph-name="glyph88" unicode="u" horiz-adv-x="494" 
d="M426 387v-297q0 -22 7.5 -35.5t28.5 -19.5v-35h-10h-159v41l-6.5 -6.5t-7.5 -6.5q-16 -14 -40.5 -24.5t-56.5 -10.5l-10 -1q-52 1 -75.5 28t-26.5 59q-1 4 -1 7.5v7.5v204q0 21 -9 36.5t-28 17.5v35h10h160v-260q0 -4 0.5 -12t2.5 -17q4 -11 12 -20.5t24 -11.5q3 0 7 1
t8 3q14 6 25.5 19.5t11.5 37.5v171q0 3 -0.5 10.5t-3.5 15.5q-3 10 -10.5 18t-21.5 10v35h10h159v0z" />
    <glyph glyph-name="glyph89" unicode="v" horiz-adv-x="474" 
d="M440 387v-35q-23 -4 -33 -19t-17 -32q0 -2 -0.5 -3.5t-1.5 -3.5l-110 -302h-10h-29l-145 309q-2 3 -3.5 6t-2.5 6q-9 16 -19.5 25.5t-34.5 13.5v35h10h219v-35q-20 0 -27 -8t-7 -19v-2.5v-3.5q1 -4 2 -7.5t2 -7.5q1 -3 2.5 -6t1.5 -4l57 -122l44 122q4 10 5.5 17t1.5 13
q0 12 -9 19t-19 8q-2 1 -3.5 1h-3.5h-2v35h10h122v0z" />
    <glyph glyph-name="glyph90" unicode="w" horiz-adv-x="741" 
d="M44 387h226v-35h-5q-23 0 -35 -11t-12 -26q0 -6 2 -11l4 -10l69 -144l89 237h10h40l115 -237l54 144q5 15 6.5 22t1.5 11q0 12 -9 18.5t-22 6.5h-4v35h10h126v-35q-25 -5 -35.5 -21.5t-18.5 -36.5l-114 -302h-10h-44l-107 223l-85 -223h-10h-44l-146 302q-2 5 -5.5 11
t-7.5 13q-7 12 -18.5 22t-30.5 12v35h10v0z" />
    <glyph glyph-name="glyph91" unicode="x" horiz-adv-x="491" 
d="M42 387h219v-35h-3q-12 0 -17 -5.5t-6 -11.5q-1 -2 -1 -3.5v-3.5q0 -1 3 -9t13 -24l22 -31l24 30q3 4 6.5 8t5.5 8t3.5 8t1.5 8q0 11 -9 18t-23 8v35h10h143v-35q-13 -2 -30 -12.5t-43 -41.5l-62 -74l110 -153q2 -3 5.5 -7.5t8.5 -8.5q5 -6 14 -11.5t22 -8.5v-35h-10
h-221v35h4q2 0 4 0.5t5 0.5q5 2 10 7t5 15q0 5 -3 14.5t-15 26.5l-30 42l-32 -38q-2 -2 -3.5 -4.5t-3.5 -5.5q-3 -3 -5 -7l-4 -8t-3.5 -8.5t-1.5 -8.5q0 -12 8.5 -18t21.5 -8v-35h-10h-142v35q7 3 10 3.5t5 1.5h0.5t0.5 1q1 0 2 0.5t2 1.5q8 5 12.5 8t7.5 6l2 2l2 2
q2 2 4.5 5t6.5 7l6 8q2 2 4 3.5t3 3.5l78 93l-85 119q-9 12 -16.5 21.5t-14.5 16.5q-7 6 -14.5 9.5t-16.5 4.5v35h10v0z" />
    <glyph glyph-name="glyph92" unicode="y" horiz-adv-x="450" 
d="M457 387v-35h-6q-7 0 -13.5 -2t-12.5 -7q-10 -8 -21 -24t-23 -42l-179 -368q-4 -6 -7.5 -13t-6.5 -14q-18 -35 -39.5 -56t-59.5 -22l-10 -1h-5q-36 1 -55 21.5t-19 45.5v3.5v3.5q3 17 15.5 30.5t38.5 13.5l10 -1q17 1 26.5 -3.5t16.5 -10.5q2 -1 3 -2l2 -2l10 -6t12 -4
q7 2 12 9t9 15q2 4 4 7.5t3 6.5l33 65l-125 297q-7 18 -15 29t-16 18q-9 7 -16.5 9.5t-15.5 3.5v35h10h231v-35h-3q-17 0 -24 -5.5t-10 -11.5q0 -3 -0.5 -5.5t-0.5 -4.5v-2.5v-2.5q1 -5 2.5 -9t3.5 -8q1 -3 2 -5.5t2 -4.5l54 -136l63 127q1 1 2.5 5t2.5 9q1 4 2 7.5t2 7.5
t1.5 8t0.5 7q0 2 -0.5 3.5t-0.5 3.5q-3 6 -11.5 11.5t-24.5 5.5h-3v35h10h139v0z" />
    <glyph glyph-name="glyph93" unicode="z" horiz-adv-x="430" 
d="M54 283v104h10h338v-12l-201 -335h79q6 0 12.5 0.5t13.5 1.5q16 3 30.5 16t20.5 46h10h35v-104h-10h-364v16l200 331h-56q-31 0 -47 -13t-22 -29q-2 -6 -3 -11.5t-1 -10.5h-10h-35v0z" />
    <glyph glyph-name="glyph94" unicode="{" horiz-adv-x="416" 
d="M70 218v67q7 1 15 3t15 6q22 10 40 38.5t18 89.5v14t-1 14q0 6 -0.5 13t-0.5 14t-0.5 13.5t-0.5 13.5q-1 6 -1 12.5v13.5q0 81 34.5 117t75.5 46q15 4 30.5 5.5t28.5 1.5h10h3.5h3.5h3h3v-54q-27 -6 -41 -20t-21 -30q-5 -14 -6.5 -26.5t-1.5 -19.5v-13.5t1 -12.5
q0 -7 0.5 -13.5t0.5 -13.5q1 -7 1.5 -14.5t1.5 -14.5q0 -7 0.5 -14.5t0.5 -14.5q0 -61 -25.5 -108t-89.5 -76v-7q64 -28 89.5 -75t25.5 -109q0 -7 -0.5 -14.5t-0.5 -14.5q-1 -7 -1.5 -14.5t-1.5 -14.5q0 -6 -0.5 -12.5t-0.5 -13.5q-1 -6 -1 -12.5v-13.5t1.5 -19.5t6.5 -26.5
q6 -16 20.5 -30.5t41.5 -19.5v-55h-10q-3 1 -6.5 1h-7.5q-13 0 -28 1.5t-30 5.5q-41 10 -75.5 46t-34.5 117v13.5t1 12.5q0 6 0.5 12.5t0.5 13.5t0.5 14t0.5 14q1 6 1 13v14q0 61 -18 89.5t-40 38.5q-7 4 -15 6t-15 3v0z" />
    <glyph glyph-name="glyph95" unicode="|" horiz-adv-x="229" 
d="M80 829h79v-1053h-10h-79v1053h10v0z" />
    <glyph glyph-name="glyph96" unicode="}" horiz-adv-x="416" 
d="M346 218q-7 -1 -15 -3t-15 -6q-22 -10 -40 -38.5t-18 -89.5v-14t1 -13q0 -7 0.5 -14t0.5 -14t0.5 -13.5t0.5 -12.5q1 -6 1 -12.5v-13.5q0 -81 -34.5 -117t-75.5 -46q-15 -4 -30.5 -5.5t-28.5 -1.5l-10 -1q-1 1 -3 1h-3h-3.5h-3.5v53q27 6 41.5 20.5t20.5 30.5
q5 14 6.5 26.5t1.5 19.5v13.5t-1 12.5q0 7 -0.5 13.5t-0.5 12.5q-1 7 -1.5 14.5t-1.5 14.5q0 7 -0.5 14.5t-0.5 14.5q0 62 25.5 109t89.5 75v7q-64 29 -89.5 76t-25.5 108q0 7 0.5 14.5t0.5 14.5q1 7 1.5 14.5t1.5 14.5q0 7 0.5 13.5t0.5 13.5q1 6 1 12.5v13.5t-1.5 19.5
t-6.5 26.5q-7 16 -21 30t-41 20v54h10h6.5h7.5q13 0 28 -1.5t30 -5.5q41 -10 75.5 -46t34.5 -117v-13.5t-1 -12.5q0 -7 -0.5 -13.5t-0.5 -13.5t-0.5 -14t-0.5 -13q-1 -7 -1 -14v-14q0 -61 18 -89.5t40 -38.5q7 -4 15 -6t15 -3v-67v0z" />
    <glyph glyph-name="glyph97" unicode="~" horiz-adv-x="650" 
d="M127 293h-57q23 53 70 91.5t99 40.5h2.5h2.5h10q19 0 37.5 -3.5t37.5 -8.5q5 -1 9.5 -2.5t9.5 -2.5q32 -10 57.5 -18t45.5 -9q19 1 34.5 11t25.5 21l1.5 1.5l1.5 1.5h10h56q-23 -55 -58.5 -86t-73.5 -41q-9 -2 -17.5 -3t-17.5 -1h-10q-12 0 -24 2.5t-24 6.5
q-3 1 -5.5 1.5t-5.5 1.5t-6.5 2t-6.5 2q-54 17 -79.5 22.5t-37.5 6.5q-24 -1 -43.5 -10.5t-33.5 -26.5h-10v0z" />
    <glyph glyph-name="uni007F" horiz-adv-x="10" 
 />
    <glyph glyph-name="F" horiz-adv-x="860" 
d="M197 0v36q4 0 9 1.5t10 3.5q12 5 21.5 17t9.5 35v554h-36q-52 0 -83.5 -21t-48.5 -46q-8 -12 -14 -24t-9 -21h-10h-36v183h10h40q2 -1 5 -3t8 -4q8 -4 20.5 -7.5t30.5 -3.5h436q6 0 16.5 2t20.5 7q5 1 9.5 3.5t8.5 5.5h10h39v-183h-10h-36q-19 43 -43.5 66.5t-51.5 34.5
q-15 6 -30.5 8.5t-29.5 2.5h-56v-258q34 21 72 32.5t82 11.5h10q96 0 170 -54.5t74 -159.5q0 -104 -69 -166.5t-160 -62.5l-10 -1q-10 1 -21.5 2.5t-23.5 3.5q-36 8 -66 33.5t-30 73.5q0 37 22 59.5t56 22.5h10q31 0 50 -20t19 -46q0 -4 -0.5 -8.5t-1.5 -8.5q-1 -5 -2.5 -9
t-4.5 -9q-1 -1 -1.5 -2t-0.5 -2l-6 -12t-3 -12q0 -4 5 -7.5t11 -5.5q33 4 42 41t9 81v17.5v16.5v10.5v10.5q0 8 -0.5 15.5t-0.5 15.5q-4 44 -26 81t-84 39q-17 0 -37 -4.5t-40 -13.5q-11 -5 -22 -11.5t-22 -14.5v-326h-10h-200v0z" />
    <glyph glyph-name="uni0081" horiz-adv-x="565" 
d="M40 700h430q16 0 28.5 4.5t23.5 13.5h10h23v-182h-10h-36q-12 39 -30.5 61t-37.5 33q-22 13 -42.5 15t-31.5 2h-118v-554q0 -20 11 -36t39 -21v-36h-10h-249v36q26 4 36 16.5t12 27.5q1 3 1 6.5v6.5v514v6.5t-1 6.5q-2 15 -12 27.5t-36 16.5v36v0z" />
    <glyph glyph-name="D" horiz-adv-x="742" 
d="M50 700h248v-36q-28 -5 -38 -19.5t-11 -30.5v-3.5v-3.5v-179q62 1 93.5 33.5t49.5 71.5q4 8 8 17t7 17q3 7 5.5 13.5t5.5 13.5q18 44 51.5 80.5t103.5 36.5h10q20 0 36 -2.5t29 -6.5v-161h-10h-36q-4 14 -14.5 23.5t-24.5 10.5q-21 -3 -36.5 -19t-30.5 -35q-1 -2 -2 -3
l-2 -2q-1 -2 -2.5 -4t-3.5 -4q-3 -4 -6 -8.5t-7 -8.5q-21 -27 -45 -49.5t-65 -36.5v-7q99 -12 143 -50t62 -82q7 -18 11.5 -35t8.5 -33q1 -3 1.5 -6.5t1.5 -7.5q14 -55 34 -96.5t77 -45.5v-39q-14 -5 -33 -9t-46 -4l-10 -1q-78 1 -117 32.5t-56 69.5q-9 20 -13.5 39t-7.5 33
q-3 16 -6.5 33t-8.5 34q-15 55 -49 100.5t-105 44.5v0v0h-1v0v-282v-3.5v-3.5q1 -16 11 -30.5t38 -19.5v-36h-10h-248v36q26 4 36 16.5t12 27.5q1 3 1 6.5v6.5v514v6.5t-1 6.5q-2 15 -12 27.5t-36 16.5v36h10v0z" />
    <glyph glyph-name="N" horiz-adv-x="839" 
d="M197 0v36q4 0 9 1.5t10 3.5q12 5 21.5 17t9.5 35v558l-36 -1q-13 0 -34 -3.5t-43 -14.5q-23 -11 -43.5 -33.5t-34.5 -60.5h-10h-36v180h10h40q14 -7 29.5 -10.5t34.5 -3.5h437q6 0 21 2t34 12h10h39v-180h-10h-36q-14 33 -32 54t-37 33q-25 17 -48 21t-38 4l-57 1v-214
q8 2 20.5 6t28.5 8q24 5 52.5 10t58.5 6h4.5h4.5h10q89 0 127 -44t38 -143v-187q0 -25 12 -38t27 -17q2 -1 4.5 -1.5t4.5 -0.5v-36h-10h-250v36q22 3 33 12.5t15 19.5q3 7 3.5 13.5t0.5 11.5v187v2v1q0 10 -0.5 22.5t-2.5 25.5q-5 25 -23.5 46.5t-63.5 22.5
q-16 0 -38.5 -3.5t-55.5 -16.5v-287q0 -24 8 -34.5t29 -18.5q3 -1 6.5 -2t6.5 -2v-36h-10h-250v0z" />
    <glyph glyph-name="bullet" horiz-adv-x="785" 
d="M496 690h249v-36q-4 0 -7.5 -1t-7.5 -2q-13 -5 -23.5 -17t-10.5 -37v-514q0 -25 10.5 -37t23.5 -17q4 -1 7.5 -2t7.5 -1v-36h-244q-32 -31 -44.5 -74.5t-13.5 -124.5l-10 -1h-92q-1 82 -13.5 125.5t-44.5 75.5l-243 -1v36q4 1 8.5 2t9.5 3q12 6 22 18t10 34v514
q0 22 -10 34t-22 18q-5 2 -9.5 3t-8.5 2v36h10h249v-36q-19 -3 -29 -11.5t-14 -17.5t-5 -16.5t-1 -11.5v-554h286v554q0 20 -11 36.5t-39 20.5v36h10v0z" />
    <glyph glyph-name="guilsinglleft" horiz-adv-x="509" 
d="M201 703v-169h146v-40h-146v-140q5 6 11 10.5t11 8.5q22 14 42 18t32 4h10q15 0 33.5 -3t37.5 -12q39 -17 71 -66t32 -153q0 -145 -39.5 -218.5t-86.5 -103.5q-39 -26 -73.5 -30.5t-46.5 -4.5l-10 -1q-7 1 -14.5 1.5t-15.5 1.5q-33 5 -61 24.5t-28 58.5q0 23 12.5 40.5
t34.5 17.5l10 -1q25 1 43.5 -11t18.5 -39v-3.5v-3.5q-1 -2 -1 -4.5v-5.5q-1 -4 -1.5 -7.5t-0.5 -6.5q0 -2 0.5 -4t2.5 -4q2 -3 7.5 -6.5t15.5 -4.5q51 3 68 57t21 117q1 22 1 43v41v2.5v3.5v8.5v8.5v15.5v15.5q0 62 -11.5 114.5t-58.5 55.5q-5 0 -11 -1l-12 -2
q-17 -5 -30.5 -21t-13.5 -53v-161q0 -5 0.5 -11t1.5 -13q3 -10 10.5 -18.5t23.5 -12.5v-35h-10h-195v35q21 5 28.5 19t7.5 36v404h-60v40h60v80q0 23 -8 36t-28 18v35h10h159v0z" />
    <glyph glyph-name="O" horiz-adv-x="476" 
d="M42 387h197v-35q-19 -2 -28 -17.5t-9 -36.5v-72q32 1 50.5 21.5t29.5 44.5q1 3 2.5 6t2.5 6q3 8 7.5 17t10.5 19q12 21 33 38.5t53 17.5h10q9 0 19.5 -1.5t22.5 -6.5v-125h-10h-35v3q0 14 -8.5 25t-22.5 13q-18 -2 -28 -13t-17 -24l-1.5 -1.5t-0.5 -1.5q-4 -6 -8 -13
t-10 -14t-14.5 -14t-19.5 -13v-5h2.5h2.5h2.5h2.5q43 0 80 -23t50 -57q3 -7 5.5 -15t4.5 -16q0 -1 0.5 -1.5t0.5 -1.5q6 -22 14.5 -40.5t30.5 -24.5v-34h-10q-2 1 -4 1h-4h-5h-4q-98 0 -123.5 26t-37.5 73q-1 4 -1.5 7.5t-1.5 6.5q-1 4 -2 7.5t-2 6.5q-7 28 -17.5 46.5
t-41.5 20.5h-2h-2q-1 -1 -2 -1h-2v-96q0 -21 8.5 -35.5t28.5 -19.5v-35h-10h-197v35q20 5 28.5 19.5t8.5 35.5v208q0 21 -9 36.5t-28 17.5v35h10v0z" />
    <glyph glyph-name="tilde" horiz-adv-x="493" 
d="M201 703v-169h146v-40h-146v-147q13 14 28 23.5t30 14.5q14 5 27.5 7.5t25.5 2.5h10q64 0 82.5 -37.5t20.5 -82.5v-12.5v-12.5v-160q0 -22 7 -36t29 -19v-35h-10h-195v35q16 4 23.5 12.5t10.5 18.5q1 7 1.5 13t0.5 11v183q0 2 -1 9t-4 15q-5 9 -13.5 16.5t-24.5 8.5
q-27 -2 -37.5 -23t-10.5 -46v-163q0 -5 0.5 -11t1.5 -13q3 -10 10.5 -18.5t23.5 -12.5v-35h-10h-195v35q21 5 28.5 19t7.5 36v404h-60v40h60v80q0 23 -8 36t-28 18v35h10h159v0z" />
    <glyph glyph-name="uni00A0" unicode="&#xa0;" horiz-adv-x="10" 
 />
    <glyph glyph-name="Z" unicode="&#xa1;" horiz-adv-x="677" 
d="M677 700v-36q-15 -9 -23.5 -15.5t-13.5 -12.5q-4 -4 -6 -7.5t-5 -7.5q-1 -3 -2.5 -5.5t-2.5 -5.5q-14 -30 -27.5 -60t-25.5 -61q-18 -43 -34 -86t-31 -84q-53 -136 -115.5 -232.5t-176.5 -96.5l-10 -1q-64 1 -96 26t-38 56q0 3 -0.5 6.5t-0.5 7.5v5t1 5q2 27 21.5 49.5
t56.5 22.5h10q25 0 40 -9t23 -19q7 -8 10 -15t4 -11q3 -8 5 -14t4 -11q4 -11 10 -16t16 -6q13 1 25 8t24 20q10 12 20.5 29t21.5 41l-261 444q-1 1 -1.5 2.5t-1.5 2.5q-13 20 -27.5 33t-39.5 18v36h10h286v-36h-5q-18 0 -31 -10.5t-13 -27.5q0 -5 1.5 -11t5.5 -12l158 -259
l98 231q3 6 4.5 13.5t2.5 16.5q0 9 0.5 17t0.5 14q0 11 -13 16.5t-28 8.5q-6 1 -12 1.5t-11 1.5v36h10h183v0zM373 847q71 1 113.5 18t42.5 37q0 5 -2.5 8.5t-5.5 4.5q-5 -1 -10 -3.5t-10 -5.5q-7 -3 -14.5 -6t-15.5 -3h-10q-3 0 -6 0.5t-6 1.5q-10 2 -18.5 10t-8.5 22
q0 2 1 7t5 10q4 7 15.5 12.5t33.5 5.5h10q36 0 65 -15.5t29 -48.5q0 -5 -0.5 -10.5t-2.5 -10.5q-11 -41 -63.5 -75.5t-136.5 -34.5h-10q-84 0 -136 34.5t-63 75.5q-2 5 -2.5 10.5t-0.5 10.5q0 28 19 42t42 19q9 1 17.5 2t15.5 1h10q22 0 33.5 -5.5t15.5 -12.5q4 -5 5 -10
t1 -7q0 -14 -8.5 -22t-18.5 -10q-3 -1 -6 -1.5t-6 -0.5h-10q-8 0 -15.5 3t-14.5 6q-5 3 -10 5.5t-10 3.5q-3 -1 -5.5 -4.5t-2.5 -8.5q0 -20 42.5 -37t112.5 -18v0z" />
    <glyph glyph-name="cent" unicode="&#xa2;" horiz-adv-x="450" 
d="M457 387v-35h-6q-7 0 -13.5 -2t-12.5 -7q-10 -8 -21 -24t-23 -42l-179 -368q-4 -6 -7.5 -13t-6.5 -14q-18 -35 -39.5 -56t-59.5 -22l-10 -1h-5q-36 1 -55 21.5t-19 45.5v3.5v3.5q3 17 15.5 30.5t38.5 13.5l10 -1q17 1 26.5 -3.5t16.5 -10.5q2 -1 3 -2l2 -2l10 -6t12 -4
q7 2 12 9t9 15q2 4 4 7.5t3 6.5l33 65l-125 297q-7 18 -15 29t-16 18q-9 7 -16.5 9.5t-15.5 3.5v35h10h231v-35h-3q-17 0 -24 -5.5t-10 -11.5q0 -3 -0.5 -5.5t-0.5 -4.5v-2.5v-2.5q1 -5 2.5 -9t3.5 -8q1 -3 2 -5.5t2 -4.5l54 -136l63 127q1 1 2.5 5t2.5 9q1 4 2 7.5t2 7.5
t1.5 8t0.5 7q0 2 -0.5 3.5t-0.5 3.5q-3 6 -11.5 11.5t-24.5 5.5h-3v35h10h139v0zM255 533q42 1 72 13.5t39 27.5q1 3 2 5.5t1 5.5q0 5 -2.5 8t-5.5 4h-1.5h-1.5q-1 -1 -2.5 -1.5t-3.5 -1.5q-1 -1 -2.5 -1.5t-3.5 -1.5q-3 -1 -6.5 -2.5t-7.5 -1.5q-1 -1 -2.5 -1h-2.5h-10
q-13 0 -22.5 7.5t-9.5 18.5q0 3 0.5 6t2.5 6q4 8 13.5 14.5t27.5 6.5h10q32 0 50.5 -17t18.5 -42q0 -6 -1 -11.5t-3 -11.5q-10 -34 -48 -62t-97 -27h-10q-58 -1 -96.5 26t-50.5 60q-3 7 -4 13.5t-1 12.5q0 25 18.5 42t50.5 17h10q18 0 27.5 -6.5t13.5 -14.5q2 -3 2.5 -6
t0.5 -6q0 -11 -9.5 -18.5t-22.5 -7.5h-10h-2.5t-2.5 1q-4 0 -7.5 1.5t-6.5 2.5q-2 1 -3.5 1.5t-2.5 1.5q-3 1 -5 1.5t-4 1.5q-3 -1 -5.5 -4t-2.5 -8q0 -3 1.5 -6.5t3.5 -7.5q11 -14 41 -25.5t73 -12.5v0z" />
    <glyph glyph-name="endash" unicode="&#xa3;" horiz-adv-x="369" 
d="M80 700h249v-36q-25 -3 -35 -15t-12 -26q-2 -6 -2 -12v-12v-0.5v-0.5v-508q0 -128 -57 -188t-126 -65h-5.5h-5.5l-10 -1q-60 1 -87.5 25t-27.5 53q0 23 14.5 38.5t38.5 15.5l10 -1q1 1 1.5 1h1.5q18 -1 33 -13t15 -42v-3q0 1 0 0.5v-1.5v-4v-4q1 -6 4 -11t12 -7
q13 2 19 12t8 22q1 8 1.5 16t0.5 13v652q0 23 -8.5 42t-41.5 24v36h10v0z" />
    <glyph glyph-name="currency" unicode="&#xa4;" horiz-adv-x="760" 
d="M135 644l87 -87q17 12 35 21t37 15q21 7 41.5 10t39.5 3h10q17 0 34.5 -2.5t35.5 -7.5q21 -5 42 -15t40 -24l88 88h10l55 -55l-92 -92q15 -20 25.5 -41.5t17.5 -43.5q5 -18 7.5 -36.5t2.5 -36.5q0 -20 -3.5 -41.5t-10.5 -43.5q-6 -19 -16 -37.5t-23 -36.5l91 -91l-54 -55
h-10l-87 87q-17 -12 -35 -21t-37 -15q-21 -6 -41.5 -9t-39.5 -3h-10q-19 0 -39.5 3t-41.5 9q-19 6 -37 15t-35 21l-87 -87h-10l-55 55l92 92q-15 20 -25.5 41.5t-17.5 43.5q-5 18 -7.5 36.5t-2.5 36.5t2.5 36.5t7.5 36.5q7 22 17.5 43.5t25.5 41.5l-92 92l55 54h10v0z
M204 340q0 -78 51.5 -126t113.5 -54q3 -1 5.5 -1h5.5h5.5t5.5 1q62 6 113.5 54.5t51.5 125.5t-51.5 125.5t-113.5 54.5q-3 1 -5.5 1h-5.5h-5.5t-5.5 -1q-62 -6 -113.5 -54t-51.5 -126v0z" />
    <glyph glyph-name="emdash" unicode="&#xa5;" horiz-adv-x="562" 
d="M40 700h324q13 0 28.5 2t31.5 8q24 10 46.5 33.5t35.5 69.5h10h36v-184h-10h-23q-11 9 -23.5 13.5t-28.5 4.5h-218v-554q0 -20 11 -36t39 -21v-36h-10h-249v36q26 4 36 16.5t12 27.5q1 3 1 6.5v6.5v514v6.5t-1 6.5q-2 15 -12 27.5t-36 16.5v36v0z" />
    <glyph glyph-name="circumflex" unicode="&#xa6;" horiz-adv-x="304" 
d="M70 69v1.5v1.5q1 28 22 51t55 23h10q33 0 53.5 -21.5t23.5 -47.5v-4v-4v-4v-4q-3 -26 -23.5 -47t-53.5 -21l-10 -1q-34 1 -55 23.5t-22 50.5v1.5v1.5v0zM70 318v1.5v1.5q1 28 22 51t55 23h10q33 0 53.5 -21.5t23.5 -47.5v-4v-4v-4v-4q-3 -26 -23.5 -47.5t-53.5 -21.5h-10
q-34 0 -55 23t-22 51v1.5v1.5v0z" />
    <glyph glyph-name="scaron" unicode="&#xa7;" horiz-adv-x="566" 
d="M300 711q58 0 103 -24t45 -69q0 -4 -0.5 -8.5t-0.5 -9.5q-4 -19 -17 -35t-40 -16h-10q-22 0 -37 10.5t-15 31.5q0 10 1.5 15t3.5 8q0 1 0.5 1t0.5 1q1 3 2.5 6.5t1.5 10.5q0 2 -0.5 4.5t-1.5 4.5q-5 9 -17 16.5t-29 8.5q-35 -1 -54.5 -22t-19.5 -49q0 -31 22 -53.5
t55 -42.5q11 -6 22.5 -13t23.5 -14q14 -8 26.5 -15.5t24.5 -15.5q48 -31 77 -66t29 -86v-7.5t-1 -7.5q-5 -38 -31.5 -70.5t-69.5 -39.5v-9q31 -25 50 -55.5t19 -68.5v-2.5v-3.5q-2 -66 -51.5 -122.5t-139.5 -56.5l-10 -1q-62 1 -107 28.5t-45 79.5q0 31 17 53.5t45 22.5h10
q24 0 41 -14t17 -38q0 -9 -2.5 -16.5t-5.5 -13.5q-2 -4 -4 -7t-3 -7q-1 -2 -1.5 -4t-0.5 -4t0.5 -3.5t1.5 -3.5q4 -9 18.5 -17t39.5 -9q32 2 50.5 20t26.5 39q3 9 4.5 17.5t1.5 15.5q0 34 -29.5 56t-66.5 41q-3 2 -6.5 3.5t-6.5 3.5q-7 4 -14 7.5t-14 7.5q-10 6 -20 11.5
t-21 12.5q-44 27 -81 65t-37 96v6.5t1 7.5q4 38 30.5 71t78.5 43v5l-1.5 1.5l-1.5 1.5q-47 46 -55.5 85t-8.5 43q0 73 46 110.5t101 45.5q8 1 15.5 1.5t14.5 0.5h10v0zM413 237q0 11 -17 31t-42 42q-16 13 -33 25.5t-35 23.5q-22 13 -44 22.5t-40 10.5q-14 -1 -22 -8
t-12 -15t-5 -14.5t-1 -8.5q0 -13 13.5 -32t35.5 -39q17 -16 37.5 -32t41.5 -28t40.5 -19.5t36.5 -8.5q23 1 33 13.5t12 26.5q1 3 1 5.5v4.5v0z" />
    <glyph glyph-name="H" unicode="&#xa8;" horiz-adv-x="718" 
d="M40 700h495q20 0 30 2.5t16 15.5h10h25v-179h-10h-36q-19 70 -58 89t-103 19h-157v-253h101q40 0 63 13.5t23 48.5v2h10h36v-180h-10h-36q-2 25 -12.5 38t-21.5 19q-10 4 -19 5t-13 1h-121v-288h230q61 0 101.5 37.5t48.5 86.5h10h36v-177h-10h-628v36q26 3 36.5 15.5
t13.5 27.5q1 6 1.5 12t0.5 11v496v8.5t-1 8.5q-2 16 -12 30.5t-39 18.5v36v0zM145 847q0 30 19.5 50t42.5 25q4 1 7.5 1.5t7.5 0.5h10h4.5t5.5 -1q25 -3 45.5 -23t20.5 -53q0 -35 -23.5 -55.5t-52.5 -20.5h-10q-34 0 -55.5 24t-21.5 52v0zM398 847q0 30 19.5 50t42.5 25
q4 1 7.5 1.5t7.5 0.5h10h4.5t5.5 -1q25 -3 45.5 -23t20.5 -53q0 -35 -23.5 -55.5t-52.5 -20.5h-10q-34 0 -55.5 24t-21.5 52v0z" />
    <glyph glyph-name="I" unicode="&#xa9;" horiz-adv-x="939" 
d="M70 289q0 177 119.5 283.5t262.5 111.5h6h6h10h10t10 -1q140 -7 257.5 -113.5t117.5 -280.5v-6v-6q-5 -143 -111.5 -262t-283.5 -119l-10 -1q-1 1 -2.5 1h-3.5q-145 2 -266.5 107.5t-121.5 285.5v0zM145 289v-4.5v-4.5q4 -118 92 -217t232 -101h2.5h3.5q119 5 218.5 93
t99.5 234v6v6q-5 118 -92 216.5t-232 100.5q-144 -2 -233 -102.5t-91 -220.5v-3.5v-2.5v0zM649 143q-1 -1 -2.5 -2t-2.5 -2v0h-1q-2 -2 -4.5 -4l-7.5 -6t-15 -11.5t-25 -16.5q-20 -12 -48 -21.5t-63 -9.5h-10q-93 0 -153 67t-60 156q0 88 40.5 136.5t88.5 67.5q19 8 38 11.5
t35 3.5h10q17 0 31 -1.5t24 -4.5q9 -1 15 -3t7 -2q6 -2 12 -3.5t11 -2.5q3 1 6 2.5t5 3.5q2 1 3.5 2.5l2.5 2.5h10h22v-102h-10h-27q-14 32 -37 48.5t-48 23.5q-7 2 -14.5 3t-14.5 1q-70 -2 -85.5 -61.5t-15.5 -132.5v-15t1 -15q3 -52 27.5 -96t99.5 -45h4.5h4.5
q25 2 51.5 12.5t64.5 39.5h10l20 -24v0z" />
    <glyph glyph-name="J" unicode="&#xaa;" horiz-adv-x="719" 
d="M651 148l32 -39q-80 -68 -143.5 -93t-124.5 -26h-4.5h-4.5l-10 -1q-169 1 -259.5 113.5t-91.5 248.5v1.5v1.5q0 165 96.5 256t212.5 100q6 1 12 1h12h10q30 0 54 -3t41 -7q11 -3 19 -5.5t12 -3.5q13 -4 23.5 -6t20.5 -3q4 1 10.5 3.5t13.5 8.5l2.5 2.5l2.5 2.5h10h36
v-165h-10h-36q-19 52 -64.5 82.5t-96.5 38.5q-7 1 -13.5 1.5t-12.5 0.5q-74 -1 -124 -61.5t-54 -195.5q25 20 55.5 36.5t61.5 19.5q3 1 6 1h6h10q5 0 22 -5t43 -22q23 -15 39 -28t29 -15q4 1 9 2t9 3q12 4 22.5 10.5t18.5 14.5q3 2 5.5 4.5l4.5 4.5h10l27 -28l-12.5 -12.5
t-14.5 -12.5q-18 -17 -39 -32.5t-42 -26.5q-15 -7 -29 -11t-27 -4h-10q-15 0 -33 10t-50 29q-9 5 -16 9t-14 6q-8 3 -15 4.5t-16 1.5q-29 -1 -43.5 -17t-16.5 -34q-1 -2 -1 -4v-4q0 -20 3.5 -45t12.5 -51q18 -53 63 -97.5t133 -46.5q37 1 90 17t118 70h10v0z" />
    <glyph glyph-name="ampersand" unicode="&#xab;" horiz-adv-x="536" 
d="M225 16l-155 177l155 178h10l43 -38l-94 -140l94 -138l-43 -39h-10v0zM413 16l-157 177l157 178h10l43 -38l-96 -140l96 -138l-43 -39h-10v0z" />
    <glyph glyph-name="quotesingle" unicode="&#xac;" horiz-adv-x="770" 
d="M70 292v79h10h620v-194h-10h-79v115h-541v0z" />
    <glyph glyph-name="daggerdbl" unicode="&#xad;" horiz-adv-x="413" 
d="M70 122l34 119h144q8 0 19 1.5t23 9.5q3 2 7 5t7 7h10h29l-37 -120h-141q-14 0 -27.5 -3t-23.5 -19h-10h-34v0z" />
    <glyph glyph-name="dagger" unicode="&#xae;" horiz-adv-x="939" 
d="M70 289q0 177 119.5 283.5t262.5 111.5h6h6h10h10t10 -1q140 -7 257.5 -113.5t117.5 -280.5v-6v-6q-5 -143 -111.5 -262t-283.5 -119l-10 -1q-1 1 -2.5 1h-3.5q-145 2 -266.5 107.5t-121.5 285.5v0zM145 289v-4.5v-4.5q4 -118 92 -217t232 -101h2.5h3.5q119 5 218.5 93
t99.5 234v6v6q-5 118 -92 216.5t-232 100.5q-144 -2 -233 -102.5t-91 -220.5v-3.5v-2.5v0zM315 488h202q10 0 23.5 -2.5t27.5 -8.5q26 -10 47 -33t21 -62v-7.5t-1 -6.5q-4 -26 -23 -50t-60 -37q5 -1 7.5 -4t3.5 -6q1 -1 1.5 -2.5t1.5 -2.5q0 -1 0.5 -1.5l0.5 -0.5l74 -120
l0.5 -0.5l0.5 -0.5q1 -3 3 -6l4 -6q4 -5 10.5 -10t17.5 -9v-19h-10h-103l-95 159q-1 1 -1.5 2.5t-1.5 2.5q-5 8 -12 13t-26 5h-2v-129q0 -13 3.5 -18.5t8.5 -7.5q2 -1 3.5 -1.5t3.5 -0.5l8 -4v-21h-10h-138v21l8 3q7 2 10.5 6t6.5 8q2 5 2.5 9t0.5 6v290q0 2 -0.5 5.5
t-2.5 6.5q-2 6 -6.5 10.5t-10.5 5.5q-1 0 -1.5 0.5t-1.5 0.5h-0.5h-0.5q-1 0 -2 0.5t-2 1.5v21h10v0zM426 456v-149h38q4 0 14 1t20 5q14 7 25.5 22t11.5 46q0 6 -1.5 14t-4.5 16q-7 17 -22.5 31t-42.5 14h-38v0z" />
    <glyph glyph-name="macron" unicode="&#xaf;" horiz-adv-x="340" 
d="M300 700v-36q-22 -4 -32.5 -14.5t-13.5 -21.5q-2 -5 -2.5 -10.5t-0.5 -10.5v-514q0 -22 9 -33.5t20 -16.5q5 -3 10.5 -4.5t9.5 -2.5v-36h-10h-249v36q4 0 9 1.5t10 3.5q12 5 21.5 17t9.5 35v514q0 23 -9.5 35t-21.5 17q-5 2 -10 3.5t-9 1.5v36h10h249v0zM-13 842
q1 30 20 50t42 25q4 1 7.5 1.5t7.5 0.5h10h4.5t5.5 -1q25 -3 45.5 -23t20.5 -53q0 -35 -23.5 -55.5t-52.5 -20.5h-10q-34 0 -55 24t-21 52h-1zM190 842q0 30 19.5 50t42.5 25q4 1 7.5 1.5t7.5 0.5h10h4.5t5.5 -1q25 -3 45.5 -23t20.5 -53q0 -35 -23.5 -55.5t-52.5 -20.5h-10
q-34 0 -55.5 24t-21.5 52v0z" />
    <glyph glyph-name="degree" unicode="&#xb0;" horiz-adv-x="350" 
d="M70 601q0 47 31.5 73.5t68.5 26.5h10q45 0 72.5 -31t27.5 -69q0 -42 -28 -68.5t-62 -30.5q-2 -1 -4.5 -1h-5.5h-10q-37 0 -68.5 27.5t-31.5 72.5v0zM128 601q0 -19 12.5 -34.5t34.5 -17.5q22 2 34.5 17.5t12.5 34.5v1.5v1.5q-1 17 -13.5 32t-33.5 17q-18 -2 -32.5 -15.5
t-14.5 -36.5v0z" />
    <glyph glyph-name="at" unicode="&#xb1;" horiz-adv-x="739" 
d="M70 0v79h10h589v-79h-10h-589v0zM404 134h-79v249h-255v79h255v249h10h79v-249h255v-79h-255v-249h-10v0z" />
    <glyph glyph-name="P" unicode="&#xb2;" horiz-adv-x="339" 
d="M50 700h249v-36q-22 -3 -32 -13.5t-14 -21.5q-2 -9 -2.5 -16.5t-0.5 -12.5v-1.5v-0.5v-496v-0.5v-1.5q0 -5 0.5 -12.5t2.5 -16.5q4 -11 14 -21.5t32 -13.5v-36h-10h-249v36q24 3 34.5 15t13.5 27q1 6 1.5 12.5t0.5 11.5v496q0 5 -0.5 11.5t-1.5 12.5q-3 14 -13.5 26.5
t-34.5 15.5v36h10v0z" />
    <glyph glyph-name="S" unicode="&#xb3;" horiz-adv-x="270" 
d="M202 387v-297q0 -22 8.5 -36t27.5 -19v-35h-10h-196v35q20 5 28.5 19.5t8.5 35.5v208q0 21 -9 36.5t-28 17.5v35h10h160v0zM63 568v4.5t1 5.5q3 20 20.5 37t42.5 17h10q26 0 43.5 -18.5t19.5 -40.5v-2.5v-2.5v-4t-1 -4q-2 -20 -19.5 -37.5t-42.5 -17.5h-10h-2.5h-2.5
q-22 2 -40.5 20t-18.5 43v0z" />
    <glyph glyph-name="T" unicode="&#xb4;" horiz-adv-x="377" 
d="M32 387h177q9 0 22 1t27 7q20 7 37 27t23 60h10h35v-135h-162v-257q0 -22 7.5 -36t28.5 -19v-35h-10h-195v35q16 4 23.5 12.5t10.5 18.5q1 7 1.5 13t0.5 11v208q0 3 -0.5 10.5t-3.5 15.5q-3 10 -10 18t-22 10v35v0z" />
    <glyph glyph-name="U" unicode="&#xb5;" horiz-adv-x="502" 
d="M423 387v-291v-2v-2v-0.5v-0.5q0 -15 6 -27t38 -12h3v-34q-14 -13 -32.5 -19t-45.5 -6l-10 -1q-8 1 -20 2t-24 6q-13 4 -25.5 14.5t-20.5 30.5q-14 -15 -30.5 -25.5t-33.5 -17.5q-13 -4 -26 -6.5t-25 -2.5l-10 -1q-6 1 -13.5 3t-14.5 5q-5 2 -9.5 5.5t-8.5 7.5
q4 -17 8 -32t9 -29q10 -32 18.5 -56t8.5 -45q0 -32 -14.5 -46t-31.5 -17q-5 -1 -9.5 -1.5t-8.5 -0.5l-10 -1q-2 1 -4 1h-3q-20 2 -36 15t-16 47q0 13 3 30t8 43q2 8 3.5 17.5t3.5 19.5q1 8 2.5 16.5t2.5 17.5q4 24 7 48t3 39v308h10h124v-260q0 -5 0.5 -10.5t1.5 -11.5
q2 -14 10 -25.5t26 -13.5q20 2 36 17.5t16 43.5v260h10h124v0z" />
    <glyph glyph-name="V" unicode="&#xb6;" horiz-adv-x="635" 
d="M565 695v-53h-55v-839h-10h-78v839h-90v-839h-10h-78v626h-4h-4h-12t-12 1q-53 5 -97.5 36.5t-44.5 110.5q0 57 32 81t70 32q19 3 37 4t32 1h10h314v0z" />
    <glyph glyph-name="quoteleft" unicode="&#xb8;" horiz-adv-x="419" 
d="M391 210h-216q-1 -10 -1 -20v-19q0 -54 14.5 -87.5t62.5 -35.5q29 2 52.5 18t42.5 38h10l29 -28q-5 -7 -13 -16.5t-19 -20.5q-20 -17 -51 -31.5t-73 -14.5l-10 -1q-91 1 -141 58.5t-50 134.5q0 80 50.5 145t141.5 65h10q74 0 112 -46t46 -102q2 -9 2.5 -18.5t0.5 -18.5v0
zM271 250v6v6q0 50 -12 71t-35 22q-23 -1 -36 -21.5t-13 -74.5v-4.5v-4.5h96v0zM46 568q0 28 17.5 44.5t37.5 19.5h4h4h10q24 0 43.5 -17.5t19.5 -46.5q0 -27 -19 -45t-44 -18h-10h-1.5h-1.5q-22 1 -41 18t-19 45v0zM236 568q0 29 19.5 46.5t43.5 17.5h10q25 0 43 -18.5
t20 -40.5v-2.5v-2.5q0 -25 -17.5 -42.5t-37.5 -19.5q-2 -1 -4 -1h-4h-10q-25 0 -44 17.5t-19 45.5v0z" />
    <glyph glyph-name="one" unicode="&#xb9;" horiz-adv-x="1112" 
d="M353 700l226 -370v230q0 67 24 98.5t53 43.5q14 5 27.5 7t24.5 2h10q41 0 67.5 -23.5t26.5 -58.5q0 -26 -14 -39.5t-30 -18.5q-8 -2 -14.5 -3t-12.5 -1h-10q-8 0 -15.5 1.5t-14.5 4.5q-5 2 -9.5 4.5t-9.5 5.5l-12 8t-12 5q-7 -2 -10 -6.5t-5 -10.5q-1 -3 -1 -6.5v-6.5
v-569h-10h-34l-309 513v-362q0 -76 -24 -117t-89 -41l-10 -1q-3 1 -5.5 1t-4.5 1q-32 3 -59 24.5t-27 59.5q0 40 17.5 57t39.5 19h2.5h2.5h10q16 0 26 -4t15 -9q4 -2 6 -4.5t3 -4.5q1 -1 2 -2.5t3 -2.5q2 -3 5.5 -5t7.5 -3q7 2 10 8t5 13q1 5 1 10v8v411q0 8 -0.5 16.5
t-1.5 16.5q-4 24 -20.5 43.5t-60.5 21.5v36h10h200v0zM752 24v91h10h229v-91h-10h-229v0zM874 486q5 0 10 -0.5t10 -0.5q56 -6 102 -45t46 -107q0 -69 -51 -110.5t-117 -41.5h-10q-66 0 -117 41.5t-51 110.5q0 68 46 107t102 45q5 0 10 0.5t10 0.5h10v0zM869 437
q-37 -1 -45.5 -29t-8.5 -75q0 -46 8.5 -73.5t45.5 -29.5q38 2 46 29.5t8 73.5q0 47 -8.5 74.5t-45.5 29.5v0z" />
    <glyph glyph-name="G" unicode="&#xba;" horiz-adv-x="423" 
d="M364 99l31 -24q-39 -45 -82 -63.5t-89 -18.5l-10 -1q-82 1 -124.5 46.5t-55.5 100.5q-3 13 -4.5 26.5t-1.5 26.5q0 83 42 130t93 63q16 5 31 7.5t29 2.5h10q22 0 29.5 -2.5t12.5 -5.5v0h1q3 -2 8 -4t17 -3q4 1 7.5 2.5t6.5 3.5l4 3h10h35v-92h-10h-33q-9 19 -20 31
t-23 19q-8 4 -15.5 6t-14.5 3q-44 -3 -59 -40t-15 -90q9 13 22.5 20t29.5 7h10q9 0 17.5 -2.5t15.5 -6.5q3 -2 6 -3.5t6 -3.5q3 -3 6.5 -5.5t7.5 -4.5q5 -3 10 -5.5t11 -3.5q5 1 13.5 3.5t24.5 8.5h10v-23q-29 -25 -50 -35t-37 -10h-10h-5t-5 1q-5 0 -10 1.5t-10 3.5t-9 4.5
t-8 5.5q-7 5 -13 9.5t-12 5.5q-1 0 -2.5 -0.5t-2.5 -1.5q-5 -2 -9.5 -7t-5.5 -14q0 -68 24.5 -94.5t55.5 -28.5q8 1 17 3t17 5q18 7 35 18.5t30 25.5h10v0z" />
    <glyph glyph-name="bracketleft" unicode="&#xbb;" horiz-adv-x="536" 
d="M113 16l-43 39l96 138l-96 140l43 38h10l157 -178l-157 -177h-10v0zM301 16l-43 39l94 138l-94 140l43 38h10l155 -178l-155 -177h-10v0z" />
    <glyph glyph-name="w" unicode="&#xbc;" horiz-adv-x="262" 
d="M47 387h159v-434q0 -10 -2 -29t-10 -40q-10 -30 -37 -55t-80 -25l-10 -1q-40 1 -59.5 20.5t-20.5 42.5v1.5v1.5q0 16 11 28t29 12l10 -1q3 1 8.5 0.5t10.5 -3.5q7 -3 13.5 -11t8.5 -22q0 -2 1 -5.5t2 -6.5q2 -5 6.5 -10t12.5 -6q8 1 14 8t6 21q0 5 -1 10.5t-3 10.5
q-2 6 -4 11t-5 10q-4 7 -7.5 13t-4.5 8q-1 1 -2 2.5t-1 2.5q-8 13 -13.5 28.5t-5.5 45.5v276q0 35 -7.5 46t-15.5 13q-2 0 -3 0.5t-2 0.5l-8 1v35h10v0zM70 568q0 29 19.5 46.5t43.5 17.5h10q25 0 43 -18.5t20 -40.5v-2.5v-2.5q0 -23 -17.5 -42.5t-46.5 -19.5h-10
q-28 0 -45 19t-17 43v0z" />
    <glyph glyph-name="bracketright" unicode="&#xbd;" horiz-adv-x="600" 
d="M508 683v-163h-10h-39q-14 60 -47 89.5t-69 40.5q-14 4 -27 6t-25 2q-49 -1 -73.5 -26t-29.5 -55q0 -4 -0.5 -7.5t-0.5 -7.5q0 -31 19.5 -51.5t42.5 -33.5q16 -8 30 -13.5t23 -8.5q5 -2 9 -3.5t9 -3.5q94 -34 164.5 -80t70.5 -152q0 -92 -68 -159t-181 -67l-10 -1
q-33 1 -58.5 6t-46.5 10q-3 1 -7 2t-7 2q-16 5 -28 8t-23 4q-9 -1 -15 -5t-9 -8q-1 -1 -2 -3t-2 -3l-1 -3h-10h-31l-11 175h10h39q23 -48 65 -81.5t88 -44.5q10 -3 20 -4.5t20 -1.5q60 2 94 29.5t45 60.5q4 9 5.5 18.5t1.5 18.5q0 48 -40 71t-89 41q-1 0 -1.5 0.5t-1.5 0.5
q-3 1 -6.5 2.5t-6.5 2.5q-18 7 -41.5 16t-47.5 22q-46 25 -84.5 68.5t-38.5 115.5q0 88 61 145t145 57h10q29 0 51 -4.5t39 -12.5q18 -8 29.5 -15t21.5 -10q1 -1 3 -1.5t4 -0.5q7 1 13.5 4.5t10.5 11.5h10h34v0z" />
    <glyph glyph-name="R" unicode="&#xbe;" horiz-adv-x="364" 
d="M177 -8q-68 1 -106 22t-38 54q0 20 12 33t31 13h10q4 0 9.5 -0.5t11.5 -2.5q9 -4 17.5 -13t11.5 -27q1 -3 2 -7.5t3 -8.5q4 -8 13.5 -15t28.5 -8q22 1 34 12.5t15 24.5q1 4 1.5 7t0.5 6q0 20 -11 32.5t-32 23.5q-11 5 -25 11.5t-31 13.5q-2 1 -3.5 1.5t-2.5 1.5
q-38 15 -67.5 36.5t-29.5 69.5q0 49 36 86t108 37h10q52 0 87 -22.5t35 -51.5q0 -13 -8.5 -23t-27.5 -10h-10q-13 0 -20.5 6t-10.5 13q-3 4 -4 8t-2 7t-2 6.5t-4 7.5q-4 7 -12.5 12.5t-24.5 6.5q-19 -1 -29.5 -10.5t-12.5 -21.5q-1 -1 -1 -3v-4q0 -22 23 -36t50 -25
q4 -1 7 -2.5t7 -2.5q7 -3 14.5 -6.5t14.5 -6.5t15 -7.5t16 -10.5q20 -14 37 -37.5t17 -57.5v-7.5t-1 -7.5q-5 -44 -40.5 -80t-111.5 -36l-10 -1v0z" />
    <glyph glyph-name="underscore" unicode="&#xbf;" horiz-adv-x="268" 
d="M202 387v-297q0 -22 8.5 -36t27.5 -19v-35h-10h-196v35q20 5 28.5 19.5t8.5 35.5v208q0 21 -9 36.5t-28 17.5v35h10h160v0zM-22 568q1 1 1 2.5v2.5q2 22 19 40.5t43 18.5h10q24 0 43.5 -17.5t19.5 -46.5q0 -28 -19 -45.5t-44 -17.5h-10q-25 0 -42 17.5t-19 37.5
q-1 2 -1 4v4h-1zM154 568q0 26 14.5 41t31.5 20q4 2 8.5 2.5t8.5 0.5h10q24 0 43.5 -17.5t19.5 -46.5q0 -27 -19 -45t-44 -18h-10q-3 0 -7 0.5t-7 1.5q-19 4 -34 19.5t-15 41.5v0z" />
    <glyph glyph-name="grave" unicode="&#xc0;" horiz-adv-x="768" 
d="M0 36q7 2 22.5 11t32.5 34q5 7 9.5 15t8.5 17l202 427q3 7 5.5 15t3.5 16q2 7 2.5 15t0.5 15q0 8 -10.5 14.5t-27.5 5.5h-4.5h-4.5v36q41 3 67.5 14.5t42.5 24.5q5 3 9 7t7 8h10h36l262 -548q31 -64 51 -89.5t39 -35.5q1 0 2 -0.5t2 -1.5v-36h-10h-286v36h3q22 0 35 14.5
t16 31.5q0 3 0.5 5.5t0.5 5.5q0 2 -1 6.5t-3 8.5v2t-1 2q-1 4 -2 7t-2 5l-31 65h-309l-26 -59q-1 -2 -1.5 -4t-1.5 -4q-2 -4 -4 -9t-3 -11q-1 -3 -1 -6.5v-7.5q0 -16 13.5 -30.5t51.5 -21.5v-36h-10h-196v36v0zM332 514l-124 -268v-4h250v3l-126 269v0z" />
    <glyph glyph-name="grave" unicode="&#x410;" horiz-adv-x="768" 
d="M0 36q7 2 22.5 11t32.5 34q5 7 9.5 15t8.5 17l202 427q3 7 5.5 15t3.5 16q2 7 2.5 15t0.5 15q0 8 -10.5 14.5t-27.5 5.5h-4.5h-4.5v36q41 3 67.5 14.5t42.5 24.5q5 3 9 7t7 8h10h36l262 -548q31 -64 51 -89.5t39 -35.5q1 0 2 -0.5t2 -1.5v-36h-10h-286v36h3q22 0 35 14.5
t16 31.5q0 3 0.5 5.5t0.5 5.5q0 2 -1 6.5t-3 8.5v2t-1 2q-1 4 -2 7t-2 5l-31 65h-309l-26 -59q-1 -2 -1.5 -4t-1.5 -4q-2 -4 -4 -9t-3 -11q-1 -3 -1 -6.5v-7.5q0 -16 13.5 -30.5t51.5 -21.5v-36h-10h-196v36v0zM332 514l-124 -268v-4h250v3l-126 269v0z" />
    <glyph glyph-name="a" unicode="&#xc1;" horiz-adv-x="659" 
d="M40 700h426q27 0 40.5 2.5t23.5 15.5h10h26v-183h-10h-36q-5 13 -10 24t-10 20q-26 46 -52.5 57t-59.5 11h-138v-228h97q134 0 191 -49t70 -108q3 -13 4.5 -26t1.5 -25q0 -15 -2 -32t-7 -34q-17 -54 -73.5 -99.5t-179.5 -45.5h-10h-302v36q29 5 39.5 21.5t10.5 44.5v496
q0 28 -10.5 45t-39.5 21v36v0zM250 53h63q63 0 94 27t31 128q0 84 -26 115.5t-57 38.5q-10 3 -21 3.5t-20 0.5h-64v-313v0z" />
    <glyph glyph-name="a" unicode="&#x411;" horiz-adv-x="659" 
d="M40 700h426q27 0 40.5 2.5t23.5 15.5h10h26v-183h-10h-36q-5 13 -10 24t-10 20q-26 46 -52.5 57t-59.5 11h-138v-228h97q134 0 191 -49t70 -108q3 -13 4.5 -26t1.5 -25q0 -15 -2 -32t-7 -34q-17 -54 -73.5 -99.5t-179.5 -45.5h-10h-302v36q29 5 39.5 21.5t10.5 44.5v496
q0 28 -10.5 45t-39.5 21v36v0zM250 53h63q63 0 94 27t31 128q0 84 -26 115.5t-57 38.5q-10 3 -21 3.5t-20 0.5h-64v-313v0z" />
    <glyph glyph-name="b" unicode="&#xc2;" horiz-adv-x="660" 
d="M50 700h270h12h12q110 0 160 -35t65 -76q5 -15 7 -28.5t2 -26.5q0 -61 -31.5 -96t-69.5 -52q-14 -6 -27 -10t-25 -7v-10q79 -7 134.5 -55.5t55.5 -125.5t-41.5 -114t-90.5 -51q-34 -9 -65 -11t-49 -2h-10h-319v36q26 4 36 16.5t12 27.5q1 3 1 6.5v6.5v514v6.5t-1 6.5
q-2 15 -12 27.5t-36 16.5v36h10v0zM249 338v-285h48q12 0 29 1.5t35 7.5q31 10 56.5 38.5t25.5 89.5q0 72 -42 105.5t-92 40.5q-8 1 -16.5 1.5t-16.5 0.5h-27v0zM249 647v-256h44q55 0 90.5 34t35.5 93q0 62 -27.5 88.5t-60.5 34.5q-16 4 -31 5t-27 1h-24v0z" />
    <glyph glyph-name="b" unicode="&#x412;" horiz-adv-x="660" 
d="M50 700h270h12h12q110 0 160 -35t65 -76q5 -15 7 -28.5t2 -26.5q0 -61 -31.5 -96t-69.5 -52q-14 -6 -27 -10t-25 -7v-10q79 -7 134.5 -55.5t55.5 -125.5t-41.5 -114t-90.5 -51q-34 -9 -65 -11t-49 -2h-10h-319v36q26 4 36 16.5t12 27.5q1 3 1 6.5v6.5v514v6.5t-1 6.5
q-2 15 -12 27.5t-36 16.5v36h10v0zM249 338v-285h48q12 0 29 1.5t35 7.5q31 10 56.5 38.5t25.5 89.5q0 72 -42 105.5t-92 40.5q-8 1 -16.5 1.5t-16.5 0.5h-27v0zM249 647v-256h44q55 0 90.5 34t35.5 93q0 62 -27.5 88.5t-60.5 34.5q-16 4 -31 5t-27 1h-24v0z" />
    <glyph glyph-name="c" unicode="&#xc3;" horiz-adv-x="565" 
d="M40 700h430q16 0 28.5 4.5t23.5 13.5h10h23v-182h-10h-36q-12 39 -30.5 61t-37.5 33q-22 13 -42.5 15t-31.5 2h-118v-554q0 -20 11 -36t39 -21v-36h-10h-249v36q26 4 36 16.5t12 27.5q1 3 1 6.5v6.5v514v6.5t-1 6.5q-2 15 -12 27.5t-36 16.5v36v0z" />
    <glyph glyph-name="c" unicode="&#x413;" horiz-adv-x="565" 
d="M40 700h430q16 0 28.5 4.5t23.5 13.5h10h23v-182h-10h-36q-12 39 -30.5 61t-37.5 33q-22 13 -42.5 15t-31.5 2h-118v-554q0 -20 11 -36t39 -21v-36h-10h-249v36q26 4 36 16.5t12 27.5q1 3 1 6.5v6.5v514v6.5t-1 6.5q-2 15 -12 27.5t-36 16.5v36v0z" />
    <glyph glyph-name="d" unicode="&#xc4;" horiz-adv-x="714" 
d="M674 700v-36q-28 -6 -40 -19.5t-12 -37.5v-495v-1.5v-1.5v-0.5v-1.5q0 -20 9.5 -37t68.5 -17h2h3q13 0 23 -3.5t11 -26.5q-1 -15 -7 -31t-16 -33q-15 -29 -37.5 -55.5t-46.5 -44.5q-17 -12 -32.5 -19.5t-29.5 -7.5l-10 -1q-11 1 -16.5 5t-7.5 9q-1 3 -1.5 5.5t-0.5 4.5
q0 7 3.5 14t7.5 16q1 1 1.5 2l1.5 3q6 13 12 28t6 32q0 4 -0.5 9t-2.5 10q-3 12 -13 21.5t-31 9.5h-301q-31 0 -44 -8t-13 -29q0 -16 3 -22.5t8 -11.5q0 -1 1 -1.5t2 -1.5q5 -7 9.5 -19.5t4.5 -45.5q0 -14 -5.5 -21.5t-20.5 -7.5l-10 -1q-6 1 -20.5 6t-44.5 32q-7 6 -15 15
t-17 20q-11 14 -21.5 30t-18.5 32q-7 15 -11.5 29.5t-4.5 27.5q0 20 10.5 25t27.5 8q2 0 4 0.5t4 0.5q15 2 27.5 5t24.5 12q30 22 68.5 107.5t120.5 309.5q17 45 24.5 68t7.5 42q0 27 -16.5 45.5t-81.5 17.5v36h10h443v0zM462 647q-19 -3 -39.5 -19.5t-42.5 -44.5
q-35 -46 -68.5 -114t-59.5 -141q-25 -68 -39.5 -132.5t-14.5 -110.5q0 -19 10 -25.5t32 -6.5h222v594v0z" />
    <glyph glyph-name="d" unicode="&#x414;" horiz-adv-x="714" 
d="M674 700v-36q-28 -6 -40 -19.5t-12 -37.5v-495v-1.5v-1.5v-0.5v-1.5q0 -20 9.5 -37t68.5 -17h2h3q13 0 23 -3.5t11 -26.5q-1 -15 -7 -31t-16 -33q-15 -29 -37.5 -55.5t-46.5 -44.5q-17 -12 -32.5 -19.5t-29.5 -7.5l-10 -1q-11 1 -16.5 5t-7.5 9q-1 3 -1.5 5.5t-0.5 4.5
q0 7 3.5 14t7.5 16q1 1 1.5 2l1.5 3q6 13 12 28t6 32q0 4 -0.5 9t-2.5 10q-3 12 -13 21.5t-31 9.5h-301q-31 0 -44 -8t-13 -29q0 -16 3 -22.5t8 -11.5q0 -1 1 -1.5t2 -1.5q5 -7 9.5 -19.5t4.5 -45.5q0 -14 -5.5 -21.5t-20.5 -7.5l-10 -1q-6 1 -20.5 6t-44.5 32q-7 6 -15 15
t-17 20q-11 14 -21.5 30t-18.5 32q-7 15 -11.5 29.5t-4.5 27.5q0 20 10.5 25t27.5 8q2 0 4 0.5t4 0.5q15 2 27.5 5t24.5 12q30 22 68.5 107.5t120.5 309.5q17 45 24.5 68t7.5 42q0 27 -16.5 45.5t-81.5 17.5v36h10h443v0zM462 647q-19 -3 -39.5 -19.5t-42.5 -44.5
q-35 -46 -68.5 -114t-59.5 -141q-25 -68 -39.5 -132.5t-14.5 -110.5q0 -19 10 -25.5t32 -6.5h222v594v0z" />
    <glyph glyph-name="e" unicode="&#xc5;" horiz-adv-x="718" 
d="M40 700h495q20 0 30 2.5t16 15.5h10h25v-179h-10h-36q-19 70 -58 89t-103 19h-157v-253h101q40 0 63 13.5t23 48.5v2h10h36v-180h-10h-36q-2 25 -12.5 38t-21.5 19q-10 4 -19 5t-13 1h-121v-288h230q61 0 101.5 37.5t48.5 86.5h10h36v-177h-10h-628v36q26 3 36.5 15.5
t13.5 27.5q1 6 1.5 12t0.5 11v496v8.5t-1 8.5q-2 16 -12 30.5t-39 18.5v36v0z" />
    <glyph glyph-name="e" unicode="&#x415;" horiz-adv-x="718" 
d="M40 700h495q20 0 30 2.5t16 15.5h10h25v-179h-10h-36q-19 70 -58 89t-103 19h-157v-253h101q40 0 63 13.5t23 48.5v2h10h36v-180h-10h-36q-2 25 -12.5 38t-21.5 19q-10 4 -19 5t-13 1h-121v-288h230q61 0 101.5 37.5t48.5 86.5h10h36v-177h-10h-628v36q26 3 36.5 15.5
t13.5 27.5q1 6 1.5 12t0.5 11v496v8.5t-1 8.5q-2 16 -12 30.5t-39 18.5v36v0z" />
    <glyph glyph-name="f" unicode="&#xc6;" horiz-adv-x="1020" 
d="M390 700h250v-36q-1 -1 -2.5 -1t-2.5 -1v0h-1t-2.5 -0.5l-4.5 -1.5t-7 -2.5t-8 -4.5q-8 -5 -15 -16t-7 -30v-124h4.5t4.5 -1q41 3 62.5 29.5t34.5 58.5q2 3 3.5 6.5t2.5 6.5q4 10 9.5 22t12.5 25q17 31 46 57t75 26h10q14 0 30 -3t34 -10v-161h-10h-45q-1 14 -9.5 23.5
t-18.5 11.5q-9 -2 -16.5 -8t-13.5 -12q-4 -6 -7.5 -10.5t-5.5 -7.5q-3 -4 -5.5 -8t-4.5 -7q-13 -19 -30.5 -33.5t-59.5 -28.5v-6q11 -2 43.5 -12.5t68.5 -35.5q18 -13 36 -30t33 -39q35 -50 47.5 -110.5t19.5 -127.5v-2.5v-2.5q3 -20 8.5 -34.5t30.5 -22.5v-36h-10h-235v36
q30 10 36.5 36.5t6.5 66.5q0 65 -11 114t-40 93q-23 35 -56 58t-72 25h-2h-2q-2 -1 -3 -1h-2v-335q0 -19 7 -30t15 -16q4 -3 8 -4.5t7 -2.5l4.5 -1.5t2.5 -0.5h1v0q1 -1 2.5 -1t2.5 -1v-36h-10h-250v36q2 1 3 1t2 1v0h1t2.5 0.5l4.5 1.5t7 2.5t8 4.5q8 5 15 16t7 30v335
h-2.5t-2.5 1h-3h-2q-40 -2 -72 -25t-55 -58q-29 -44 -40 -93t-11 -114q0 -40 6.5 -66.5t36.5 -36.5v-36h-10h-235v36q25 8 30.5 22.5t8.5 34.5v2.5v2.5q8 67 20.5 127.5t46.5 110.5q15 22 33 39t36 30q36 25 68.5 35.5t43.5 12.5v6q-42 14 -59.5 28.5t-30.5 33.5
q-2 3 -4.5 7t-5.5 8q-2 3 -5.5 7.5t-7.5 10.5q-6 6 -13.5 12t-16.5 8q-10 -2 -18 -11.5t-10 -23.5h-10h-45v161q18 7 34.5 10t30.5 3h10q46 0 74.5 -26t45.5 -57q7 -13 12.5 -25t9.5 -22q1 -3 2.5 -6.5t3.5 -6.5q13 -32 34.5 -58.5t62.5 -29.5h2t3 1h2h2v124q0 19 -7 30
t-15 16q-4 3 -8 4.5t-7 2.5l-4.5 1.5t-2.5 0.5h-1v0q-1 1 -2 1t-3 1v36h10v0z" />
    <glyph glyph-name="f" unicode="&#x416;" horiz-adv-x="1020" 
d="M390 700h250v-36q-1 -1 -2.5 -1t-2.5 -1v0h-1t-2.5 -0.5l-4.5 -1.5t-7 -2.5t-8 -4.5q-8 -5 -15 -16t-7 -30v-124h4.5t4.5 -1q41 3 62.5 29.5t34.5 58.5q2 3 3.5 6.5t2.5 6.5q4 10 9.5 22t12.5 25q17 31 46 57t75 26h10q14 0 30 -3t34 -10v-161h-10h-45q-1 14 -9.5 23.5
t-18.5 11.5q-9 -2 -16.5 -8t-13.5 -12q-4 -6 -7.5 -10.5t-5.5 -7.5q-3 -4 -5.5 -8t-4.5 -7q-13 -19 -30.5 -33.5t-59.5 -28.5v-6q11 -2 43.5 -12.5t68.5 -35.5q18 -13 36 -30t33 -39q35 -50 47.5 -110.5t19.5 -127.5v-2.5v-2.5q3 -20 8.5 -34.5t30.5 -22.5v-36h-10h-235v36
q30 10 36.5 36.5t6.5 66.5q0 65 -11 114t-40 93q-23 35 -56 58t-72 25h-2h-2q-2 -1 -3 -1h-2v-335q0 -19 7 -30t15 -16q4 -3 8 -4.5t7 -2.5l4.5 -1.5t2.5 -0.5h1v0q1 -1 2.5 -1t2.5 -1v-36h-10h-250v36q2 1 3 1t2 1v0h1t2.5 0.5l4.5 1.5t7 2.5t8 4.5q8 5 15 16t7 30v335
h-2.5t-2.5 1h-3h-2q-40 -2 -72 -25t-55 -58q-29 -44 -40 -93t-11 -114q0 -40 6.5 -66.5t36.5 -36.5v-36h-10h-235v36q25 8 30.5 22.5t8.5 34.5v2.5v2.5q8 67 20.5 127.5t46.5 110.5q15 22 33 39t36 30q36 25 68.5 35.5t43.5 12.5v6q-42 14 -59.5 28.5t-30.5 33.5
q-2 3 -4.5 7t-5.5 8q-2 3 -5.5 7.5t-7.5 10.5q-6 6 -13.5 12t-16.5 8q-10 -2 -18 -11.5t-10 -23.5h-10h-45v161q18 7 34.5 10t30.5 3h10q46 0 74.5 -26t45.5 -57q7 -13 12.5 -25t9.5 -22q1 -3 2.5 -6.5t3.5 -6.5q13 -32 34.5 -58.5t62.5 -29.5h2t3 1h2h2v124q0 19 -7 30
t-15 16q-4 3 -8 4.5t-7 2.5l-4.5 1.5t-2.5 0.5h-1v0q-1 1 -2 1t-3 1v36h10v0z" />
    <glyph glyph-name="g" unicode="&#xc7;" horiz-adv-x="727" 
d="M115 541l11 166h10h37q1 -2 1.5 -3.5t2.5 -3.5q3 -5 10 -10t20 -6q5 0 9.5 1t9.5 2q7 2 15 4.5t18 5.5q8 2 18 4t23 4q8 1 17 2l18 2q12 1 23 1.5t20 0.5h10q20 0 42.5 -2.5t45.5 -7.5q64 -16 118.5 -58t60.5 -120v-6v-5q0 -49 -26.5 -85t-58.5 -56v-5q29 -17 48.5 -35
t32.5 -36q18 -26 24.5 -51t6.5 -47q0 -83 -54.5 -129t-119.5 -65q-26 -6 -52 -9.5t-48 -3.5l-10 -1q-54 1 -95 13.5t-75 28.5q-30 14 -55 26.5t-50 14.5q-3 1 -5.5 1h-5.5h10h-4h-4q-15 0 -32.5 -1t-35.5 -7q-3 -1 -6 -2.5t-6 -2.5h-10l-24 40q5 5 10 10.5t11 11.5
q23 21 52.5 40t60.5 26q7 1 13.5 2t12.5 1h10q32 0 57 -17.5t45 -38.5q6 -6 11 -12t10 -11q4 -4 7.5 -8.5t7.5 -8.5q17 -19 38 -35.5t51 -17.5q42 2 75.5 36.5t33.5 125.5q0 34 -10.5 60.5t-27.5 51.5q-34 -16 -66.5 -23t-61.5 -7h-10q-73 0 -104.5 26t-31.5 62v2.5v2.5
q2 30 27 54.5t88 24.5h10q31 0 65.5 -7t87.5 -29q9 11 15.5 22.5t10.5 23.5q5 15 7 29.5t2 26.5q0 61 -35.5 93t-78.5 42q-9 2 -18.5 3.5t-18.5 1.5q-12 0 -24.5 -2t-25.5 -5q-46 -10 -86.5 -38.5t-58.5 -77.5h-10h-36v0zM428 369q-14 9 -30 16t-33 11q-14 4 -28 6.5
t-26 2.5q-27 -1 -38.5 -8t-14.5 -15q0 -2 -0.5 -4t-0.5 -4q0 -13 14.5 -23.5t60.5 -11.5q31 1 50.5 7t32.5 14q4 2 7 4.5t6 4.5v0z" />
    <glyph glyph-name="g" unicode="&#x417;" horiz-adv-x="727" 
d="M115 541l11 166h10h37q1 -2 1.5 -3.5t2.5 -3.5q3 -5 10 -10t20 -6q5 0 9.5 1t9.5 2q7 2 15 4.5t18 5.5q8 2 18 4t23 4q8 1 17 2l18 2q12 1 23 1.5t20 0.5h10q20 0 42.5 -2.5t45.5 -7.5q64 -16 118.5 -58t60.5 -120v-6v-5q0 -49 -26.5 -85t-58.5 -56v-5q29 -17 48.5 -35
t32.5 -36q18 -26 24.5 -51t6.5 -47q0 -83 -54.5 -129t-119.5 -65q-26 -6 -52 -9.5t-48 -3.5l-10 -1q-54 1 -95 13.5t-75 28.5q-30 14 -55 26.5t-50 14.5q-3 1 -5.5 1h-5.5h10h-4h-4q-15 0 -32.5 -1t-35.5 -7q-3 -1 -6 -2.5t-6 -2.5h-10l-24 40q5 5 10 10.5t11 11.5
q23 21 52.5 40t60.5 26q7 1 13.5 2t12.5 1h10q32 0 57 -17.5t45 -38.5q6 -6 11 -12t10 -11q4 -4 7.5 -8.5t7.5 -8.5q17 -19 38 -35.5t51 -17.5q42 2 75.5 36.5t33.5 125.5q0 34 -10.5 60.5t-27.5 51.5q-34 -16 -66.5 -23t-61.5 -7h-10q-73 0 -104.5 26t-31.5 62v2.5v2.5
q2 30 27 54.5t88 24.5h10q31 0 65.5 -7t87.5 -29q9 11 15.5 22.5t10.5 23.5q5 15 7 29.5t2 26.5q0 61 -35.5 93t-78.5 42q-9 2 -18.5 3.5t-18.5 1.5q-12 0 -24.5 -2t-25.5 -5q-46 -10 -86.5 -38.5t-58.5 -77.5h-10h-36v0zM428 369q-14 9 -30 16t-33 11q-14 4 -28 6.5
t-26 2.5q-27 -1 -38.5 -8t-14.5 -15q0 -2 -0.5 -4t-0.5 -4q0 -13 14.5 -23.5t60.5 -11.5q31 1 50.5 7t32.5 14q4 2 7 4.5t6 4.5v0z" />
    <glyph glyph-name="h" unicode="&#xc8;" horiz-adv-x="808" 
d="M50 700h249v-36q-1 -1 -2.5 -1t-2.5 -1v0h-1t-2.5 -0.5l-4.5 -1.5t-7 -2.5t-8 -4.5q-8 -5 -15 -16t-7 -30v-369l310 323v46q0 20 -11 36.5t-39 20.5v36h10h249v-36q-26 -4 -36 -16.5t-12 -27.5q-1 -3 -1 -6.5v-6.5v-514v-6.5t1 -6.5q2 -15 12 -27.5t36 -16.5v-36h-10
h-249v36q21 3 31 12.5t15 19.5q2 7 3 13.5t1 11.5v376l-310 -324v-52q0 -20 11 -36t39 -21v-36h-10h-249v36q26 4 36 16.5t12 27.5q1 3 1 6.5v6.5v514v6.5t-1 6.5q-2 15 -12 27.5t-36 16.5v36h10v0z" />
    <glyph glyph-name="h" unicode="&#x418;" horiz-adv-x="808" 
d="M50 700h249v-36q-1 -1 -2.5 -1t-2.5 -1v0h-1t-2.5 -0.5l-4.5 -1.5t-7 -2.5t-8 -4.5q-8 -5 -15 -16t-7 -30v-369l310 323v46q0 20 -11 36.5t-39 20.5v36h10h249v-36q-26 -4 -36 -16.5t-12 -27.5q-1 -3 -1 -6.5v-6.5v-514v-6.5t1 -6.5q2 -15 12 -27.5t36 -16.5v-36h-10
h-249v36q21 3 31 12.5t15 19.5q2 7 3 13.5t1 11.5v376l-310 -324v-52q0 -20 11 -36t39 -21v-36h-10h-249v36q26 4 36 16.5t12 27.5q1 3 1 6.5v6.5v514v6.5t-1 6.5q-2 15 -12 27.5t-36 16.5v36h10v0z" />
    <glyph glyph-name="i" unicode="&#xc9;" horiz-adv-x="808" 
d="M50 700h249v-36q-1 -1 -2.5 -1t-2.5 -1v0h-1t-2.5 -0.5l-4.5 -1.5t-7 -2.5t-8 -4.5q-8 -5 -15 -16t-7 -30v-369l310 323v46q0 20 -11 36.5t-39 20.5v36h10h249v-36q-26 -4 -36 -16.5t-12 -27.5q-1 -3 -1 -6.5v-6.5v-514v-6.5t1 -6.5q2 -15 12 -27.5t36 -16.5v-36h-10
h-249v36q21 3 31 12.5t15 19.5q2 7 3 13.5t1 11.5v376l-310 -324v-52q0 -20 11 -36t39 -21v-36h-10h-249v36q26 4 36 16.5t12 27.5q1 3 1 6.5v6.5v514v6.5t-1 6.5q-2 15 -12 27.5t-36 16.5v36h10v0zM406 851q12 0 27 1.5t30 5.5q36 7 66.5 22.5t30.5 39.5q0 6 -2 11t-10 6
q-5 -1 -10 -3t-10 -5q-1 0 -2 -0.5l-1 -0.5q-6 -3 -12 -5t-12 -2h-10h-4t-5 1q-12 2 -22.5 10.5t-10.5 23.5q0 17 14.5 30.5t43.5 13.5h10q43 0 67.5 -23t24.5 -56q0 -60 -60 -104t-132 -44h-10h-6h-2h-2h-2h-2q-73 0 -133.5 44.5t-60.5 103.5q0 33 24.5 56t67.5 23h10
q25 0 37.5 -9t17.5 -20l2 -8t1 -7q0 -13 -9 -21.5t-20 -11.5q-3 -1 -7 -1.5t-7 -0.5h-10q-5 0 -11.5 2.5t-13.5 5.5q-1 1 -2 1.5t-2 0.5q-4 2 -8.5 3.5t-8.5 2.5q-6 -2 -8.5 -5t-3.5 -7q-1 -1 -1 -2.5v-2.5q0 -6 5 -13.5t14 -15.5q18 -14 53 -26.5t87 -13.5v0z" />
    <glyph glyph-name="i" unicode="&#x419;" horiz-adv-x="808" 
d="M50 700h249v-36q-1 -1 -2.5 -1t-2.5 -1v0h-1t-2.5 -0.5l-4.5 -1.5t-7 -2.5t-8 -4.5q-8 -5 -15 -16t-7 -30v-369l310 323v46q0 20 -11 36.5t-39 20.5v36h10h249v-36q-26 -4 -36 -16.5t-12 -27.5q-1 -3 -1 -6.5v-6.5v-514v-6.5t1 -6.5q2 -15 12 -27.5t36 -16.5v-36h-10
h-249v36q21 3 31 12.5t15 19.5q2 7 3 13.5t1 11.5v376l-310 -324v-52q0 -20 11 -36t39 -21v-36h-10h-249v36q26 4 36 16.5t12 27.5q1 3 1 6.5v6.5v514v6.5t-1 6.5q-2 15 -12 27.5t-36 16.5v36h10v0zM406 851q12 0 27 1.5t30 5.5q36 7 66.5 22.5t30.5 39.5q0 6 -2 11t-10 6
q-5 -1 -10 -3t-10 -5q-1 0 -2 -0.5l-1 -0.5q-6 -3 -12 -5t-12 -2h-10h-4t-5 1q-12 2 -22.5 10.5t-10.5 23.5q0 17 14.5 30.5t43.5 13.5h10q43 0 67.5 -23t24.5 -56q0 -60 -60 -104t-132 -44h-10h-6h-2h-2h-2h-2q-73 0 -133.5 44.5t-60.5 103.5q0 33 24.5 56t67.5 23h10
q25 0 37.5 -9t17.5 -20l2 -8t1 -7q0 -13 -9 -21.5t-20 -11.5q-3 -1 -7 -1.5t-7 -0.5h-10q-5 0 -11.5 2.5t-13.5 5.5q-1 1 -2 1.5t-2 0.5q-4 2 -8.5 3.5t-8.5 2.5q-6 -2 -8.5 -5t-3.5 -7q-1 -1 -1 -2.5v-2.5q0 -6 5 -13.5t14 -15.5q18 -14 53 -26.5t87 -13.5v0z" />
    <glyph glyph-name="j" unicode="&#xca;" horiz-adv-x="742" 
d="M50 700h248v-36q-28 -5 -38 -19.5t-11 -30.5v-3.5v-3.5v-179q62 1 93.5 33.5t49.5 71.5q4 8 8 17t7 17q3 7 5.5 13.5t5.5 13.5q18 44 51.5 80.5t103.5 36.5h10q20 0 36 -2.5t29 -6.5v-161h-10h-36q-4 14 -14.5 23.5t-24.5 10.5q-21 -3 -36.5 -19t-30.5 -35q-1 -2 -2 -3
l-2 -2q-1 -2 -2.5 -4t-3.5 -4q-3 -4 -6 -8.5t-7 -8.5q-21 -27 -45 -49.5t-65 -36.5v-7q99 -12 143 -50t62 -82q7 -18 11.5 -35t8.5 -33q1 -3 1.5 -6.5t1.5 -7.5q14 -55 34 -96.5t77 -45.5v-39q-14 -5 -33 -9t-46 -4l-10 -1q-78 1 -117 32.5t-56 69.5q-9 20 -13.5 39t-7.5 33
q-3 16 -6.5 33t-8.5 34q-15 55 -49 100.5t-105 44.5v0v0h-1v0v-282v-3.5v-3.5q1 -16 11 -30.5t38 -19.5v-36h-10h-248v36q26 4 36 16.5t12 27.5q1 3 1 6.5v6.5v514v6.5t-1 6.5q-2 15 -12 27.5t-36 16.5v36h10v0z" />
    <glyph glyph-name="j" unicode="&#x41a;" horiz-adv-x="742" 
d="M50 700h248v-36q-28 -5 -38 -19.5t-11 -30.5v-3.5v-3.5v-179q62 1 93.5 33.5t49.5 71.5q4 8 8 17t7 17q3 7 5.5 13.5t5.5 13.5q18 44 51.5 80.5t103.5 36.5h10q20 0 36 -2.5t29 -6.5v-161h-10h-36q-4 14 -14.5 23.5t-24.5 10.5q-21 -3 -36.5 -19t-30.5 -35q-1 -2 -2 -3
l-2 -2q-1 -2 -2.5 -4t-3.5 -4q-3 -4 -6 -8.5t-7 -8.5q-21 -27 -45 -49.5t-65 -36.5v-7q99 -12 143 -50t62 -82q7 -18 11.5 -35t8.5 -33q1 -3 1.5 -6.5t1.5 -7.5q14 -55 34 -96.5t77 -45.5v-39q-14 -5 -33 -9t-46 -4l-10 -1q-78 1 -117 32.5t-56 69.5q-9 20 -13.5 39t-7.5 33
q-3 16 -6.5 33t-8.5 34q-15 55 -49 100.5t-105 44.5v0v0h-1v0v-282v-3.5v-3.5q1 -16 11 -30.5t38 -19.5v-36h-10h-248v36q26 4 36 16.5t12 27.5q1 3 1 6.5v6.5v514v6.5t-1 6.5q-2 15 -12 27.5t-36 16.5v36h10v0z" />
    <glyph glyph-name="k" unicode="&#xcb;" horiz-adv-x="743" 
d="M233 700h236l201 -587q1 -4 2.5 -8t3.5 -8q8 -24 19.5 -40t37.5 -21v-36h-10h-186l-179 524h-2q-7 -36 -17.5 -80t-22.5 -89q-6 -27 -13.5 -53t-14.5 -50q-9 -32 -18.5 -60t-17.5 -49q-9 -22 -18 -40.5t-18 -33.5q-26 -45 -54 -62t-66 -17l-10 -1q-40 1 -61.5 21
t-24.5 44v4v4q0 4 0.5 7.5t1.5 7.5q4 18 20 34t43 16h10q8 0 15.5 -2t14.5 -5q3 -1 5.5 -2t4.5 -3q7 -3 13.5 -5.5t12.5 -3.5q8 1 14.5 6t13.5 13q14 19 29.5 59t36.5 108q4 15 13.5 45.5t19.5 68.5q3 12 6.5 24.5t6.5 25.5q9 39 16 76.5t7 62.5q0 5 -1 13.5t-4 17.5
q-5 14 -20 26t-46 12h-2.5h-2.5h-2.5h-2.5v36h10v0z" />
    <glyph glyph-name="k" unicode="&#x41b;" horiz-adv-x="743" 
d="M233 700h236l201 -587q1 -4 2.5 -8t3.5 -8q8 -24 19.5 -40t37.5 -21v-36h-10h-186l-179 524h-2q-7 -36 -17.5 -80t-22.5 -89q-6 -27 -13.5 -53t-14.5 -50q-9 -32 -18.5 -60t-17.5 -49q-9 -22 -18 -40.5t-18 -33.5q-26 -45 -54 -62t-66 -17l-10 -1q-40 1 -61.5 21
t-24.5 44v4v4q0 4 0.5 7.5t1.5 7.5q4 18 20 34t43 16h10q8 0 15.5 -2t14.5 -5q3 -1 5.5 -2t4.5 -3q7 -3 13.5 -5.5t12.5 -3.5q8 1 14.5 6t13.5 13q14 19 29.5 59t36.5 108q4 15 13.5 45.5t19.5 68.5q3 12 6.5 24.5t6.5 25.5q9 39 16 76.5t7 62.5q0 5 -1 13.5t-4 17.5
q-5 14 -20 26t-46 12h-2.5h-2.5h-2.5h-2.5v36h10v0z" />
    <glyph glyph-name="l" unicode="&#xcc;" horiz-adv-x="927" 
d="M50 700h241l179 -491l179 491h10h228v-36q-19 -3 -29 -11.5t-15 -17.5q-4 -9 -4.5 -16.5t-0.5 -11.5v-515q0 -21 8.5 -32t18.5 -17q6 -3 12 -4.5l10 -2.5v-36h-10h-249v36q21 3 31 11.5t15 18.5q3 8 3.5 15t0.5 11v504l-217 -596h-10h-70l-220 604v-502q0 -32 12 -46
t27 -18q4 -1 8.5 -1.5t8.5 -0.5v-36h-10h-167v36q24 0 35.5 11t15.5 24q4 10 4.5 19t0.5 13v479q0 39 -14.5 60.5t-41.5 21.5v36h10v0z" />
    <glyph glyph-name="l" unicode="&#x41c;" horiz-adv-x="927" 
d="M50 700h241l179 -491l179 491h10h228v-36q-19 -3 -29 -11.5t-15 -17.5q-4 -9 -4.5 -16.5t-0.5 -11.5v-515q0 -21 8.5 -32t18.5 -17q6 -3 12 -4.5l10 -2.5v-36h-10h-249v36q21 3 31 11.5t15 18.5q3 8 3.5 15t0.5 11v504l-217 -596h-10h-70l-220 604v-502q0 -32 12 -46
t27 -18q4 -1 8.5 -1.5t8.5 -0.5v-36h-10h-167v36q24 0 35.5 11t15.5 24q4 10 4.5 19t0.5 13v479q0 39 -14.5 60.5t-41.5 21.5v36h10v0z" />
    <glyph glyph-name="m" unicode="&#xcd;" horiz-adv-x="837" 
d="M299 700v-36q-4 0 -9.5 -1.5t-10.5 -4.5q-11 -5 -20.5 -17t-9.5 -34v-220h338v220v6.5t-1 6.5q-2 15 -12 27.5t-36 16.5v36h10h249v-36q-25 -4 -37.5 -17.5t-12.5 -39.5l1 -514q0 -24 8.5 -35t30.5 -18q2 -1 4.5 -2t5.5 -2v-36h-10h-249v36q3 1 5.5 2t4.5 2q22 7 30.5 18
t8.5 35v241h-338v-241q0 -22 9.5 -35.5t40.5 -21.5v-36h-10h-249v36q29 10 39 22t10 35v514q0 22 -9 33.5t-20 16.5q-5 3 -10.5 4.5t-9.5 2.5v36h10h249v0z" />
    <glyph glyph-name="m" unicode="&#x41d;" horiz-adv-x="837" 
d="M299 700v-36q-4 0 -9.5 -1.5t-10.5 -4.5q-11 -5 -20.5 -17t-9.5 -34v-220h338v220v6.5t-1 6.5q-2 15 -12 27.5t-36 16.5v36h10h249v-36q-25 -4 -37.5 -17.5t-12.5 -39.5l1 -514q0 -24 8.5 -35t30.5 -18q2 -1 4.5 -2t5.5 -2v-36h-10h-249v36q3 1 5.5 2t4.5 2q22 7 30.5 18
t8.5 35v241h-338v-241q0 -22 9.5 -35.5t40.5 -21.5v-36h-10h-249v36q29 10 39 22t10 35v514q0 22 -9 33.5t-20 16.5q-5 3 -10.5 4.5t-9.5 2.5v36h10h249v0z" />
    <glyph glyph-name="n" unicode="&#xce;" horiz-adv-x="806" 
d="M408 711q165 0 258.5 -112.5t94.5 -247.5v-1.5v-1.5q0 -163 -107 -260.5t-246 -97.5l-10 -1q-139 1 -246 98.5t-107 260.5v1.5v1.5q1 135 94.5 247.5t258.5 112.5h10v0zM403 658q-76 -1 -129 -56t-53 -254q0 -175 45.5 -239.5t136.5 -66.5q92 2 137 66.5t45 239.5
q0 198 -53 253.5t-129 56.5v0z" />
    <glyph glyph-name="n" unicode="&#x41e;" horiz-adv-x="806" 
d="M408 711q165 0 258.5 -112.5t94.5 -247.5v-1.5v-1.5q0 -163 -107 -260.5t-246 -97.5l-10 -1q-139 1 -246 98.5t-107 260.5v1.5v1.5q1 135 94.5 247.5t258.5 112.5h10v0zM403 658q-76 -1 -129 -56t-53 -254q0 -175 45.5 -239.5t136.5 -66.5q92 2 137 66.5t45 239.5
q0 198 -53 253.5t-129 56.5v0z" />
    <glyph glyph-name="o" unicode="&#xcf;" horiz-adv-x="785" 
d="M745 700v-36q-26 -4 -36 -16.5t-12 -27.5q-1 -3 -1 -6.5v-6.5v-514v-6.5t1 -6.5q2 -15 12 -27.5t36 -16.5v-36h-10h-249v36q28 5 39 21t11 36v554h-286v-554q0 -22 9 -33.5t20 -16.5q5 -3 10.5 -4.5t9.5 -2.5v-36h-10h-249v36q4 0 9.5 1.5t10.5 4.5q11 5 20.5 17t9.5 34
v514q0 22 -9.5 34t-20.5 17q-5 3 -10.5 4.5t-9.5 1.5v36h10h695v0z" />
    <glyph glyph-name="o" unicode="&#x41f;" horiz-adv-x="785" 
d="M745 700v-36q-26 -4 -36 -16.5t-12 -27.5q-1 -3 -1 -6.5v-6.5v-514v-6.5t1 -6.5q2 -15 12 -27.5t36 -16.5v-36h-10h-249v36q28 5 39 21t11 36v554h-286v-554q0 -22 9 -33.5t20 -16.5q5 -3 10.5 -4.5t9.5 -2.5v-36h-10h-249v36q4 0 9.5 1.5t10.5 4.5q11 5 20.5 17t9.5 34
v514q0 22 -9.5 34t-20.5 17q-5 3 -10.5 4.5t-9.5 1.5v36h10h695v0z" />
    <glyph glyph-name="p" unicode="&#xd0;" horiz-adv-x="663" 
d="M40 0v36q3 0 9.5 1.5t14.5 6.5q9 5 17 17t8 33v391q0 117 71.5 169t156.5 56q5 1 9.5 1h9.5h10q135 0 203.5 -71.5t68.5 -161.5q0 -20 -3 -42.5t-10 -45.5q-17 -58 -64 -106.5t-140 -48.5h-10q-25 0 -63 6.5t-79 31.5v-179q0 -21 14.5 -38t38.5 -20v-36h-10h-252v0z
M249 556v-170q0 -34 29.5 -58.5t70.5 -26.5q61 2 77 52t16 126t-13.5 126.5t-78.5 52.5q-3 0 -6 -0.5t-6 -0.5q-34 -5 -61.5 -29t-27.5 -72v0z" />
    <glyph glyph-name="p" unicode="&#x420;" horiz-adv-x="663" 
d="M40 0v36q3 0 9.5 1.5t14.5 6.5q9 5 17 17t8 33v391q0 117 71.5 169t156.5 56q5 1 9.5 1h9.5h10q135 0 203.5 -71.5t68.5 -161.5q0 -20 -3 -42.5t-10 -45.5q-17 -58 -64 -106.5t-140 -48.5h-10q-25 0 -63 6.5t-79 31.5v-179q0 -21 14.5 -38t38.5 -20v-36h-10h-252v0z
M249 556v-170q0 -34 29.5 -58.5t70.5 -26.5q61 2 77 52t16 126t-13.5 126.5t-78.5 52.5q-3 0 -6 -0.5t-6 -0.5q-34 -5 -61.5 -29t-27.5 -72v0z" />
    <glyph glyph-name="q" unicode="&#xd1;" horiz-adv-x="726" 
d="M650 148l31 -39q-82 -70 -148 -94.5t-128 -24.5l-10 -1q-144 1 -247 99t-103 266q0 171 102 263t224 94h3.5h2.5h10q29 0 53 -3t41 -7q11 -3 19 -5.5t12 -3.5q13 -4 24 -6t21 -3q4 1 8 3t8 5q1 0 2 0.5t2 1.5t2 1.5t2 1.5l2 2l2 2h10h36v-165h-10h-36q-19 51 -64.5 82
t-96.5 39q-7 1 -13.5 1.5t-12.5 0.5q-105 -3 -138 -81.5t-38 -171.5q0 -16 -0.5 -32t-0.5 -31t0.5 -31t1.5 -32q7 -81 48.5 -148.5t158.5 -69.5q37 1 72 11t69 29q17 10 34.5 21.5t34.5 25.5h10v0z" />
    <glyph glyph-name="q" unicode="&#x421;" horiz-adv-x="726" 
d="M650 148l31 -39q-82 -70 -148 -94.5t-128 -24.5l-10 -1q-144 1 -247 99t-103 266q0 171 102 263t224 94h3.5h2.5h10q29 0 53 -3t41 -7q11 -3 19 -5.5t12 -3.5q13 -4 24 -6t21 -3q4 1 8 3t8 5q1 0 2 0.5t2 1.5t2 1.5t2 1.5l2 2l2 2h10h36v-165h-10h-36q-19 51 -64.5 82
t-96.5 39q-7 1 -13.5 1.5t-12.5 0.5q-105 -3 -138 -81.5t-38 -171.5q0 -16 -0.5 -32t-0.5 -31t0.5 -31t1.5 -32q7 -81 48.5 -148.5t158.5 -69.5q37 1 72 11t69 29q17 10 34.5 21.5t34.5 25.5h10v0z" />
    <glyph glyph-name="Scaron" unicode="&#xd2;" horiz-adv-x="694" 
d="M20 718h40q14 -7 29.5 -10.5t34.5 -3.5h446q10 0 18.5 1t17.5 2q7 2 14 4.5t15 6.5h10h39v-180h-10h-36q-14 33 -32 54t-37 33q-25 17 -48 21t-38 4l-56 1v-558q0 -22 9.5 -35.5t40.5 -21.5v-36h-10h-249v36q3 1 5.5 2t4.5 2q22 7 30.5 18t8.5 35v558l-46 -1
q-15 0 -32.5 -2t-35.5 -8q-28 -9 -54.5 -32t-42.5 -70h-10h-36v180h10v0z" />
    <glyph glyph-name="Scaron" unicode="&#x422;" horiz-adv-x="694" 
d="M20 718h40q14 -7 29.5 -10.5t34.5 -3.5h446q10 0 18.5 1t17.5 2q7 2 14 4.5t15 6.5h10h39v-180h-10h-36q-14 33 -32 54t-37 33q-25 17 -48 21t-38 4l-56 1v-558q0 -22 9.5 -35.5t40.5 -21.5v-36h-10h-249v36q3 1 5.5 2t4.5 2q22 7 30.5 18t8.5 35v558l-46 -1
q-15 0 -32.5 -2t-35.5 -8q-28 -9 -54.5 -32t-42.5 -70h-10h-36v180h10v0z" />
    <glyph glyph-name="r" unicode="&#xd3;" horiz-adv-x="694" 
d="M341 700v-35h-2q-3 0 -6 -0.5t-7 -0.5q-12 -2 -23 -10t-10 -25q0 -7 3.5 -17t10.5 -22l149 -246l98 231q1 2 2.5 5.5t2.5 7.5q1 2 1.5 4.5t1.5 5.5q2 6 3 11.5t1 9.5q0 20 -16 29.5t-36 12.5q-4 1 -8 1.5t-8 1.5v36h10h186v-36q-29 -11 -41 -28t-22 -38q-1 -3 -2 -5.5
t-2 -5.5l-175 -413q-32 -76 -83 -130t-140 -54l-10 -1q-52 1 -80 16.5t-40 34.5q-9 14 -11.5 26t-2.5 19v6t1 6q3 27 20.5 49t55.5 22h10q29 0 44.5 -11t23.5 -25q5 -8 7 -16t3 -13q0 -2 1 -5t1 -5q3 -10 9.5 -18t22.5 -9q8 1 26.5 9t38.5 36q7 11 14.5 24.5t14.5 31.5
l-268 443q-11 19 -24.5 30t-27.5 18q-4 2 -8.5 3.5t-9.5 2.5v36h10h291v0z" />
    <glyph glyph-name="r" unicode="&#x423;" horiz-adv-x="694" 
d="M341 700v-35h-2q-3 0 -6 -0.5t-7 -0.5q-12 -2 -23 -10t-10 -25q0 -7 3.5 -17t10.5 -22l149 -246l98 231q1 2 2.5 5.5t2.5 7.5q1 2 1.5 4.5t1.5 5.5q2 6 3 11.5t1 9.5q0 20 -16 29.5t-36 12.5q-4 1 -8 1.5t-8 1.5v36h10h186v-36q-29 -11 -41 -28t-22 -38q-1 -3 -2 -5.5
t-2 -5.5l-175 -413q-32 -76 -83 -130t-140 -54l-10 -1q-52 1 -80 16.5t-40 34.5q-9 14 -11.5 26t-2.5 19v6t1 6q3 27 20.5 49t55.5 22h10q29 0 44.5 -11t23.5 -25q5 -8 7 -16t3 -13q0 -2 1 -5t1 -5q3 -10 9.5 -18t22.5 -9q8 1 26.5 9t38.5 36q7 11 14.5 24.5t14.5 31.5
l-268 443q-11 19 -24.5 30t-27.5 18q-4 2 -8.5 3.5t-9.5 2.5v36h10h291v0z" />
    <glyph glyph-name="t" unicode="&#xd4;" horiz-adv-x="938" 
d="M350 700h248v-36q-25 -3 -35 -15t-12 -26q-2 -6 -2 -12v-12v-0.5v-0.5v-43q8 10 16.5 18t16.5 14q23 17 45.5 22.5t40.5 5.5h10q91 0 153 -64.5t62 -185.5q0 -115 -59.5 -176.5t-144.5 -61.5h-10q-12 0 -34 3t-46 15q-13 7 -26 18t-24 26v-87v-0.5v-0.5v-12t2 -12
q2 -14 12 -25.5t35 -15.5v-36h-10h-248v36q25 4 35 15.5t12 25.5q2 6 2 12v12v0.5v0.5v87q-11 -15 -24 -26t-26 -18q-24 -12 -46 -15t-34 -3h-10q-85 0 -144.5 61.5t-59.5 176.5q0 121 62 185.5t153 64.5h10q18 0 40.5 -5.5t45.5 -22.5q8 -6 16.5 -14t16.5 -18v43v0.5v0.5
v12t-2 12q-2 14 -12 26t-35 15v36h10v0zM389 325v85q0 60 -16 88.5t-36 39.5q-9 5 -18.5 7.5t-16.5 2.5q-47 -3 -62.5 -43.5t-17.5 -88.5q-1 -9 -1 -18.5v-18.5v-11.5v-11.5q1 -59 15 -108t66 -52q38 2 62.5 37t24.5 92v0zM549 325q0 -57 24.5 -92t61.5 -37q53 3 67 52
t15 108v11.5v11.5v18.5t-1 18.5q-2 48 -17.5 88.5t-62.5 43.5q-7 0 -16.5 -2.5t-18.5 -7.5q-20 -11 -36 -39.5t-16 -88.5v-85v0z" />
    <glyph glyph-name="t" unicode="&#x424;" horiz-adv-x="938" 
d="M350 700h248v-36q-25 -3 -35 -15t-12 -26q-2 -6 -2 -12v-12v-0.5v-0.5v-43q8 10 16.5 18t16.5 14q23 17 45.5 22.5t40.5 5.5h10q91 0 153 -64.5t62 -185.5q0 -115 -59.5 -176.5t-144.5 -61.5h-10q-12 0 -34 3t-46 15q-13 7 -26 18t-24 26v-87v-0.5v-0.5v-12t2 -12
q2 -14 12 -25.5t35 -15.5v-36h-10h-248v36q25 4 35 15.5t12 25.5q2 6 2 12v12v0.5v0.5v87q-11 -15 -24 -26t-26 -18q-24 -12 -46 -15t-34 -3h-10q-85 0 -144.5 61.5t-59.5 176.5q0 121 62 185.5t153 64.5h10q18 0 40.5 -5.5t45.5 -22.5q8 -6 16.5 -14t16.5 -18v43v0.5v0.5
v12t-2 12q-2 14 -12 26t-35 15v36h10v0zM389 325v85q0 60 -16 88.5t-36 39.5q-9 5 -18.5 7.5t-16.5 2.5q-47 -3 -62.5 -43.5t-17.5 -88.5q-1 -9 -1 -18.5v-18.5v-11.5v-11.5q1 -59 15 -108t66 -52q38 2 62.5 37t24.5 92v0zM549 325q0 -57 24.5 -92t61.5 -37q53 3 67 52
t15 108v11.5v11.5v18.5t-1 18.5q-2 48 -17.5 88.5t-62.5 43.5q-7 0 -16.5 -2.5t-18.5 -7.5q-20 -11 -36 -39.5t-16 -88.5v-85v0z" />
    <glyph glyph-name="u" unicode="&#xd5;" horiz-adv-x="852" 
d="M760 700v-36q-10 -1 -40.5 -11.5t-77.5 -65.5l-156 -183l267 -304q1 -1 2 -2.5t2 -2.5q16 -18 33 -33t42 -26v-36h-10h-303v36h2q19 0 30.5 9.5t11.5 20.5q0 2 -0.5 3.5t-0.5 2.5q-1 3 -2.5 6t-3.5 6q-2 2 -3.5 4.5t-2.5 3.5l-178 206l-166 -191q-1 -1 -2 -2.5t-2 -2.5
q-7 -7 -12.5 -16t-5.5 -19v-1.5v-1.5q2 -10 14.5 -19t35.5 -9h2v-36h-10h-206v36q20 4 36 12.5t28 17.5q9 7 16 14t11 12l219 253l-228 262q-28 32 -44.5 43t-27.5 14v36h10h301v-36q-3 0 -6.5 -0.5t-7.5 -1.5q-10 -3 -18.5 -8.5t-8.5 -14.5q0 -2 0.5 -4.5t0.5 -5.5
q2 -6 5.5 -12.5t7.5 -11.5q1 -1 2 -2.5t2 -2.5l129 -148l125 145q16 18 20.5 27.5t4.5 15.5v2t-1 2q-1 8 -11.5 14t-33.5 6v36h10h199v0z" />
    <glyph glyph-name="u" unicode="&#x425;" horiz-adv-x="852" 
d="M760 700v-36q-10 -1 -40.5 -11.5t-77.5 -65.5l-156 -183l267 -304q1 -1 2 -2.5t2 -2.5q16 -18 33 -33t42 -26v-36h-10h-303v36h2q19 0 30.5 9.5t11.5 20.5q0 2 -0.5 3.5t-0.5 2.5q-1 3 -2.5 6t-3.5 6q-2 2 -3.5 4.5t-2.5 3.5l-178 206l-166 -191q-1 -1 -2 -2.5t-2 -2.5
q-7 -7 -12.5 -16t-5.5 -19v-1.5v-1.5q2 -10 14.5 -19t35.5 -9h2v-36h-10h-206v36q20 4 36 12.5t28 17.5q9 7 16 14t11 12l219 253l-228 262q-28 32 -44.5 43t-27.5 14v36h10h301v-36q-3 0 -6.5 -0.5t-7.5 -1.5q-10 -3 -18.5 -8.5t-8.5 -14.5q0 -2 0.5 -4.5t0.5 -5.5
q2 -6 5.5 -12.5t7.5 -11.5q1 -1 2 -2.5t2 -2.5l129 -148l125 145q16 18 20.5 27.5t4.5 15.5v2t-1 2q-1 8 -11.5 14t-33.5 6v36h10h199v0z" />
    <glyph glyph-name="zero" unicode="&#xd6;" horiz-adv-x="785" 
d="M50 700h249v-36q-4 -1 -9.5 -2.5t-10.5 -4.5q-11 -5 -20 -16.5t-9 -33.5v-554h286v554q0 20 -11 36.5t-39 20.5v36h10h249v-36q-26 -4 -36 -16.5t-12 -27.5q-1 -3 -1 -6.5v-6.5v-505q0 -20 4 -30.5t13 -19.5q2 -3 5 -5.5t7 -5.5q5 -4 10.5 -9t10.5 -11q13 -14 24 -33
t11 -46v-6.5t-1 -6.5q-6 -51 -54.5 -93.5t-127.5 -42.5l-10 -1q-19 1 -41 4t-44 8q-25 6 -49 13t-44 15q-79 31 -113.5 41t-49.5 12q-10 -1 -16 -5t-8 -8q0 -1 -0.5 -2.5t-0.5 -2.5q0 -6 2.5 -8.5t5.5 -2.5h2h2l5 -1q3 1 7.5 0.5t9.5 -1.5q7 -2 13 -8t6 -19v-1.5v-1.5
q-1 -12 -11.5 -22t-31.5 -10l-10 -1q-22 1 -36 16.5t-14 40.5q0 43 46.5 71.5t124.5 28.5l10 -1q38 1 71.5 -6.5t60.5 -16.5q12 -4 22.5 -8t19.5 -7q48 -17 76.5 -26t50.5 -10q24 1 44 17t20 45q0 27 -21 46t-56 19h-601v36q4 0 9.5 1.5t10.5 4.5q11 5 20.5 17t9.5 34v514
q0 29 -15.5 42.5t-34.5 14.5v36h10v0z" />
    <glyph glyph-name="zero" unicode="&#x426;" horiz-adv-x="785" 
d="M50 700h249v-36q-4 -1 -9.5 -2.5t-10.5 -4.5q-11 -5 -20 -16.5t-9 -33.5v-554h286v554q0 20 -11 36.5t-39 20.5v36h10h249v-36q-26 -4 -36 -16.5t-12 -27.5q-1 -3 -1 -6.5v-6.5v-505q0 -20 4 -30.5t13 -19.5q2 -3 5 -5.5t7 -5.5q5 -4 10.5 -9t10.5 -11q13 -14 24 -33
t11 -46v-6.5t-1 -6.5q-6 -51 -54.5 -93.5t-127.5 -42.5l-10 -1q-19 1 -41 4t-44 8q-25 6 -49 13t-44 15q-79 31 -113.5 41t-49.5 12q-10 -1 -16 -5t-8 -8q0 -1 -0.5 -2.5t-0.5 -2.5q0 -6 2.5 -8.5t5.5 -2.5h2h2l5 -1q3 1 7.5 0.5t9.5 -1.5q7 -2 13 -8t6 -19v-1.5v-1.5
q-1 -12 -11.5 -22t-31.5 -10l-10 -1q-22 1 -36 16.5t-14 40.5q0 43 46.5 71.5t124.5 28.5l10 -1q38 1 71.5 -6.5t60.5 -16.5q12 -4 22.5 -8t19.5 -7q48 -17 76.5 -26t50.5 -10q24 1 44 17t20 45q0 27 -21 46t-56 19h-601v36q4 0 9.5 1.5t10.5 4.5q11 5 20.5 17t9.5 34v514
q0 29 -15.5 42.5t-34.5 14.5v36h10v0z" />
    <glyph glyph-name="parenright" unicode="&#xd7;" horiz-adv-x="702" 
d="M270 700v-36q-21 -3 -32 -12t-15 -19q-3 -8 -4 -14.5t-1 -11.5v-165q0 -45 15.5 -81t105.5 -38q7 0 14 0.5t15 1.5q21 2 42.5 6t41.5 11v265q0 24 -8.5 35t-30.5 18q-3 1 -5.5 2t-5.5 2v36h10h250v-36q-3 -1 -5.5 -2t-5.5 -2q-22 -7 -30.5 -18t-8.5 -35v-514q0 -3 1 -11
t5 -17q5 -10 15 -18.5t29 -10.5v-36h-10h-250v36q29 5 39.5 20t10.5 37v193q-22 -6 -46.5 -12t-49.5 -10t-49.5 -6.5t-46.5 -2.5h-10q-105 0 -148.5 40.5t-43.5 146.5v165q0 25 -12 38t-27 17q-2 1 -4.5 1.5t-4.5 0.5v36h10h250v0z" />
    <glyph glyph-name="parenright" unicode="&#x427;" horiz-adv-x="702" 
d="M270 700v-36q-21 -3 -32 -12t-15 -19q-3 -8 -4 -14.5t-1 -11.5v-165q0 -45 15.5 -81t105.5 -38q7 0 14 0.5t15 1.5q21 2 42.5 6t41.5 11v265q0 24 -8.5 35t-30.5 18q-3 1 -5.5 2t-5.5 2v36h10h250v-36q-3 -1 -5.5 -2t-5.5 -2q-22 -7 -30.5 -18t-8.5 -35v-514q0 -3 1 -11
t5 -17q5 -10 15 -18.5t29 -10.5v-36h-10h-250v36q29 5 39.5 20t10.5 37v193q-22 -6 -46.5 -12t-49.5 -10t-49.5 -6.5t-46.5 -2.5h-10q-105 0 -148.5 40.5t-43.5 146.5v165q0 25 -12 38t-27 17q-2 1 -4.5 1.5t-4.5 0.5v36h10h250v0z" />
    <glyph glyph-name="x" unicode="&#xd8;" horiz-adv-x="1100" 
d="M299 700v-36q-33 -5 -41.5 -24t-8.5 -42v-545h221v545v0.5v0.5v12t-2 12q-2 14 -12 26t-35 15v36h10h249v-36q-33 -5 -41.5 -24t-8.5 -42v-545h221v545q0 23 -8.5 42t-41.5 24v36h10h249v-36q-25 -3 -35 -15t-12 -26q-2 -6 -2 -12v-12v-0.5v-0.5v-505v-6.5t1 -6.5
q2 -15 12 -27.5t36 -16.5v-36h-10h-1010v36q26 4 36 16.5t12 27.5q1 3 1 6.5v6.5v505v0.5v0.5v12t-2 12q-2 14 -12 26t-35 15v36h10h249v0z" />
    <glyph glyph-name="x" unicode="&#x428;" horiz-adv-x="1100" 
d="M299 700v-36q-33 -5 -41.5 -24t-8.5 -42v-545h221v545v0.5v0.5v12t-2 12q-2 14 -12 26t-35 15v36h10h249v-36q-33 -5 -41.5 -24t-8.5 -42v-545h221v545q0 23 -8.5 42t-41.5 24v36h10h249v-36q-25 -3 -35 -15t-12 -26q-2 -6 -2 -12v-12v-0.5v-0.5v-505v-6.5t1 -6.5
q2 -15 12 -27.5t36 -16.5v-36h-10h-1010v36q26 4 36 16.5t12 27.5q1 3 1 6.5v6.5v505v0.5v0.5v12t-2 12q-2 14 -12 26t-35 15v36h10h249v0z" />
    <glyph glyph-name="y" unicode="&#xd9;" horiz-adv-x="1126" 
d="M50 700h250v-36q-33 -5 -41.5 -24t-8.5 -42v-545h221v545v0.5v0.5q0 6 -0.5 12.5t-1.5 14.5q-3 13 -13.5 24t-34.5 14v36h10h250v-36q-33 -5 -41.5 -24t-8.5 -42v-545h221v545q0 23 -8.5 42t-41.5 24v36h10h250v-36q-24 -3 -34.5 -14t-13.5 -24q-1 -8 -1.5 -14.5
t-0.5 -12.5v-0.5v-0.5v-497q0 -20 8 -32t17 -19q4 -3 7.5 -5t6.5 -4q2 -1 4 -2.5t4 -2.5q23 -16 43 -38.5t20 -55.5v-4v-4q-5 -53 -67.5 -97t-163.5 -44l-10 -1q-27 1 -55.5 4.5t-57.5 8.5q-34 7 -68 16t-66 18q-9 3 -18.5 5.5t-18.5 5.5q-70 22 -103 28t-45 7
q-11 -1 -17 -5.5t-7 -9.5v-1.5v-1.5q0 -6 2.5 -8.5t5.5 -2.5h2h2l5 -1q3 1 7.5 0.5t9.5 -1.5q7 -2 13 -8t6 -19q0 -2 -0.5 -4.5t-0.5 -4.5q-3 -10 -12.5 -18t-26.5 -8l-10 -1q-1 1 -2.5 1h-2.5q-18 2 -32.5 13.5t-14.5 37.5q0 41 26.5 62.5t58.5 31.5q31 9 56.5 10.5
t28.5 1.5l10 -1q56 1 106.5 -7.5t91.5 -18.5q13 -3 25 -6.5t23 -6.5q62 -17 97.5 -26t63.5 -10q34 1 51.5 12.5t25.5 25.5q3 6 4.5 12.5t1.5 11.5q0 23 -18 39t-39 22q-8 3 -15 3.5t-14 0.5h-920v36q20 2 35 15t15 42v505v0.5v0.5q0 6 -0.5 12.5t-1.5 14.5q-3 13 -13.5 24
t-34.5 14v36h10v0z" />
    <glyph glyph-name="y" unicode="&#x429;" horiz-adv-x="1126" 
d="M50 700h250v-36q-33 -5 -41.5 -24t-8.5 -42v-545h221v545v0.5v0.5q0 6 -0.5 12.5t-1.5 14.5q-3 13 -13.5 24t-34.5 14v36h10h250v-36q-33 -5 -41.5 -24t-8.5 -42v-545h221v545q0 23 -8.5 42t-41.5 24v36h10h250v-36q-24 -3 -34.5 -14t-13.5 -24q-1 -8 -1.5 -14.5
t-0.5 -12.5v-0.5v-0.5v-497q0 -20 8 -32t17 -19q4 -3 7.5 -5t6.5 -4q2 -1 4 -2.5t4 -2.5q23 -16 43 -38.5t20 -55.5v-4v-4q-5 -53 -67.5 -97t-163.5 -44l-10 -1q-27 1 -55.5 4.5t-57.5 8.5q-34 7 -68 16t-66 18q-9 3 -18.5 5.5t-18.5 5.5q-70 22 -103 28t-45 7
q-11 -1 -17 -5.5t-7 -9.5v-1.5v-1.5q0 -6 2.5 -8.5t5.5 -2.5h2h2l5 -1q3 1 7.5 0.5t9.5 -1.5q7 -2 13 -8t6 -19q0 -2 -0.5 -4.5t-0.5 -4.5q-3 -10 -12.5 -18t-26.5 -8l-10 -1q-1 1 -2.5 1h-2.5q-18 2 -32.5 13.5t-14.5 37.5q0 41 26.5 62.5t58.5 31.5q31 9 56.5 10.5
t28.5 1.5l10 -1q56 1 106.5 -7.5t91.5 -18.5q13 -3 25 -6.5t23 -6.5q62 -17 97.5 -26t63.5 -10q34 1 51.5 12.5t25.5 25.5q3 6 4.5 12.5t1.5 11.5q0 23 -18 39t-39 22q-8 3 -15 3.5t-14 0.5h-920v36q20 2 35 15t15 42v505v0.5v0.5q0 6 -0.5 12.5t-1.5 14.5q-3 13 -13.5 24
t-34.5 14v36h10v0z" />
    <glyph glyph-name="z" unicode="&#xda;" horiz-adv-x="804" 
d="M20 700h421v-36q-25 -3 -35 -15t-12 -26q-2 -6 -2 -12v-12v-0.5v-0.5v-184h89q116 0 173.5 -34t80.5 -74q17 -31 20.5 -58.5t3.5 -40.5q0 -8 -0.5 -15.5t-1.5 -15.5q-11 -66 -69 -121t-175 -55h-10h-321v36q28 3 38 19t11 34q1 3 1 6.5v6.5v545h-16q-62 0 -103 -32.5
t-57 -78.5h-10h-36v164h10v0zM392 361v-308h52q57 0 99.5 29t42.5 120q0 68 -30 113.5t-113 45.5h-51v0z" />
    <glyph glyph-name="z" unicode="&#x42a;" horiz-adv-x="804" 
d="M20 700h421v-36q-25 -3 -35 -15t-12 -26q-2 -6 -2 -12v-12v-0.5v-0.5v-184h89q116 0 173.5 -34t80.5 -74q17 -31 20.5 -58.5t3.5 -40.5q0 -8 -0.5 -15.5t-1.5 -15.5q-11 -66 -69 -121t-175 -55h-10h-321v36q28 3 38 19t11 34q1 3 1 6.5v6.5v545h-16q-62 0 -103 -32.5
t-57 -78.5h-10h-36v164h10v0zM392 361v-308h52q57 0 99.5 29t42.5 120q0 68 -30 113.5t-113 45.5h-51v0z" />
    <glyph glyph-name="braceleft" unicode="&#xdb;" horiz-adv-x="945" 
d="M299 700v-36q-25 -3 -35 -15t-12 -26q-2 -6 -2 -12v-12v-0.5v-0.5v-184h89q116 0 173.5 -34t80.5 -74q17 -31 20.5 -58.5t3.5 -40.5q0 -8 -0.5 -15.5t-1.5 -15.5q-11 -66 -69 -121t-175 -55h-10h-321v36q28 3 38 19t11 34q1 3 1 6.5v6.5v496v0.5v0.5v12t-2 12
q-2 14 -12 26t-35 15v36h10h248v0zM250 361v-308h52q57 0 99.5 29t42.5 120q0 68 -30 113.5t-113 45.5h-51v0zM900 700v-36q-26 -4 -36 -16.5t-12 -27.5q-1 -3 -1 -6.5v-6.5v-514v-6.5t1 -6.5q2 -15 12 -27.5t36 -16.5v-36h-10h-249v36q4 0 9.5 1.5t10.5 4.5q11 5 20.5 17
t9.5 34v514q0 22 -9.5 34t-20.5 17q-5 3 -10.5 4.5t-9.5 1.5v36h10h249v0z" />
    <glyph glyph-name="braceleft" unicode="&#x42b;" horiz-adv-x="945" 
d="M299 700v-36q-25 -3 -35 -15t-12 -26q-2 -6 -2 -12v-12v-0.5v-0.5v-184h89q116 0 173.5 -34t80.5 -74q17 -31 20.5 -58.5t3.5 -40.5q0 -8 -0.5 -15.5t-1.5 -15.5q-11 -66 -69 -121t-175 -55h-10h-321v36q28 3 38 19t11 34q1 3 1 6.5v6.5v496v0.5v0.5v12t-2 12
q-2 14 -12 26t-35 15v36h10h248v0zM250 361v-308h52q57 0 99.5 29t42.5 120q0 68 -30 113.5t-113 45.5h-51v0zM900 700v-36q-26 -4 -36 -16.5t-12 -27.5q-1 -3 -1 -6.5v-6.5v-514v-6.5t1 -6.5q2 -15 12 -27.5t36 -16.5v-36h-10h-249v36q4 0 9.5 1.5t10.5 4.5q11 5 20.5 17
t9.5 34v514q0 22 -9.5 34t-20.5 17q-5 3 -10.5 4.5t-9.5 1.5v36h10h249v0z" />
    <glyph glyph-name="bar" unicode="&#xdc;" horiz-adv-x="662" 
d="M299 700v-36q-25 -3 -35 -15t-12 -26q-2 -6 -2 -12v-12v-0.5v-0.5v-184h89q116 0 173.5 -34t80.5 -74q17 -31 20.5 -58.5t3.5 -40.5q0 -8 -0.5 -15.5t-1.5 -15.5q-11 -66 -69 -121t-175 -55h-10h-321v36q28 3 38 19t11 34q1 3 1 6.5v6.5v496v0.5v0.5v12t-2 12
q-2 14 -12 26t-35 15v36h10h248v0zM250 361v-308h52q57 0 99.5 29t42.5 120q0 68 -30 113.5t-113 45.5h-51v0z" />
    <glyph glyph-name="bar" unicode="&#x42c;" horiz-adv-x="662" 
d="M299 700v-36q-25 -3 -35 -15t-12 -26q-2 -6 -2 -12v-12v-0.5v-0.5v-184h89q116 0 173.5 -34t80.5 -74q17 -31 20.5 -58.5t3.5 -40.5q0 -8 -0.5 -15.5t-1.5 -15.5q-11 -66 -69 -121t-175 -55h-10h-321v36q28 3 38 19t11 34q1 3 1 6.5v6.5v496v0.5v0.5v12t-2 12
q-2 14 -12 26t-35 15v36h10h248v0zM250 361v-308h52q57 0 99.5 29t42.5 120q0 68 -30 113.5t-113 45.5h-51v0z" />
    <glyph glyph-name="braceright" unicode="&#xdd;" horiz-adv-x="709" 
d="M67 694h36q11 -10 21 -15t20 -6q5 0 10 1.5t10 3.5q3 1 6.5 2t6.5 2q2 1 3.5 1.5t3.5 1.5q42 17 75 21.5t62 4.5h10q26 0 72 -7.5t96 -36.5q24 -13 48 -33t45 -48q4 -5 14 -19t21 -37q14 -28 25.5 -67.5t11.5 -91.5q0 -15 -1 -30t-2 -31q-7 -53 -25.5 -104.5t-53.5 -95.5
q-52 -64 -119.5 -92t-152.5 -28l-10 -1q-2 1 -4 1h-5q-92 2 -169 45t-77 117q0 37 22.5 59.5t55.5 22.5h10q31 0 50 -20t19 -46q0 -9 -2 -18t-7 -17q-1 -1 -1.5 -2t-0.5 -2l-6 -12t-3 -12q0 -5 3.5 -11.5t9.5 -12.5q14 -14 40 -26t61 -13q16 0 36.5 5t41.5 16
q45 24 82.5 85.5t36.5 183.5v6.5v7.5q-10 -11 -19 -20.5t-19 -17.5q-14 -11 -28 -17.5t-29 -6.5h-10q-8 0 -18.5 2t-20.5 5q-7 3 -13.5 5t-12.5 5q-9 3 -16 6.5t-12 5.5q-4 2 -7.5 4t-7.5 4q-21 11 -38.5 20.5t-32.5 11.5q-5 -1 -9.5 -2.5t-9.5 -3.5q-11 -5 -21.5 -12
t-17.5 -15l-1.5 -1.5l-1.5 -1.5h-10l-27 28q3 3 6.5 6t6.5 6q25 24 52 45.5t55 32.5q10 3 19.5 5t18.5 2h10q9 0 18 -3l18 -6q2 0 3.5 -0.5t2.5 -1.5q34 -14 55.5 -26.5t40.5 -17.5q4 -1 8.5 -2t8.5 -1q5 0 10.5 1t11.5 4q12 5 22.5 17.5t10.5 37.5q0 18 -4.5 41t-14.5 48
q-19 46 -61 85t-115 40q-7 0 -13.5 -0.5t-12.5 -1.5q-55 -7 -102.5 -39t-62.5 -93h-10h-36v170h10v0z" />
    <glyph glyph-name="braceright" unicode="&#x42d;" horiz-adv-x="709" 
d="M67 694h36q11 -10 21 -15t20 -6q5 0 10 1.5t10 3.5q3 1 6.5 2t6.5 2q2 1 3.5 1.5t3.5 1.5q42 17 75 21.5t62 4.5h10q26 0 72 -7.5t96 -36.5q24 -13 48 -33t45 -48q4 -5 14 -19t21 -37q14 -28 25.5 -67.5t11.5 -91.5q0 -15 -1 -30t-2 -31q-7 -53 -25.5 -104.5t-53.5 -95.5
q-52 -64 -119.5 -92t-152.5 -28l-10 -1q-2 1 -4 1h-5q-92 2 -169 45t-77 117q0 37 22.5 59.5t55.5 22.5h10q31 0 50 -20t19 -46q0 -9 -2 -18t-7 -17q-1 -1 -1.5 -2t-0.5 -2l-6 -12t-3 -12q0 -5 3.5 -11.5t9.5 -12.5q14 -14 40 -26t61 -13q16 0 36.5 5t41.5 16
q45 24 82.5 85.5t36.5 183.5v6.5v7.5q-10 -11 -19 -20.5t-19 -17.5q-14 -11 -28 -17.5t-29 -6.5h-10q-8 0 -18.5 2t-20.5 5q-7 3 -13.5 5t-12.5 5q-9 3 -16 6.5t-12 5.5q-4 2 -7.5 4t-7.5 4q-21 11 -38.5 20.5t-32.5 11.5q-5 -1 -9.5 -2.5t-9.5 -3.5q-11 -5 -21.5 -12
t-17.5 -15l-1.5 -1.5l-1.5 -1.5h-10l-27 28q3 3 6.5 6t6.5 6q25 24 52 45.5t55 32.5q10 3 19.5 5t18.5 2h10q9 0 18 -3l18 -6q2 0 3.5 -0.5t2.5 -1.5q34 -14 55.5 -26.5t40.5 -17.5q4 -1 8.5 -2t8.5 -1q5 0 10.5 1t11.5 4q12 5 22.5 17.5t10.5 37.5q0 18 -4.5 41t-14.5 48
q-19 46 -61 85t-115 40q-7 0 -13.5 -0.5t-12.5 -1.5q-55 -7 -102.5 -39t-62.5 -93h-10h-36v170h10v0z" />
    <glyph glyph-name="asciitilde" unicode="&#xde;" horiz-adv-x="1123" 
d="M249 377h113q1 7 2 13.5t2 13.5q20 115 106 211t243 96h10q165 0 258 -111.5t95 -244.5v-3.5v-2.5q0 -164 -107.5 -261.5t-245.5 -97.5l-10 -1q-150 1 -248.5 100.5t-103.5 234.5h-114v-231q0 -20 11 -36t39 -21v-36h-10h-249v36q26 4 36 16.5t12 27.5q1 3 1 6.5v6.5v514
v6.5t-1 6.5q-2 15 -12 27.5t-36 16.5v36h10h249v-36q-28 -4 -39 -20.5t-11 -36.5v-230v0zM720 658q-118 -2 -150 -93.5t-32 -216.5q0 -175 45.5 -239.5t136.5 -66.5q92 2 137 66.5t45 239.5q0 125 -31.5 216.5t-150.5 93.5v0z" />
    <glyph glyph-name="asciitilde" unicode="&#x42e;" horiz-adv-x="1123" 
d="M249 377h113q1 7 2 13.5t2 13.5q20 115 106 211t243 96h10q165 0 258 -111.5t95 -244.5v-3.5v-2.5q0 -164 -107.5 -261.5t-245.5 -97.5l-10 -1q-150 1 -248.5 100.5t-103.5 234.5h-114v-231q0 -20 11 -36t39 -21v-36h-10h-249v36q26 4 36 16.5t12 27.5q1 3 1 6.5v6.5v514
v6.5t-1 6.5q-2 15 -12 27.5t-36 16.5v36h10h249v-36q-28 -4 -39 -20.5t-11 -36.5v-230v0zM720 658q-118 -2 -150 -93.5t-32 -216.5q0 -175 45.5 -239.5t136.5 -66.5q92 2 137 66.5t45 239.5q0 125 -31.5 216.5t-150.5 93.5v0z" />
    <glyph glyph-name="germandbls" unicode="&#xdf;" horiz-adv-x="700" 
d="M660 700v-36q-26 -4 -36.5 -17.5t-12.5 -28.5q-1 -5 -1 -10v-10v-496q0 -22 8.5 -41.5t41.5 -24.5v-36h-10h-249v36q25 4 35 15.5t12 25.5q2 6 2 12v12v0.5v0.5v216q-93 0 -123 -38t-43 -84q-1 -3 -2 -7l-2 -8q-1 -2 -1.5 -4.5t-1.5 -5.5q0 -1 -0.5 -2.5t-1.5 -3.5
q-18 -66 -58.5 -120.5t-146.5 -54.5l-10 -1q-11 1 -22 2.5t-19 2.5q-7 1 -12 2.5t-7 1.5v36q34 7 51.5 28t31.5 64q2 6 4 13l4 14l2 8t3 7q15 52 45.5 97t109.5 62v7q-74 17 -111 48t-51 64q-8 19 -11 37t-3 34q0 80 61 131.5t206 51.5h10h308v0zM450 647h-49h-13.5
t-13.5 -1q-46 -3 -84.5 -28t-38.5 -106q0 -11 1 -27.5t8 -34.5q10 -30 41.5 -54.5t101.5 -24.5h47v276v0z" />
    <glyph glyph-name="germandbls" unicode="&#x42f;" horiz-adv-x="700" 
d="M660 700v-36q-26 -4 -36.5 -17.5t-12.5 -28.5q-1 -5 -1 -10v-10v-496q0 -22 8.5 -41.5t41.5 -24.5v-36h-10h-249v36q25 4 35 15.5t12 25.5q2 6 2 12v12v0.5v0.5v216q-93 0 -123 -38t-43 -84q-1 -3 -2 -7l-2 -8q-1 -2 -1.5 -4.5t-1.5 -5.5q0 -1 -0.5 -2.5t-1.5 -3.5
q-18 -66 -58.5 -120.5t-146.5 -54.5l-10 -1q-11 1 -22 2.5t-19 2.5q-7 1 -12 2.5t-7 1.5v36q34 7 51.5 28t31.5 64q2 6 4 13l4 14l2 8t3 7q15 52 45.5 97t109.5 62v7q-74 17 -111 48t-51 64q-8 19 -11 37t-3 34q0 80 61 131.5t206 51.5h10h308v0zM450 647h-49h-13.5
t-13.5 -1q-46 -3 -84.5 -28t-38.5 -106q0 -11 1 -27.5t8 -34.5q10 -30 41.5 -54.5t101.5 -24.5h47v276v0z" />
    <glyph glyph-name="agrave" unicode="&#xe0;" horiz-adv-x="440" 
d="M426 52v-34q-2 -2 -5.5 -5t-8.5 -6q-8 -6 -21.5 -10t-32.5 -4l-10 -1q-23 1 -39 10.5t-25 21.5q-4 5 -7 10t-5 9q-25 -24 -53 -37t-69 -13l-10 -1q-46 1 -69.5 17.5t-33.5 37.5q-5 12 -7 23t-2 19q0 12 2 27t9 30q15 34 60.5 62.5t147.5 30.5v28q0 53 -12 70t-31 18
q-10 -1 -21.5 -7.5t-25.5 -29.5q0 -1 -0.5 -1.5l-1.5 -1.5q-8 -12 -17.5 -22t-26.5 -10h-10q-16 0 -26.5 10t-10.5 26q0 29 37.5 52.5t108.5 23.5h10q76 0 109 -32t43 -71q5 -19 6.5 -37.5t1.5 -32.5v-126v-9t2 -11q1 -9 7 -16.5t19 -8.5h2h2t2 0.5t2 0.5h10v0zM247 198
q-37 -4 -59 -31t-22 -65q0 -23 7.5 -34.5t16.5 -15.5q3 -2 6 -3t6 -1q21 2 30.5 17t12.5 32q1 9 1.5 17.5t0.5 15.5v68v0z" />
    <glyph glyph-name="agrave" unicode="&#x430;" horiz-adv-x="440" 
d="M426 52v-34q-2 -2 -5.5 -5t-8.5 -6q-8 -6 -21.5 -10t-32.5 -4l-10 -1q-23 1 -39 10.5t-25 21.5q-4 5 -7 10t-5 9q-25 -24 -53 -37t-69 -13l-10 -1q-46 1 -69.5 17.5t-33.5 37.5q-5 12 -7 23t-2 19q0 12 2 27t9 30q15 34 60.5 62.5t147.5 30.5v28q0 53 -12 70t-31 18
q-10 -1 -21.5 -7.5t-25.5 -29.5q0 -1 -0.5 -1.5l-1.5 -1.5q-8 -12 -17.5 -22t-26.5 -10h-10q-16 0 -26.5 10t-10.5 26q0 29 37.5 52.5t108.5 23.5h10q76 0 109 -32t43 -71q5 -19 6.5 -37.5t1.5 -32.5v-126v-9t2 -11q1 -9 7 -16.5t19 -8.5h2h2t2 0.5t2 0.5h10v0zM247 198
q-37 -4 -59 -31t-22 -65q0 -23 7.5 -34.5t16.5 -15.5q3 -2 6 -3t6 -1q21 2 30.5 17t12.5 32q1 9 1.5 17.5t0.5 15.5v68v0z" />
    <glyph glyph-name="K" unicode="&#xe1;" horiz-adv-x="471" 
d="M394 604h34q-1 -11 -2.5 -23t-5.5 -24q-9 -34 -32 -62t-65 -28h-10q-19 0 -31.5 5t-21.5 10l-3.5 3.5t-3.5 2.5q-1 1 -2 1.5t-2 1.5q-6 4 -12 7.5t-14 4.5q-17 -4 -27 -30.5t-13 -58.5q0 -7 -0.5 -13.5t-0.5 -13.5v-5.5v-4.5q6 4 12.5 6.5t13.5 4.5q13 4 26 5.5t23 1.5
h10q68 0 122 -48.5t54 -146.5q0 -95 -47 -142t-104 -59q-13 -3 -26 -4.5t-26 -1.5l-10 -1q-13 1 -26 2.5t-27 5.5q-54 13 -99.5 65t-45.5 164q0 24 2.5 49t7.5 51q8 42 24.5 83t41.5 75q12 16 24.5 29t25.5 23q46 37 88 43t62 6h0.5h0.5h10q3 0 7 -0.5t8 -0.5t8 -0.5t8 -0.5
q11 1 19 4.5t15 13.5h10v0zM237 355q-44 -2 -51 -37.5t-7 -108.5v-4.5v-4.5v-14.5v-15.5q-1 -7 -1 -14.5v-14.5q0 -43 10.5 -75t49.5 -34q39 2 49 34.5t10 75.5v14.5v14.5q-1 7 -1 14.5v14.5v2.5v2.5q0 73 -7.5 110.5t-51.5 39.5v0z" />
    <glyph glyph-name="K" unicode="&#x431;" horiz-adv-x="471" 
d="M394 604h34q-1 -11 -2.5 -23t-5.5 -24q-9 -34 -32 -62t-65 -28h-10q-19 0 -31.5 5t-21.5 10l-3.5 3.5t-3.5 2.5q-1 1 -2 1.5t-2 1.5q-6 4 -12 7.5t-14 4.5q-17 -4 -27 -30.5t-13 -58.5q0 -7 -0.5 -13.5t-0.5 -13.5v-5.5v-4.5q6 4 12.5 6.5t13.5 4.5q13 4 26 5.5t23 1.5
h10q68 0 122 -48.5t54 -146.5q0 -95 -47 -142t-104 -59q-13 -3 -26 -4.5t-26 -1.5l-10 -1q-13 1 -26 2.5t-27 5.5q-54 13 -99.5 65t-45.5 164q0 24 2.5 49t7.5 51q8 42 24.5 83t41.5 75q12 16 24.5 29t25.5 23q46 37 88 43t62 6h0.5h0.5h10q3 0 7 -0.5t8 -0.5t8 -0.5t8 -0.5
q11 1 19 4.5t15 13.5h10v0zM237 355q-44 -2 -51 -37.5t-7 -108.5v-4.5v-4.5v-14.5v-15.5q-1 -7 -1 -14.5v-14.5q0 -43 10.5 -75t49.5 -34q39 2 49 34.5t10 75.5v14.5v14.5q-1 7 -1 14.5v14.5v2.5v2.5q0 73 -7.5 110.5t-51.5 39.5v0z" />
    <glyph glyph-name="quotedbl" unicode="&#xe2;" horiz-adv-x="469" 
d="M42 387h228q12 0 30.5 -0.5t38.5 -4.5q32 -7 59 -26.5t27 -62.5q0 -8 -1.5 -17.5t-6.5 -19.5q-9 -21 -35 -38t-80 -20v-4q83 1 113 -26.5t33 -59.5v-4v-4q0 -63 -47 -80.5t-103 -19.5h-21h-21h-3.5h-3.5h-10h-207v35q20 5 28 19t8 36v208q0 19 -8 35t-28 19v35h10v0z
M201 181v-141h22q47 0 62.5 20t15.5 47q0 36 -16 51.5t-35 19.5q-8 2 -15.5 2.5t-14.5 0.5h-19v0zM201 347v-126h21q35 0 53 13t18 50q0 5 -0.5 10.5t-1.5 11.5q-4 16 -18.5 28.5t-50.5 12.5h-21v0z" />
    <glyph glyph-name="quotedbl" unicode="&#x432;" horiz-adv-x="469" 
d="M42 387h228q12 0 30.5 -0.5t38.5 -4.5q32 -7 59 -26.5t27 -62.5q0 -8 -1.5 -17.5t-6.5 -19.5q-9 -21 -35 -38t-80 -20v-4q83 1 113 -26.5t33 -59.5v-4v-4q0 -63 -47 -80.5t-103 -19.5h-21h-21h-3.5h-3.5h-10h-207v35q20 5 28 19t8 36v208q0 19 -8 35t-28 19v35h10v0z
M201 181v-141h22q47 0 62.5 20t15.5 47q0 36 -16 51.5t-35 19.5q-8 2 -15.5 2.5t-14.5 0.5h-19v0zM201 347v-126h21q35 0 53 13t18 50q0 5 -0.5 10.5t-1.5 11.5q-4 16 -18.5 28.5t-50.5 12.5h-21v0z" />
    <glyph glyph-name="atilde" unicode="&#xe3;" horiz-adv-x="379" 
d="M365 387v-135h-10h-35q-6 41 -23 60.5t-37 26.5q-14 6 -27 7t-22 1h-10v-257q0 -22 7.5 -36t28.5 -19v-35h-10h-195v35q16 4 23.5 12.5t10.5 18.5q1 7 1.5 13t0.5 11v208q0 3 -0.5 10.5t-3.5 15.5q-3 10 -10 18t-22 10v35h10h323v0z" />
    <glyph glyph-name="atilde" unicode="&#x433;" horiz-adv-x="379" 
d="M365 387v-135h-10h-35q-6 41 -23 60.5t-37 26.5q-14 6 -27 7t-22 1h-10v-257q0 -22 7.5 -36t28.5 -19v-35h-10h-195v35q16 4 23.5 12.5t10.5 18.5q1 7 1.5 13t0.5 11v208q0 3 -0.5 10.5t-3.5 15.5q-3 10 -10 18t-22 10v35h10h323v0z" />
    <glyph glyph-name="adieresis" unicode="&#xe4;" horiz-adv-x="491" 
d="M439 387v-37h-1.5h-1.5q-13 -2 -23.5 -14.5t-10.5 -46.5v-188q0 -44 11 -51.5t30 -7.5h2h2q3 0 7.5 -0.5t9.5 -1.5q8 -3 14 -9t6 -18q0 -9 -3.5 -19t-9.5 -20q-9 -14 -21 -28t-25 -26q-16 -14 -30.5 -23t-22.5 -9l-10 -1q-1 1 -2 1t-2 1q-4 1 -7 4t-3 10q0 6 2.5 12
t6.5 14q6 9 10 19.5t4 21.5q0 15 -9.5 21.5t-21.5 8.5h-9.5h-8.5h-167q-19 0 -30.5 -7.5t-11.5 -24.5q0 -10 3.5 -18t7.5 -15q0 -1 0.5 -2t1.5 -2q4 -6 7 -12.5t3 -13.5q0 -8 -3 -11.5t-7 -4.5q-1 -1 -2 -1h-2l-10 -1q-9 1 -20.5 7.5t-23.5 17.5q-14 11 -26.5 26t-21.5 31
q-6 11 -9.5 21.5t-3.5 20.5q0 13 6 19.5t13 8.5q4 1 8 1.5t7 0.5q9 1 19 4.5t23 19.5q6 7 12 18t12 25q8 17 16 36.5t15 39.5q12 35 19.5 66.5t7.5 49.5v0.5v1.5v9.5t-2 11.5q-3 11 -13.5 20t-35.5 9h-4v35h10h319v0zM269 347q-20 -1 -29 -15t-16 -38q-1 -6 -3 -13l-4 -14
q-7 -28 -19.5 -71.5t-36.5 -103.5q-5 -13 -7 -20t-2 -12q0 -9 5 -13t11 -6q4 -1 8 -1h6h3.5h2.5h81v307v0z" />
    <glyph glyph-name="adieresis" unicode="&#x434;" horiz-adv-x="491" 
d="M439 387v-37h-1.5h-1.5q-13 -2 -23.5 -14.5t-10.5 -46.5v-188q0 -44 11 -51.5t30 -7.5h2h2q3 0 7.5 -0.5t9.5 -1.5q8 -3 14 -9t6 -18q0 -9 -3.5 -19t-9.5 -20q-9 -14 -21 -28t-25 -26q-16 -14 -30.5 -23t-22.5 -9l-10 -1q-1 1 -2 1t-2 1q-4 1 -7 4t-3 10q0 6 2.5 12
t6.5 14q6 9 10 19.5t4 21.5q0 15 -9.5 21.5t-21.5 8.5h-9.5h-8.5h-167q-19 0 -30.5 -7.5t-11.5 -24.5q0 -10 3.5 -18t7.5 -15q0 -1 0.5 -2t1.5 -2q4 -6 7 -12.5t3 -13.5q0 -8 -3 -11.5t-7 -4.5q-1 -1 -2 -1h-2l-10 -1q-9 1 -20.5 7.5t-23.5 17.5q-14 11 -26.5 26t-21.5 31
q-6 11 -9.5 21.5t-3.5 20.5q0 13 6 19.5t13 8.5q4 1 8 1.5t7 0.5q9 1 19 4.5t23 19.5q6 7 12 18t12 25q8 17 16 36.5t15 39.5q12 35 19.5 66.5t7.5 49.5v0.5v1.5v9.5t-2 11.5q-3 11 -13.5 20t-35.5 9h-4v35h10h319v0zM269 347q-20 -1 -29 -15t-16 -38q-1 -6 -3 -13l-4 -14
q-7 -28 -19.5 -71.5t-36.5 -103.5q-5 -13 -7 -20t-2 -12q0 -9 5 -13t11 -6q4 -1 8 -1h6h3.5h2.5h81v307v0z" />
    <glyph glyph-name="yright" unicode="&#xe5;" horiz-adv-x="419" 
d="M391 210h-216q-1 -10 -1 -20v-19q0 -55 14.5 -89t62.5 -36q30 2 52.5 18.5t42.5 39.5h10l29 -28q-5 -7 -13 -16.5t-19 -20.5q-20 -17 -51 -31.5t-73 -14.5l-10 -1q-91 1 -141 58.5t-50 134.5q0 80 50.5 145t141.5 65h10q74 0 112 -46t46 -102q2 -9 2.5 -18.5t0.5 -18.5v0
zM271 250v6v6q0 50 -12 71t-35 22q-23 -1 -36 -21.5t-13 -74.5v-4.5v-4.5h96v0z" />
    <glyph glyph-name="yright" unicode="&#x435;" horiz-adv-x="419" 
d="M391 210h-216q-1 -10 -1 -20v-19q0 -55 14.5 -89t62.5 -36q30 2 52.5 18.5t42.5 39.5h10l29 -28q-5 -7 -13 -16.5t-19 -20.5q-20 -17 -51 -31.5t-73 -14.5l-10 -1q-91 1 -141 58.5t-50 134.5q0 80 50.5 145t141.5 65h10q74 0 112 -46t46 -102q2 -9 2.5 -18.5t0.5 -18.5v0
zM271 250v6v6q0 50 -12 71t-35 22q-23 -1 -36 -21.5t-13 -74.5v-4.5v-4.5h96v0z" />
    <glyph glyph-name="guilsinglright" unicode="&#xe6;" horiz-adv-x="731" 
d="M273 387h195v-35q-19 -4 -27.5 -17.5t-8.5 -36.5v-46q28 4 45.5 20t33.5 38q3 5 6.5 9.5t6.5 9.5q4 6 9 12.5t12 14.5q14 15 34.5 27.5t46.5 12.5h10q10 0 20.5 -2t21.5 -7v-121h-10h-35q-1 16 -9 26t-19 12q-8 -1 -13.5 -5t-10.5 -8q-2 -1 -3.5 -2.5l-2.5 -2.5
q-5 -4 -13 -10.5t-17 -13.5q-5 -3 -9.5 -6t-8.5 -6q-10 -6 -19.5 -10.5t-17.5 -6.5v-5q93 -15 126.5 -55.5t48.5 -85.5q1 -2 1.5 -4t1.5 -4t1.5 -4t1.5 -4q4 -13 10 -22t22 -14v-35h-10h-186v35q1 0 2 0.5t3 0.5q8 3 14.5 13t6.5 34q0 10 -2.5 21.5t-7.5 23.5
q-10 26 -33 48.5t-58 27.5v-114q0 -22 7 -35.5t29 -19.5v-35h-10h-195v35q22 6 29 19.5t7 35.5v114q-35 -5 -58 -27.5t-33 -48.5q-5 -12 -7.5 -23.5t-2.5 -21.5q0 -28 8 -37t18 -11v-35h-10h-186v35q16 5 22 14t10 22q1 2 1.5 4t1.5 4t1.5 4t1.5 4q15 45 48.5 85.5
t126.5 55.5v5q-8 2 -17.5 6.5t-19.5 10.5q-4 3 -8.5 6t-9.5 6q-9 7 -17 13.5t-13 10.5l-2.5 2.5t-3.5 2.5q-5 4 -10.5 8t-13.5 5q-11 -2 -19 -12t-9 -26h-10h-35v121q11 5 21.5 7t20.5 2h10q27 -1 47 -13.5t34 -27.5q7 -7 12 -13.5t9 -12.5q3 -5 6.5 -9.5t6.5 -9.5
q16 -22 33.5 -38t45.5 -20v46q0 23 -8 36.5t-28 17.5v35h10v0z" />
    <glyph glyph-name="guilsinglright" unicode="&#x436;" horiz-adv-x="731" 
d="M273 387h195v-35q-19 -4 -27.5 -17.5t-8.5 -36.5v-46q28 4 45.5 20t33.5 38q3 5 6.5 9.5t6.5 9.5q4 6 9 12.5t12 14.5q14 15 34.5 27.5t46.5 12.5h10q10 0 20.5 -2t21.5 -7v-121h-10h-35q-1 16 -9 26t-19 12q-8 -1 -13.5 -5t-10.5 -8q-2 -1 -3.5 -2.5l-2.5 -2.5
q-5 -4 -13 -10.5t-17 -13.5q-5 -3 -9.5 -6t-8.5 -6q-10 -6 -19.5 -10.5t-17.5 -6.5v-5q93 -15 126.5 -55.5t48.5 -85.5q1 -2 1.5 -4t1.5 -4t1.5 -4t1.5 -4q4 -13 10 -22t22 -14v-35h-10h-186v35q1 0 2 0.5t3 0.5q8 3 14.5 13t6.5 34q0 10 -2.5 21.5t-7.5 23.5
q-10 26 -33 48.5t-58 27.5v-114q0 -22 7 -35.5t29 -19.5v-35h-10h-195v35q22 6 29 19.5t7 35.5v114q-35 -5 -58 -27.5t-33 -48.5q-5 -12 -7.5 -23.5t-2.5 -21.5q0 -28 8 -37t18 -11v-35h-10h-186v35q16 5 22 14t10 22q1 2 1.5 4t1.5 4t1.5 4t1.5 4q15 45 48.5 85.5
t126.5 55.5v5q-8 2 -17.5 6.5t-19.5 10.5q-4 3 -8.5 6t-9.5 6q-9 7 -17 13.5t-13 10.5l-2.5 2.5t-3.5 2.5q-5 4 -10.5 8t-13.5 5q-11 -2 -19 -12t-9 -26h-10h-35v121q11 5 21.5 7t20.5 2h10q27 -1 47 -13.5t34 -27.5q7 -7 12 -13.5t9 -12.5q3 -5 6.5 -9.5t6.5 -9.5
q16 -22 33.5 -38t45.5 -20v46q0 23 -8 36.5t-28 17.5v35h10v0z" />
    <glyph glyph-name="florin" unicode="&#xe7;" horiz-adv-x="429" 
d="M66 391h35q4 -4 9.5 -7.5t14.5 -4.5q3 0 6.5 0.5t6.5 1.5t6.5 1.5t6.5 1.5q2 1 4.5 1.5t5.5 0.5q8 2 16.5 3.5t17.5 2.5l20 2t18 1h10q77 0 112.5 -30.5t35.5 -68.5q0 -30 -16 -50t-39 -34v-4q29 -8 50.5 -33.5t21.5 -63.5q0 -49 -43.5 -83.5t-134.5 -34.5l-10 -1
q-18 1 -42.5 4t-50.5 13q-17 7 -27.5 13t-20.5 9q-2 0 -3 0.5t-3 0.5q-5 -1 -11.5 -4t-12.5 -9q-3 -3 -6 -7t-6 -9h-10l-27 19q20 32 42.5 56t56.5 24h10q20 0 33 -9.5t22 -20.5q4 -4 7.5 -8.5t6.5 -8.5q1 0 1.5 -1l0.5 -1q8 -9 18 -14t21 -7q16 2 29 17.5t13 55.5
q0 17 -2 30t-5 22q-1 3 -1.5 5.5t-1.5 4.5q-22 -9 -39.5 -14t-33.5 -7q-5 -1 -9 -1h-8h-10q-3 0 -12 0.5t-18 3.5q-12 4 -22 12.5t-10 25.5v4.5t1 4.5q2 19 19 35t58 16h10q19 0 36.5 -3t33.5 -8q3 6 5 12l4 12l2 12t1 12q0 27 -17.5 46.5t-51.5 20.5q-37 -1 -57.5 -24
t-32.5 -64h-10h-34v128h10v0zM221 205q-10 5 -22 8.5t-28 4.5q-3 0 -6 -0.5t-7 -0.5q-9 -2 -17 -6.5t-8 -15.5q0 -2 0.5 -4t1.5 -4q2 -3 7.5 -6.5t16.5 -4.5q8 1 20 4.5t25 11.5q4 2 8.5 5.5t8.5 7.5v0z" />
    <glyph glyph-name="florin" unicode="&#x437;" horiz-adv-x="429" 
d="M66 391h35q4 -4 9.5 -7.5t14.5 -4.5q3 0 6.5 0.5t6.5 1.5t6.5 1.5t6.5 1.5q2 1 4.5 1.5t5.5 0.5q8 2 16.5 3.5t17.5 2.5l20 2t18 1h10q77 0 112.5 -30.5t35.5 -68.5q0 -30 -16 -50t-39 -34v-4q29 -8 50.5 -33.5t21.5 -63.5q0 -49 -43.5 -83.5t-134.5 -34.5l-10 -1
q-18 1 -42.5 4t-50.5 13q-17 7 -27.5 13t-20.5 9q-2 0 -3 0.5t-3 0.5q-5 -1 -11.5 -4t-12.5 -9q-3 -3 -6 -7t-6 -9h-10l-27 19q20 32 42.5 56t56.5 24h10q20 0 33 -9.5t22 -20.5q4 -4 7.5 -8.5t6.5 -8.5q1 0 1.5 -1l0.5 -1q8 -9 18 -14t21 -7q16 2 29 17.5t13 55.5
q0 17 -2 30t-5 22q-1 3 -1.5 5.5t-1.5 4.5q-22 -9 -39.5 -14t-33.5 -7q-5 -1 -9 -1h-8h-10q-3 0 -12 0.5t-18 3.5q-12 4 -22 12.5t-10 25.5v4.5t1 4.5q2 19 19 35t58 16h10q19 0 36.5 -3t33.5 -8q3 6 5 12l4 12l2 12t1 12q0 27 -17.5 46.5t-51.5 20.5q-37 -1 -57.5 -24
t-32.5 -64h-10h-34v128h10v0zM221 205q-10 5 -22 8.5t-28 4.5q-3 0 -6 -0.5t-7 -0.5q-9 -2 -17 -6.5t-8 -15.5q0 -2 0.5 -4t1.5 -4q2 -3 7.5 -6.5t16.5 -4.5q8 1 20 4.5t25 11.5q4 2 8.5 5.5t8.5 7.5v0z" />
    <glyph glyph-name="comma" unicode="&#xe8;" 
d="M42 387h196v-35q-19 -2 -28 -17.5t-9 -36.5v-132l113 128v3q0 20 -8 36t-28 19v35h10h195v-35q-14 -2 -21.5 -10t-10.5 -18q-3 -8 -3.5 -15.5t-0.5 -10.5v-208q0 -5 0.5 -11t1.5 -13q3 -10 10.5 -18.5t23.5 -12.5v-35h-10h-195v35q20 5 28 19t8 36v131l-113 -129v-4
q0 -22 9 -35.5t28 -17.5v-35h-10h-196v35q20 5 28 19t8 36v208q0 19 -8 35t-28 19v35h10v0z" />
    <glyph glyph-name="comma" unicode="&#x438;" 
d="M42 387h196v-35q-19 -2 -28 -17.5t-9 -36.5v-132l113 128v3q0 20 -8 36t-28 19v35h10h195v-35q-14 -2 -21.5 -10t-10.5 -18q-3 -8 -3.5 -15.5t-0.5 -10.5v-208q0 -5 0.5 -11t1.5 -13q3 -10 10.5 -18.5t23.5 -12.5v-35h-10h-195v35q20 5 28 19t8 36v131l-113 -129v-4
q0 -22 9 -35.5t28 -17.5v-35h-10h-196v35q20 5 28 19t8 36v208q0 19 -8 35t-28 19v35h10v0z" />
    <glyph glyph-name="L" unicode="&#xe9;" 
d="M42 387h196v-35q-19 -2 -28 -17.5t-9 -36.5v-132l113 128v3q0 20 -8 36t-28 19v35h10h195v-35q-14 -2 -21.5 -10t-10.5 -18q-3 -8 -3.5 -15.5t-0.5 -10.5v-208q0 -5 0.5 -11t1.5 -13q3 -10 10.5 -18.5t23.5 -12.5v-35h-10h-195v35q20 5 28 19t8 36v131l-113 -129v-4
q0 -22 9 -35.5t28 -17.5v-35h-10h-196v35q20 5 28 19t8 36v208q0 19 -8 35t-28 19v35h10v0zM260 533q42 1 72 13.5t39 27.5q1 3 2 5.5t1 5.5q0 5 -2.5 8t-5.5 4h-1.5h-1.5q-1 -1 -2.5 -1.5t-3.5 -1.5q-1 -1 -2.5 -1.5t-3.5 -1.5q-3 -1 -6.5 -2.5t-7.5 -1.5q-1 -1 -2.5 -1
h-2.5h-10q-13 0 -22.5 7.5t-9.5 18.5q0 3 0.5 6t2.5 6q4 8 13.5 14.5t27.5 6.5h10q32 0 50.5 -17t18.5 -42q0 -6 -1 -11.5t-3 -11.5q-10 -34 -48 -62t-97 -27h-10q-59 -1 -97 26t-50 60q-3 7 -4 13.5t-1 12.5q0 25 18.5 42t50.5 17h10q18 0 27.5 -6.5t13.5 -14.5
q2 -3 2.5 -6t0.5 -6q0 -11 -9.5 -18.5t-22.5 -7.5h-10h-2.5t-2.5 1q-4 0 -7.5 1.5t-6.5 2.5q-2 1 -3.5 1.5t-2.5 1.5q-3 1 -5 1.5t-4 1.5q-3 -1 -5.5 -4t-2.5 -8q0 -3 1.5 -6.5t3.5 -7.5q11 -14 41 -25.5t73 -12.5v0z" />
    <glyph glyph-name="L" unicode="&#x439;" 
d="M42 387h196v-35q-19 -2 -28 -17.5t-9 -36.5v-132l113 128v3q0 20 -8 36t-28 19v35h10h195v-35q-14 -2 -21.5 -10t-10.5 -18q-3 -8 -3.5 -15.5t-0.5 -10.5v-208q0 -5 0.5 -11t1.5 -13q3 -10 10.5 -18.5t23.5 -12.5v-35h-10h-195v35q20 5 28 19t8 36v131l-113 -129v-4
q0 -22 9 -35.5t28 -17.5v-35h-10h-196v35q20 5 28 19t8 36v208q0 19 -8 35t-28 19v35h10v0zM260 533q42 1 72 13.5t39 27.5q1 3 2 5.5t1 5.5q0 5 -2.5 8t-5.5 4h-1.5h-1.5q-1 -1 -2.5 -1.5t-3.5 -1.5q-1 -1 -2.5 -1.5t-3.5 -1.5q-3 -1 -6.5 -2.5t-7.5 -1.5q-1 -1 -2.5 -1
h-2.5h-10q-13 0 -22.5 7.5t-9.5 18.5q0 3 0.5 6t2.5 6q4 8 13.5 14.5t27.5 6.5h10q32 0 50.5 -17t18.5 -42q0 -6 -1 -11.5t-3 -11.5q-10 -34 -48 -62t-97 -27h-10q-59 -1 -97 26t-50 60q-3 7 -4 13.5t-1 12.5q0 25 18.5 42t50.5 17h10q18 0 27.5 -6.5t13.5 -14.5
q2 -3 2.5 -6t0.5 -6q0 -11 -9.5 -18.5t-22.5 -7.5h-10h-2.5t-2.5 1q-4 0 -7.5 1.5t-6.5 2.5q-2 1 -3.5 1.5t-2.5 1.5q-3 1 -5 1.5t-4 1.5q-3 -1 -5.5 -4t-2.5 -8q0 -3 1.5 -6.5t3.5 -7.5q11 -14 41 -25.5t73 -12.5v0z" />
    <glyph glyph-name="asterisk" unicode="&#xea;" horiz-adv-x="476" 
d="M42 387h197v-35q-19 -2 -28 -17.5t-9 -36.5v-72q32 1 50.5 21.5t29.5 44.5q1 3 2.5 6t2.5 6q3 8 7.5 17t10.5 19q12 21 33 38.5t53 17.5h10q9 0 19.5 -1.5t22.5 -6.5v-125h-10h-35v3q0 14 -8.5 25t-22.5 13q-18 -2 -28 -13t-17 -24l-1.5 -1.5t-0.5 -1.5q-4 -6 -8 -13
t-10 -14t-14.5 -14t-19.5 -13v-5h2.5h2.5h2.5h2.5q43 0 80 -23t50 -57q3 -7 5.5 -15t4.5 -16q0 -1 0.5 -1.5t0.5 -1.5q6 -22 14.5 -40.5t30.5 -24.5v-34h-10q-2 1 -4 1h-4h-5h-4q-98 0 -123.5 26t-37.5 73q-1 4 -1.5 7.5t-1.5 6.5q-1 4 -2 7.5t-2 6.5q-7 28 -17.5 46.5
t-41.5 20.5h-2h-2q-1 -1 -2 -1h-2v-96q0 -21 8.5 -35.5t28.5 -19.5v-35h-10h-197v35q20 5 28.5 19.5t8.5 35.5v208q0 21 -9 36.5t-28 17.5v35h10v0z" />
    <glyph glyph-name="asterisk" unicode="&#x43a;" horiz-adv-x="476" 
d="M42 387h197v-35q-19 -2 -28 -17.5t-9 -36.5v-72q32 1 50.5 21.5t29.5 44.5q1 3 2.5 6t2.5 6q3 8 7.5 17t10.5 19q12 21 33 38.5t53 17.5h10q9 0 19.5 -1.5t22.5 -6.5v-125h-10h-35v3q0 14 -8.5 25t-22.5 13q-18 -2 -28 -13t-17 -24l-1.5 -1.5t-0.5 -1.5q-4 -6 -8 -13
t-10 -14t-14.5 -14t-19.5 -13v-5h2.5h2.5h2.5h2.5q43 0 80 -23t50 -57q3 -7 5.5 -15t4.5 -16q0 -1 0.5 -1.5t0.5 -1.5q6 -22 14.5 -40.5t30.5 -24.5v-34h-10q-2 1 -4 1h-4h-5h-4q-98 0 -123.5 26t-37.5 73q-1 4 -1.5 7.5t-1.5 6.5q-1 4 -2 7.5t-2 6.5q-7 28 -17.5 46.5
t-41.5 20.5h-2h-2q-1 -1 -2 -1h-2v-96q0 -21 8.5 -35.5t28.5 -19.5v-35h-10h-197v35q20 5 28.5 19.5t8.5 35.5v208q0 21 -9 36.5t-28 17.5v35h10v0z" />
    <glyph glyph-name="edieresis" unicode="&#xeb;" horiz-adv-x="469" 
d="M139 387h171l89 -289q6 -21 13.5 -33t14.5 -19q7 -6 14.5 -8.5t13.5 -2.5v-35h-10h-156l-65 256q-3 -10 -5.5 -19t-4.5 -16l-2 -6l-2 -6q-3 -8 -6 -17t-6 -20q-11 -34 -20.5 -61t-18.5 -48q-16 -38 -35 -54t-49 -16l-10 -1q-30 1 -47.5 15t-17.5 40t16 39.5t36 13.5h10
q8 0 14 -1.5t12 -2.5l6 -2l6 -2q12 3 20.5 20t15.5 37q4 10 6.5 20t5.5 18t7 20.5t9 27.5q2 6 3.5 12t3.5 12q5 18 8.5 34.5t3.5 28.5q0 20 -11 25t-28 5h-7.5h-7.5v35h10v0z" />
    <glyph glyph-name="edieresis" unicode="&#x43b;" horiz-adv-x="469" 
d="M139 387h171l89 -289q6 -21 13.5 -33t14.5 -19q7 -6 14.5 -8.5t13.5 -2.5v-35h-10h-156l-65 256q-3 -10 -5.5 -19t-4.5 -16l-2 -6l-2 -6q-3 -8 -6 -17t-6 -20q-11 -34 -20.5 -61t-18.5 -48q-16 -38 -35 -54t-49 -16l-10 -1q-30 1 -47.5 15t-17.5 40t16 39.5t36 13.5h10
q8 0 14 -1.5t12 -2.5l6 -2l6 -2q12 3 20.5 20t15.5 37q4 10 6.5 20t5.5 18t7 20.5t9 27.5q2 6 3.5 12t3.5 12q5 18 8.5 34.5t3.5 28.5q0 20 -11 25t-28 5h-7.5h-7.5v35h10v0z" />
    <glyph glyph-name="igrave" unicode="&#xec;" horiz-adv-x="585" 
d="M223 387l64 -194l68 194h10h188v-35q-15 -2 -22 -10t-10 -18q-3 -8 -3.5 -15.5t-0.5 -10.5v-208q0 -5 0.5 -11t1.5 -13q3 -10 10.5 -18.5t23.5 -12.5v-35h-10h-195v35q21 6 28.5 19.5t7.5 35.5v223l-109 -313h-10h-47l-100 310v-228q0 -21 8 -32.5t28 -14.5v-35h-10h-112
v35q21 3 28.5 15.5t7.5 31.5v235q0 19 -10 26.5t-26 8.5v35h10h181v0z" />
    <glyph glyph-name="igrave" unicode="&#x43c;" horiz-adv-x="585" 
d="M223 387l64 -194l68 194h10h188v-35q-15 -2 -22 -10t-10 -18q-3 -8 -3.5 -15.5t-0.5 -10.5v-208q0 -5 0.5 -11t1.5 -13q3 -10 10.5 -18.5t23.5 -12.5v-35h-10h-195v35q21 6 28.5 19.5t7.5 35.5v223l-109 -313h-10h-47l-100 310v-228q0 -21 8 -32.5t28 -14.5v-35h-10h-112
v35q21 3 28.5 15.5t7.5 31.5v235q0 19 -10 26.5t-26 8.5v35h10h181v0z" />
    <glyph glyph-name="ellipsis" unicode="&#xed;" 
d="M238 387v-35q-19 -2 -28 -17.5t-9 -36.5v-82h113v82q0 19 -8 35t-28 19v35h10h195v-35q-14 -2 -21.5 -10t-10.5 -18q-3 -8 -3.5 -15.5t-0.5 -10.5v-208q0 -5 0.5 -11t1.5 -13q3 -10 10.5 -18.5t23.5 -12.5v-35h-10h-195v35q20 5 28 19t8 36v86h-113v-86q0 -21 8.5 -35.5
t28.5 -19.5v-35h-10h-196v35q20 5 28 19t8 36v208q0 19 -8 35t-28 19v35h10h196v0z" />
    <glyph glyph-name="ellipsis" unicode="&#x43d;" 
d="M238 387v-35q-19 -2 -28 -17.5t-9 -36.5v-82h113v82q0 19 -8 35t-28 19v35h10h195v-35q-14 -2 -21.5 -10t-10.5 -18q-3 -8 -3.5 -15.5t-0.5 -10.5v-208q0 -5 0.5 -11t1.5 -13q3 -10 10.5 -18.5t23.5 -12.5v-35h-10h-195v35q20 5 28 19t8 36v86h-113v-86q0 -21 8.5 -35.5
t28.5 -19.5v-35h-10h-196v35q20 5 28 19t8 36v208q0 19 -8 35t-28 19v35h10h196v0z" />
    <glyph glyph-name="percent" unicode="&#xee;" horiz-adv-x="468" 
d="M229 -8q-82 1 -141.5 53.5t-59.5 149.5q0 92 58.5 146t142.5 54h10q80 0 140.5 -53t60.5 -147q0 -98 -60.5 -150t-140.5 -52l-10 -1v0zM234 32q45 2 52.5 41t6.5 99v11v12v12v11q1 59 -6.5 97t-52.5 40q-45 -2 -52.5 -40t-6.5 -97v-11v-12v-12v-11q-1 -60 6.5 -99
t52.5 -41v0z" />
    <glyph glyph-name="percent" unicode="&#x43e;" horiz-adv-x="468" 
d="M229 -8q-82 1 -141.5 53.5t-59.5 149.5q0 92 58.5 146t142.5 54h10q80 0 140.5 -53t60.5 -147q0 -98 -60.5 -150t-140.5 -52l-10 -1v0zM234 32q45 2 52.5 41t6.5 99v11v12v12v11q1 59 -6.5 97t-52.5 40q-45 -2 -52.5 -40t-6.5 -97v-11v-12v-12v-11q-1 -60 6.5 -99
t52.5 -41v0z" />
    <glyph glyph-name="C" unicode="&#xef;" 
d="M42 387h441v-35q-14 -2 -21.5 -10t-10.5 -18q-3 -8 -3.5 -15.5t-0.5 -10.5v-208q0 -5 0.5 -11t1.5 -13q3 -10 10.5 -18.5t23.5 -12.5v-35h-10h-195v35q20 5 28 19t8 36v257h-113v-257q0 -21 8.5 -35.5t28.5 -19.5v-35h-10h-196v35q20 5 28 19t8 36v208q0 19 -8 35t-28 19
v35h10v0z" />
    <glyph glyph-name="C" unicode="&#x43f;" 
d="M42 387h441v-35q-14 -2 -21.5 -10t-10.5 -18q-3 -8 -3.5 -15.5t-0.5 -10.5v-208q0 -5 0.5 -11t1.5 -13q3 -10 10.5 -18.5t23.5 -12.5v-35h-10h-195v35q20 5 28 19t8 36v257h-113v-257q0 -21 8.5 -35.5t28.5 -19.5v-35h-10h-196v35q20 5 28 19t8 36v208q0 19 -8 35t-28 19
v35h10v0z" />
    <glyph glyph-name="eth" unicode="&#xf0;" horiz-adv-x="543" 
d="M32 -197v35q18 3 26.5 11t12.5 18q2 6 2.5 11.5t0.5 9.5v317q0 86 45 127t99 54q19 5 37.5 7t35.5 2h10q86 0 150 -49.5t64 -146.5q0 -93 -53.5 -146t-126.5 -53h-10q-22 0 -53 5t-65 24v-142q0 -1 0.5 -3.5t0.5 -5.5q2 -8 6 -15t10 -12l4 -3q1 0 2.5 -1.5t4.5 -2.5
t6.5 -2.5t9.5 -2.5v-36h-10h-209v0zM207 266v-143q0 -32 25.5 -51t57.5 -21q51 2 64.5 44.5t13.5 106.5q0 56 -11.5 103.5t-70.5 49.5q-5 0 -10.5 -1t-10.5 -3q-22 -6 -40 -26t-18 -59v0z" />
    <glyph glyph-name="eth" unicode="&#x440;" horiz-adv-x="543" 
d="M32 -197v35q18 3 26.5 11t12.5 18q2 6 2.5 11.5t0.5 9.5v317q0 86 45 127t99 54q19 5 37.5 7t35.5 2h10q86 0 150 -49.5t64 -146.5q0 -93 -53.5 -146t-126.5 -53h-10q-22 0 -53 5t-65 24v-142q0 -1 0.5 -3.5t0.5 -5.5q2 -8 6 -15t10 -12l4 -3q1 0 2.5 -1.5t4.5 -2.5
t6.5 -2.5t9.5 -2.5v-36h-10h-209v0zM207 266v-143q0 -32 25.5 -51t57.5 -21q51 2 64.5 44.5t13.5 106.5q0 56 -11.5 103.5t-70.5 49.5q-5 0 -10.5 -1t-10.5 -3q-22 -6 -40 -26t-18 -59v0z" />
    <glyph glyph-name="quotedblleft" unicode="&#xf1;" horiz-adv-x="413" 
d="M362 99l27 -24q-7 -9 -14.5 -16t-15.5 -14q-43 -36 -82 -44t-60 -8l-10 -1q-88 1 -133.5 59t-45.5 140q0 97 58 148t127 56h7.5h6.5h10q63 0 100.5 -28t37.5 -62q0 -21 -11 -32t-25 -14q-3 -1 -6.5 -1.5t-6.5 -0.5h-10q-22 0 -34 10t-17 22q-4 9 -5.5 17t-1.5 12
q0 3 -1 7.5t-2 9.5q-3 7 -8.5 13.5t-17.5 7.5q-38 -4 -46 -52.5t-8 -106.5v-2.5v-3.5v-46q0 -47 21 -71.5t54 -26.5q29 2 56 17.5t46 34.5h10v0z" />
    <glyph glyph-name="quotedblleft" unicode="&#x441;" horiz-adv-x="413" 
d="M362 99l27 -24q-7 -9 -14.5 -16t-15.5 -14q-43 -36 -82 -44t-60 -8l-10 -1q-88 1 -133.5 59t-45.5 140q0 97 58 148t127 56h7.5h6.5h10q63 0 100.5 -28t37.5 -62q0 -21 -11 -32t-25 -14q-3 -1 -6.5 -1.5t-6.5 -0.5h-10q-22 0 -34 10t-17 22q-4 9 -5.5 17t-1.5 12
q0 3 -1 7.5t-2 9.5q-3 7 -8.5 13.5t-17.5 7.5q-38 -4 -46 -52.5t-8 -106.5v-2.5v-3.5v-46q0 -47 21 -71.5t54 -26.5q29 2 56 17.5t46 34.5h10v0z" />
    <glyph glyph-name="two" unicode="&#xf2;" horiz-adv-x="415" 
d="M24 387h377v-133h-10h-32q-7 47 -31.5 67.5t-53.5 24.5v-256q0 -5 0.5 -11t1.5 -13q3 -10 10.5 -18.5t23.5 -12.5v-35h-10h-195v35q20 5 28 19t8 36v256q-28 -4 -52.5 -24.5t-32.5 -67.5h-10h-32v133h10v0z" />
    <glyph glyph-name="two" unicode="&#x442;" horiz-adv-x="415" 
d="M24 387h377v-133h-10h-32q-7 47 -31.5 67.5t-53.5 24.5v-256q0 -5 0.5 -11t1.5 -13q3 -10 10.5 -18.5t23.5 -12.5v-35h-10h-195v35q20 5 28 19t8 36v256q-28 -4 -52.5 -24.5t-32.5 -67.5h-10h-32v133h10v0z" />
    <glyph glyph-name="three" unicode="&#xf3;" horiz-adv-x="450" 
d="M457 387v-35h-6q-7 0 -13.5 -2t-12.5 -7q-10 -8 -21 -24t-23 -42l-179 -368q-4 -6 -7.5 -13t-6.5 -14q-18 -35 -39.5 -56t-59.5 -22l-10 -1h-5q-36 1 -55 21.5t-19 45.5v3.5v3.5q3 17 15.5 30.5t38.5 13.5l10 -1q17 1 26.5 -3.5t16.5 -10.5q2 -1 3 -2l2 -2l10 -6t12 -4
q7 2 12 9t9 15q2 4 4 7.5t3 6.5l33 65l-125 297q-7 18 -15 29t-16 18q-9 7 -16.5 9.5t-15.5 3.5v35h10h231v-35h-3q-17 0 -24 -5.5t-10 -11.5q0 -3 -0.5 -5.5t-0.5 -4.5v-2.5v-2.5q1 -5 2.5 -9t3.5 -8q1 -3 2 -5.5t2 -4.5l54 -136l63 127q1 1 2.5 5t2.5 9q1 4 2 7.5t2 7.5
t1.5 8t0.5 7q0 2 -0.5 3.5t-0.5 3.5q-3 6 -11.5 11.5t-24.5 5.5h-3v35h10h139v0z" />
    <glyph glyph-name="three" unicode="&#x443;" horiz-adv-x="450" 
d="M457 387v-35h-6q-7 0 -13.5 -2t-12.5 -7q-10 -8 -21 -24t-23 -42l-179 -368q-4 -6 -7.5 -13t-6.5 -14q-18 -35 -39.5 -56t-59.5 -22l-10 -1h-5q-36 1 -55 21.5t-19 45.5v3.5v3.5q3 17 15.5 30.5t38.5 13.5l10 -1q17 1 26.5 -3.5t16.5 -10.5q2 -1 3 -2l2 -2l10 -6t12 -4
q7 2 12 9t9 15q2 4 4 7.5t3 6.5l33 65l-125 297q-7 18 -15 29t-16 18q-9 7 -16.5 9.5t-15.5 3.5v35h10h231v-35h-3q-17 0 -24 -5.5t-10 -11.5q0 -3 -0.5 -5.5t-0.5 -4.5v-2.5v-2.5q1 -5 2.5 -9t3.5 -8q1 -3 2 -5.5t2 -4.5l54 -136l63 127q1 1 2.5 5t2.5 9q1 4 2 7.5t2 7.5
t1.5 8t0.5 7q0 2 -0.5 3.5t-0.5 3.5q-3 6 -11.5 11.5t-24.5 5.5h-3v35h10h139v0z" />
    <glyph glyph-name="ocircumflex" unicode="&#xf4;" horiz-adv-x="663" 
d="M239 495h195v-35q-19 -3 -27.5 -19t-8.5 -35v-37q25 19 48 22.5t36 3.5h10q74 0 108.5 -62t34.5 -140q0 -94 -34 -139.5t-75 -55.5q-9 -3 -17.5 -4t-16.5 -1l-10 -1q-25 1 -46 10t-38 27v-136q0 -3 0.5 -7.5t0.5 -8.5q2 -12 9.5 -23t25.5 -15v-36h-10h-195v35
q18 5 25.5 16t9.5 23q0 4 0.5 8.5t0.5 8.5v135q-17 -18 -37.5 -27t-46.5 -9l-10 -1q-8 1 -16.5 2t-17.5 4q-41 10 -75 55.5t-34 139.5q0 78 35 140t108 62h10q14 0 36.5 -3.5t47.5 -22.5v37q0 19 -8 35t-28 19v35h10v0zM267 119v150q0 31 -10 46.5t-22 20.5q-4 2 -8 3t-7 1
q-31 -3 -38 -33t-7 -65v-94q0 -36 7 -65t35 -31q2 0 4.5 0.5t4.5 0.5q15 4 28 18.5t13 47.5v0zM396 269v-150q0 -33 13 -47.5t28 -18.5q2 0 4.5 -0.5t4.5 -0.5q29 2 35.5 31t6.5 65v94q0 35 -7 65t-38 33q-3 0 -7 -1t-8 -3q-12 -5 -22 -20.5t-10 -46.5v0z" />
    <glyph glyph-name="ocircumflex" unicode="&#x444;" horiz-adv-x="663" 
d="M239 495h195v-35q-19 -3 -27.5 -19t-8.5 -35v-37q25 19 48 22.5t36 3.5h10q74 0 108.5 -62t34.5 -140q0 -94 -34 -139.5t-75 -55.5q-9 -3 -17.5 -4t-16.5 -1l-10 -1q-25 1 -46 10t-38 27v-136q0 -3 0.5 -7.5t0.5 -8.5q2 -12 9.5 -23t25.5 -15v-36h-10h-195v35
q18 5 25.5 16t9.5 23q0 4 0.5 8.5t0.5 8.5v135q-17 -18 -37.5 -27t-46.5 -9l-10 -1q-8 1 -16.5 2t-17.5 4q-41 10 -75 55.5t-34 139.5q0 78 35 140t108 62h10q14 0 36.5 -3.5t47.5 -22.5v37q0 19 -8 35t-28 19v35h10v0zM267 119v150q0 31 -10 46.5t-22 20.5q-4 2 -8 3t-7 1
q-31 -3 -38 -33t-7 -65v-94q0 -36 7 -65t35 -31q2 0 4.5 0.5t4.5 0.5q15 4 28 18.5t13 47.5v0zM396 269v-150q0 -33 13 -47.5t28 -18.5q2 0 4.5 -0.5t4.5 -0.5q29 2 35.5 31t6.5 65v94q0 35 -7 65t-38 33q-3 0 -7 -1t-8 -3q-12 -5 -22 -20.5t-10 -46.5v0z" />
    <glyph glyph-name="otilde" unicode="&#xf5;" horiz-adv-x="491" 
d="M42 387h219v-35h-3q-12 0 -17 -5.5t-6 -11.5q-1 -2 -1 -3.5v-3.5q0 -1 3 -9t13 -24l22 -31l24 30q3 4 6.5 8t5.5 8t3.5 8t1.5 8q0 11 -9 18t-23 8v35h10h143v-35q-13 -2 -30 -12.5t-43 -41.5l-62 -74l110 -153q2 -3 5.5 -7.5t8.5 -8.5q5 -6 14 -11.5t22 -8.5v-35h-10
h-221v35h4q2 0 4 0.5t5 0.5q5 2 10 7t5 15q0 5 -3 14.5t-15 26.5l-30 42l-32 -38q-2 -2 -3.5 -4.5t-3.5 -5.5q-3 -3 -5 -7l-4 -8t-3.5 -8.5t-1.5 -8.5q0 -12 8.5 -18t21.5 -8v-35h-10h-142v35q7 3 10 3.5t5 1.5h0.5t0.5 1q1 0 2 0.5t2 1.5q8 5 12.5 8t7.5 6l2 2l2 2
q2 2 4.5 5t6.5 7l6 8q2 2 4 3.5t3 3.5l78 93l-85 119q-9 12 -16.5 21.5t-14.5 16.5q-7 6 -14.5 9.5t-16.5 4.5v35h10v0z" />
    <glyph glyph-name="otilde" unicode="&#x445;" horiz-adv-x="491" 
d="M42 387h219v-35h-3q-12 0 -17 -5.5t-6 -11.5q-1 -2 -1 -3.5v-3.5q0 -1 3 -9t13 -24l22 -31l24 30q3 4 6.5 8t5.5 8t3.5 8t1.5 8q0 11 -9 18t-23 8v35h10h143v-35q-13 -2 -30 -12.5t-43 -41.5l-62 -74l110 -153q2 -3 5.5 -7.5t8.5 -8.5q5 -6 14 -11.5t22 -8.5v-35h-10
h-221v35h4q2 0 4 0.5t5 0.5q5 2 10 7t5 15q0 5 -3 14.5t-15 26.5l-30 42l-32 -38q-2 -2 -3.5 -4.5t-3.5 -5.5q-3 -3 -5 -7l-4 -8t-3.5 -8.5t-1.5 -8.5q0 -12 8.5 -18t21.5 -8v-35h-10h-142v35q7 3 10 3.5t5 1.5h0.5t0.5 1q1 0 2 0.5t2 1.5q8 5 12.5 8t7.5 6l2 2l2 2
q2 2 4.5 5t6.5 7l6 8q2 2 4 3.5t3 3.5l78 93l-85 119q-9 12 -16.5 21.5t-14.5 16.5q-7 6 -14.5 9.5t-16.5 4.5v35h10v0z" />
    <glyph glyph-name="odieresis" unicode="&#xf6;" horiz-adv-x="514" 
d="M32 0v35q20 5 28.5 19.5t8.5 35.5v208q0 21 -9 36.5t-28 17.5v35h10h196v-35q-19 -3 -27.5 -19t-8.5 -35v-258h113v258q0 19 -8 35t-28 19v35h10h196v-35q-19 -2 -28 -17.5t-9 -36.5v-216q0 -21 3.5 -30t10.5 -17q2 -2 4.5 -4t4.5 -4t4.5 -4t4.5 -4q17 -16 31 -37t14 -51
q0 -51 -40 -84.5t-108 -33.5l-10 -1q-30 1 -54.5 10t-42.5 20q-10 5 -17.5 10.5t-13.5 9.5l-10.5 7t-17.5 11q-5 3 -10.5 5.5t-10.5 5.5q-7 3 -13.5 5t-12.5 3q-9 -1 -14 -6t-6 -11q-1 -1 -1 -2.5v-2.5q0 -4 2 -5.5t6 -2.5q1 0 2 -0.5t2 -0.5q11 -2 18 -9t7 -18v-2v-3
q-2 -8 -8.5 -15.5t-19.5 -7.5l-10 -1q-21 1 -34 15t-13 35q0 37 38 61t85 24l10 -1q34 1 61.5 -9t53.5 -23q4 -1 7.5 -3t7.5 -4q20 -9 37 -17t33 -9h2.5t2.5 1q16 3 29.5 17t13.5 38q0 30 -15 43t-33 18q-10 2 -18.5 2h-15.5h-362v0z" />
    <glyph glyph-name="odieresis" unicode="&#x446;" horiz-adv-x="514" 
d="M32 0v35q20 5 28.5 19.5t8.5 35.5v208q0 21 -9 36.5t-28 17.5v35h10h196v-35q-19 -3 -27.5 -19t-8.5 -35v-258h113v258q0 19 -8 35t-28 19v35h10h196v-35q-19 -2 -28 -17.5t-9 -36.5v-216q0 -21 3.5 -30t10.5 -17q2 -2 4.5 -4t4.5 -4t4.5 -4t4.5 -4q17 -16 31 -37t14 -51
q0 -51 -40 -84.5t-108 -33.5l-10 -1q-30 1 -54.5 10t-42.5 20q-10 5 -17.5 10.5t-13.5 9.5l-10.5 7t-17.5 11q-5 3 -10.5 5.5t-10.5 5.5q-7 3 -13.5 5t-12.5 3q-9 -1 -14 -6t-6 -11q-1 -1 -1 -2.5v-2.5q0 -4 2 -5.5t6 -2.5q1 0 2 -0.5t2 -0.5q11 -2 18 -9t7 -18v-2v-3
q-2 -8 -8.5 -15.5t-19.5 -7.5l-10 -1q-21 1 -34 15t-13 35q0 37 38 61t85 24l10 -1q34 1 61.5 -9t53.5 -23q4 -1 7.5 -3t7.5 -4q20 -9 37 -17t33 -9h2.5t2.5 1q16 3 29.5 17t13.5 38q0 30 -15 43t-33 18q-10 2 -18.5 2h-15.5h-362v0z" />
    <glyph glyph-name="divide" unicode="&#xf7;" horiz-adv-x="505" 
d="M38 387h195v-35q-14 -2 -21.5 -10t-10.5 -18q-3 -8 -3.5 -15.5t-0.5 -10.5v-65q0 -31 8.5 -42t27.5 -12q8 0 16 1t17 3q10 1 20 3.5l18 4.5v107q0 21 -9 36.5t-28 17.5v35h10h196v-35q-19 -3 -27.5 -19t-8.5 -35v-208q0 -22 8.5 -36t27.5 -19v-35h-10h-196v35
q20 5 28.5 19.5t8.5 35.5v58h-1q-31 -7 -61.5 -11.5t-60.5 -6.5q-4 -1 -8.5 -1h-9.5h-10q-37 0 -55.5 17t-25.5 37q-6 16 -7 30.5t-1 20.5v64q0 19 -8 35t-28 19v35h10v0z" />
    <glyph glyph-name="divide" unicode="&#x447;" horiz-adv-x="505" 
d="M38 387h195v-35q-14 -2 -21.5 -10t-10.5 -18q-3 -8 -3.5 -15.5t-0.5 -10.5v-65q0 -31 8.5 -42t27.5 -12q8 0 16 1t17 3q10 1 20 3.5l18 4.5v107q0 21 -9 36.5t-28 17.5v35h10h196v-35q-19 -3 -27.5 -19t-8.5 -35v-208q0 -22 8.5 -36t27.5 -19v-35h-10h-196v35
q20 5 28.5 19.5t8.5 35.5v58h-1q-31 -7 -61.5 -11.5t-60.5 -6.5q-4 -1 -8.5 -1h-9.5h-10q-37 0 -55.5 17t-25.5 37q-6 16 -7 30.5t-1 20.5v64q0 19 -8 35t-28 19v35h10v0z" />
    <glyph glyph-name="oslash" unicode="&#xf8;" horiz-adv-x="761" 
d="M42 387h195v-35q-14 -2 -21.5 -10t-10.5 -18q-3 -8 -3.5 -15.5t-0.5 -10.5v-258h113v258q0 21 -9.5 36.5t-26.5 17.5v35h10h195v-35q-14 -2 -21.5 -10t-10.5 -18q-3 -8 -3.5 -15.5t-0.5 -10.5v-258h113v258v6.5t-1 7.5q-2 14 -9.5 26t-25.5 14v35h10h195v-35
q-15 -2 -22 -10t-10 -18q-3 -8 -3.5 -15.5t-0.5 -10.5v-208q0 -5 0.5 -11t1.5 -13q3 -10 10.5 -18.5t23.5 -12.5v-35h-10h-687v35q17 3 26.5 16.5t9.5 38.5v208q0 21 -9.5 36.5t-26.5 17.5v35h10v0z" />
    <glyph glyph-name="oslash" unicode="&#x448;" horiz-adv-x="761" 
d="M42 387h195v-35q-14 -2 -21.5 -10t-10.5 -18q-3 -8 -3.5 -15.5t-0.5 -10.5v-258h113v258q0 21 -9.5 36.5t-26.5 17.5v35h10h195v-35q-14 -2 -21.5 -10t-10.5 -18q-3 -8 -3.5 -15.5t-0.5 -10.5v-258h113v258v6.5t-1 7.5q-2 14 -9.5 26t-25.5 14v35h10h195v-35
q-15 -2 -22 -10t-10 -18q-3 -8 -3.5 -15.5t-0.5 -10.5v-208q0 -5 0.5 -11t1.5 -13q3 -10 10.5 -18.5t23.5 -12.5v-35h-10h-687v35q17 3 26.5 16.5t9.5 38.5v208q0 21 -9.5 36.5t-26.5 17.5v35h10v0z" />
    <glyph glyph-name="question" unicode="&#xf9;" horiz-adv-x="759" 
d="M42 387h196v-35q-19 -3 -27.5 -19t-8.5 -35v-258h113v258q0 19 -8 35t-28 19v35h10h196v-35q-19 -2 -28 -17.5t-9 -36.5v-258h113v258q0 21 -9.5 36.5t-26.5 17.5v35h10h195v-35q-14 -2 -21.5 -10t-10.5 -18q-3 -8 -3.5 -15.5t-0.5 -10.5v-208q0 -26 3 -37.5t12 -20.5
q3 -4 7.5 -7.5t9.5 -8.5q3 -3 5.5 -5t5.5 -5q15 -13 24 -28.5t9 -40.5q0 -48 -31 -73.5t-68 -36.5q-19 -5 -37.5 -7.5t-32.5 -2.5l-10 -1q-41 1 -78.5 11t-67.5 22q-16 7 -28.5 12.5t-22.5 10.5q-29 14 -47 20t-31 8q-10 -1 -17 -6t-9 -10v-1.5v-1.5q0 -3 2.5 -5t4.5 -3
t3.5 -1.5t2.5 -0.5q11 -2 17 -8.5t7 -14.5v-1.5v-1.5v-2v-3q-2 -8 -9 -15.5t-21 -7.5l-10 -1q-2 1 -3.5 1t-3.5 1q-13 2 -23.5 14t-10.5 32v4t1 4q3 28 33.5 51.5t89.5 23.5l10 -1q46 1 86.5 -8.5t72.5 -21.5q3 -1 6.5 -2.5t6.5 -2.5q5 -2 11 -4.5t13 -4.5q19 -7 41 -12.5
t45 -6.5q26 1 43 14.5t17 36.5q0 28 -15.5 42t-34.5 19q-14 4 -26.5 4.5t-18.5 0.5h-595v35q20 5 28.5 19.5t8.5 35.5v208q0 21 -9 36.5t-28 17.5v35h10v0z" />
    <glyph glyph-name="question" unicode="&#x449;" horiz-adv-x="759" 
d="M42 387h196v-35q-19 -3 -27.5 -19t-8.5 -35v-258h113v258q0 19 -8 35t-28 19v35h10h196v-35q-19 -2 -28 -17.5t-9 -36.5v-258h113v258q0 21 -9.5 36.5t-26.5 17.5v35h10h195v-35q-14 -2 -21.5 -10t-10.5 -18q-3 -8 -3.5 -15.5t-0.5 -10.5v-208q0 -26 3 -37.5t12 -20.5
q3 -4 7.5 -7.5t9.5 -8.5q3 -3 5.5 -5t5.5 -5q15 -13 24 -28.5t9 -40.5q0 -48 -31 -73.5t-68 -36.5q-19 -5 -37.5 -7.5t-32.5 -2.5l-10 -1q-41 1 -78.5 11t-67.5 22q-16 7 -28.5 12.5t-22.5 10.5q-29 14 -47 20t-31 8q-10 -1 -17 -6t-9 -10v-1.5v-1.5q0 -3 2.5 -5t4.5 -3
t3.5 -1.5t2.5 -0.5q11 -2 17 -8.5t7 -14.5v-1.5v-1.5v-2v-3q-2 -8 -9 -15.5t-21 -7.5l-10 -1q-2 1 -3.5 1t-3.5 1q-13 2 -23.5 14t-10.5 32v4t1 4q3 28 33.5 51.5t89.5 23.5l10 -1q46 1 86.5 -8.5t72.5 -21.5q3 -1 6.5 -2.5t6.5 -2.5q5 -2 11 -4.5t13 -4.5q19 -7 41 -12.5
t45 -6.5q26 1 43 14.5t17 36.5q0 28 -15.5 42t-34.5 19q-14 4 -26.5 4.5t-18.5 0.5h-595v35q20 5 28.5 19.5t8.5 35.5v208q0 21 -9 36.5t-28 17.5v35h10v0z" />
    <glyph glyph-name="A" unicode="&#xfa;" horiz-adv-x="561" 
d="M32 253v134h10h289v-35q-18 -3 -25 -13t-10 -22q-1 -5 -1 -10v-9v-35q4 3 8.5 5.5t8.5 4.5q22 10 41.5 12t27.5 2h10q6 0 11.5 -0.5t11.5 -1.5q45 -8 82 -45t37 -101q0 -60 -31.5 -89t-69.5 -40q-24 -7 -47 -8.5t-37 -1.5h-10h-212v35q20 5 28 19t8 36v254
q-30 -4 -47 -19t-25 -32q-6 -11 -9 -21.5t-4 -18.5h-10h-35v0zM295 207v-167h19h0.5h1.5h7.5h6.5q21 2 38.5 17.5t17.5 73.5q0 38 -6.5 66.5t-40.5 30.5q-5 0 -12 -1.5t-14 -5.5q-5 -2 -9.5 -5.5t-8.5 -8.5v0z" />
    <glyph glyph-name="A" unicode="&#x44a;" horiz-adv-x="561" 
d="M32 253v134h10h289v-35q-18 -3 -25 -13t-10 -22q-1 -5 -1 -10v-9v-35q4 3 8.5 5.5t8.5 4.5q22 10 41.5 12t27.5 2h10q6 0 11.5 -0.5t11.5 -1.5q45 -8 82 -45t37 -101q0 -60 -31.5 -89t-69.5 -40q-24 -7 -47 -8.5t-37 -1.5h-10h-212v35q20 5 28 19t8 36v254
q-30 -4 -47 -19t-25 -32q-6 -11 -9 -21.5t-4 -18.5h-10h-35v0zM295 207v-167h19h0.5h1.5h7.5h6.5q21 2 38.5 17.5t17.5 73.5q0 38 -6.5 66.5t-40.5 30.5q-5 0 -12 -1.5t-14 -5.5q-5 -2 -9.5 -5.5t-8.5 -8.5v0z" />
    <glyph glyph-name="slash" unicode="&#xfb;" horiz-adv-x="696" 
d="M240 387v-35q-16 -2 -23.5 -10.5t-10.5 -18.5q-1 -5 -1.5 -10t-0.5 -9v-6v-35q4 3 8.5 5.5t8.5 4.5q22 10 41.5 12t27.5 2h10q6 0 11.5 -0.5t11.5 -1.5q45 -8 82 -45t37 -101q0 -63 -33.5 -92t-73.5 -39q-21 -5 -42 -6.5t-36 -1.5h-10h-212v35q20 5 28 19t8 36v208v3v4v4
q-2 15 -10.5 27.5t-26.5 15.5v35h10h196v0zM204 207v-167h0.5h0.5h0.5h0.5q62 0 75.5 20.5t13.5 70.5q0 38 -6.5 66.5t-40.5 30.5q-5 0 -12 -1.5t-14 -5.5q-5 -2 -9.5 -5.5t-8.5 -8.5v0zM662 387v-35q-19 -2 -28 -17.5t-9 -36.5v-208q0 -21 8.5 -35.5t28.5 -19.5v-35h-10
h-197v35q20 5 28.5 19.5t8.5 35.5v208q0 21 -9 36.5t-28 17.5v35h10h197v0z" />
    <glyph glyph-name="slash" unicode="&#x44b;" horiz-adv-x="696" 
d="M240 387v-35q-16 -2 -23.5 -10.5t-10.5 -18.5q-1 -5 -1.5 -10t-0.5 -9v-6v-35q4 3 8.5 5.5t8.5 4.5q22 10 41.5 12t27.5 2h10q6 0 11.5 -0.5t11.5 -1.5q45 -8 82 -45t37 -101q0 -63 -33.5 -92t-73.5 -39q-21 -5 -42 -6.5t-36 -1.5h-10h-212v35q20 5 28 19t8 36v208v3v4v4
q-2 15 -10.5 27.5t-26.5 15.5v35h10h196v0zM204 207v-167h0.5h0.5h0.5h0.5q62 0 75.5 20.5t13.5 70.5q0 38 -6.5 66.5t-40.5 30.5q-5 0 -12 -1.5t-14 -5.5q-5 -2 -9.5 -5.5t-8.5 -8.5v0zM662 387v-35q-19 -2 -28 -17.5t-9 -36.5v-208q0 -21 8.5 -35.5t28.5 -19.5v-35h-10
h-197v35q20 5 28.5 19.5t8.5 35.5v208q0 21 -9 36.5t-28 17.5v35h10h197v0z" />
    <glyph glyph-name="udieresis" unicode="&#xfc;" horiz-adv-x="476" 
d="M240 387v-35q-16 -2 -23.5 -10.5t-10.5 -18.5q-1 -5 -1.5 -10t-0.5 -9v-6v-35q4 3 8.5 5.5t8.5 4.5q22 10 41.5 12t27.5 2h10q6 0 11.5 -0.5t11.5 -1.5q45 -8 82 -45t37 -101q0 -60 -31.5 -89t-69.5 -40q-24 -7 -47 -8.5t-37 -1.5h-10h-212v35q20 5 28 19t8 36v208v3v4v4
q-2 15 -10.5 27.5t-26.5 15.5v35h10h196v0zM204 207v-167h0.5h0.5h0.5h0.5q62 0 75.5 20.5t13.5 70.5q0 38 -6.5 66.5t-40.5 30.5q-5 0 -12 -1.5t-14 -5.5q-5 -2 -9.5 -5.5t-8.5 -8.5v0z" />
    <glyph glyph-name="udieresis" unicode="&#x44c;" horiz-adv-x="476" 
d="M240 387v-35q-16 -2 -23.5 -10.5t-10.5 -18.5q-1 -5 -1.5 -10t-0.5 -9v-6v-35q4 3 8.5 5.5t8.5 4.5q22 10 41.5 12t27.5 2h10q6 0 11.5 -0.5t11.5 -1.5q45 -8 82 -45t37 -101q0 -60 -31.5 -89t-69.5 -40q-24 -7 -47 -8.5t-37 -1.5h-10h-212v35q20 5 28 19t8 36v208v3v4v4
q-2 15 -10.5 27.5t-26.5 15.5v35h10h196v0zM204 207v-167h0.5h0.5h0.5h0.5q62 0 75.5 20.5t13.5 70.5q0 38 -6.5 66.5t-40.5 30.5q-5 0 -12 -1.5t-14 -5.5q-5 -2 -9.5 -5.5t-8.5 -8.5v0z" />
    <glyph glyph-name="period" unicode="&#xfd;" horiz-adv-x="415" 
d="M25 395h38q5 -7 11 -12.5t18 -6.5q19 0 27.5 3t15.5 6h0.5h0.5q7 4 17 7t34 3h10q71 0 128.5 -51t57.5 -142q0 -90 -56 -149.5t-152 -59.5l-10 -1l-22 2l-22 2q-45 6 -81.5 28.5t-36.5 67.5q0 26 16 39t35 15h2.5h2.5h10q24 0 36 -14t13 -30v-1.5v-1.5q0 -4 -0.5 -7
t-1.5 -5v-1.5v-1.5l-2 -8t-1 -11q0 -14 10 -21.5t23 -9.5q2 -1 5 -1.5t6 -0.5h1.5h1.5q28 3 52 33.5t24 113.5v3.5v3.5q-11 -14 -24.5 -22t-30.5 -8h-10q-9 0 -17 2.5t-16 6.5q-4 2 -8 4.5t-7 4.5q-4 3 -7 5l-6 4q-5 3 -9.5 5t-9.5 3q-2 0 -4 -1t-5 -2q-2 0 -3.5 -1t-3.5 -2
l-7 -3.5t-4 -2.5h-10l-14 23q1 1 2 1.5t2 1.5q20 16 42.5 29t47.5 13h10q14 0 24 -5t18 -10q2 -2 4 -3.5t4 -2.5q5 -4 10 -6.5t10 -3.5q1 0 2 0.5t2 1.5q6 3 11 12t5 25q0 47 -22 73.5t-57 27.5q-37 -2 -60 -27.5t-33 -55.5q-1 -2 -1.5 -3.5t-0.5 -2.5h-10h-35v128h10v0z
" />
    <glyph glyph-name="period" unicode="&#x44d;" horiz-adv-x="415" 
d="M25 395h38q5 -7 11 -12.5t18 -6.5q19 0 27.5 3t15.5 6h0.5h0.5q7 4 17 7t34 3h10q71 0 128.5 -51t57.5 -142q0 -90 -56 -149.5t-152 -59.5l-10 -1l-22 2l-22 2q-45 6 -81.5 28.5t-36.5 67.5q0 26 16 39t35 15h2.5h2.5h10q24 0 36 -14t13 -30v-1.5v-1.5q0 -4 -0.5 -7
t-1.5 -5v-1.5v-1.5l-2 -8t-1 -11q0 -14 10 -21.5t23 -9.5q2 -1 5 -1.5t6 -0.5h1.5h1.5q28 3 52 33.5t24 113.5v3.5v3.5q-11 -14 -24.5 -22t-30.5 -8h-10q-9 0 -17 2.5t-16 6.5q-4 2 -8 4.5t-7 4.5q-4 3 -7 5l-6 4q-5 3 -9.5 5t-9.5 3q-2 0 -4 -1t-5 -2q-2 0 -3.5 -1t-3.5 -2
l-7 -3.5t-4 -2.5h-10l-14 23q1 1 2 1.5t2 1.5q20 16 42.5 29t47.5 13h10q14 0 24 -5t18 -10q2 -2 4 -3.5t4 -2.5q5 -4 10 -6.5t10 -3.5q1 0 2 0.5t2 1.5q6 3 11 12t5 25q0 47 -22 73.5t-57 27.5q-37 -2 -60 -27.5t-33 -55.5q-1 -2 -1.5 -3.5t-0.5 -2.5h-10h-35v128h10v0z
" />
    <glyph glyph-name="thorn" unicode="&#xfe;" horiz-adv-x="690" 
d="M201 216h50q7 75 60.5 127t139.5 52h10q80 0 140.5 -53t60.5 -147q0 -98 -60.5 -150t-140.5 -52l-10 -1q-78 1 -137.5 49t-62.5 135h-50v-86q0 -5 0.5 -11t1.5 -13q3 -10 10.5 -18.5t23.5 -12.5v-35h-10h-195v35q20 5 28 19t8 36v208q0 19 -8 35t-28 19v35h10h195v-35
q-14 -2 -21.5 -10t-10.5 -18q-3 -8 -3.5 -15.5t-0.5 -10.5v-82v0zM456 32q45 2 52.5 41t6.5 99v11v12v12v11q1 59 -6.5 97t-52.5 40q-45 -2 -52.5 -40t-6.5 -97v-11v-12v-12v-11q-1 -60 6.5 -99t52.5 -41v0z" />
    <glyph glyph-name="thorn" unicode="&#x44e;" horiz-adv-x="690" 
d="M201 216h50q7 75 60.5 127t139.5 52h10q80 0 140.5 -53t60.5 -147q0 -98 -60.5 -150t-140.5 -52l-10 -1q-78 1 -137.5 49t-62.5 135h-50v-86q0 -5 0.5 -11t1.5 -13q3 -10 10.5 -18.5t23.5 -12.5v-35h-10h-195v35q20 5 28 19t8 36v208q0 19 -8 35t-28 19v35h10h195v-35
q-14 -2 -21.5 -10t-10.5 -18q-3 -8 -3.5 -15.5t-0.5 -10.5v-82v0zM456 32q45 2 52.5 41t6.5 99v11v12v12v11q1 59 -6.5 97t-52.5 40q-45 -2 -52.5 -40t-6.5 -97v-11v-12v-12v-11q-1 -60 6.5 -99t52.5 -41v0z" />
    <glyph glyph-name="ydieresis" unicode="&#xff;" horiz-adv-x="460" 
d="M428 387v-35q-19 -4 -27.5 -17.5t-8.5 -36.5v-208q0 -22 7.5 -35.5t28.5 -19.5v-35h-10h-195v35q16 4 23.5 12.5t10.5 18.5q1 7 1.5 13t0.5 11v75q-36 0 -51 -14.5t-21 -31.5q-2 -6 -3.5 -12.5t-2.5 -11.5q-1 -1 -1 -1.5v-1.5q-2 -8 -6 -19.5t-11 -23.5
q-13 -21 -38.5 -38.5t-69.5 -17.5l-10 -1q-4 1 -8 1t-8 1q-5 0 -10 1t-9 1q-3 1 -5.5 1.5t-4.5 0.5v35q13 1 19 10t9 20q1 4 2 7.5t1 7.5q1 0 1 0.5v1.5q8 38 29 58.5t44 30.5q11 4 22 6.5t20 3.5v6q-56 4 -83 21.5t-37 38.5q-6 12 -7.5 22.5t-1.5 19.5q0 55 36.5 75
t80.5 24q17 1 33 1h31h8h8h10h203v0zM259 348h-0.5h-0.5h-0.5h-0.5h-2h-2q-7 0 -19 -0.5t-24 -3.5q-20 -5 -36 -20t-16 -48q0 -46 30.5 -59t80.5 -12h-10v143v0z" />
    <glyph glyph-name="ydieresis" unicode="&#x44f;" horiz-adv-x="460" 
d="M428 387v-35q-19 -4 -27.5 -17.5t-8.5 -36.5v-208q0 -22 7.5 -35.5t28.5 -19.5v-35h-10h-195v35q16 4 23.5 12.5t10.5 18.5q1 7 1.5 13t0.5 11v75q-36 0 -51 -14.5t-21 -31.5q-2 -6 -3.5 -12.5t-2.5 -11.5q-1 -1 -1 -1.5v-1.5q-2 -8 -6 -19.5t-11 -23.5
q-13 -21 -38.5 -38.5t-69.5 -17.5l-10 -1q-4 1 -8 1t-8 1q-5 0 -10 1t-9 1q-3 1 -5.5 1.5t-4.5 0.5v35q13 1 19 10t9 20q1 4 2 7.5t1 7.5q1 0 1 0.5v1.5q8 38 29 58.5t44 30.5q11 4 22 6.5t20 3.5v6q-56 4 -83 21.5t-37 38.5q-6 12 -7.5 22.5t-1.5 19.5q0 55 36.5 75
t80.5 24q17 1 33 1h31h8h8h10h203v0zM259 348h-0.5h-0.5h-0.5h-0.5h-2h-2q-7 0 -19 -0.5t-24 -3.5q-20 -5 -36 -20t-16 -48q0 -46 30.5 -59t80.5 -12h-10v143v0z" />
    <glyph glyph-name="amacron" unicode="&#x101;" 
 />
    <glyph glyph-name="OE" unicode="&#x152;" horiz-adv-x="1161" 
d="M795 700v-36q-25 -3 -35 -15t-12 -26q-2 -6 -2 -12v-12v-0.5v-0.5v-184h89q158 0 219.5 -64t61.5 -143q0 -84 -64 -145.5t-185 -61.5h-10h-321v36q19 2 29 10.5t15 18.5q4 9 5 17t1 11v241h-337v-241q0 -22 9.5 -35.5t40.5 -21.5v-36h-10h-249v36q29 10 39 22t10 35v514
q0 22 -9 33.5t-20 16.5q-5 3 -10.5 4.5t-9.5 2.5v36h10h249v-36q-4 0 -9.5 -1.5t-10.5 -4.5q-11 -5 -20.5 -17t-9.5 -34v-220h337v211v0.5v0.5v12t-2 12q-2 14 -12 26t-35 15v36h10h248v0zM746 361v-308h52q57 0 99.5 29t42.5 120q0 68 -30 113.5t-113 45.5h-51v0z" />
    <glyph glyph-name="glyph258" unicode="&#x153;" horiz-adv-x="713" 
d="M483 387v-35q-16 -2 -23.5 -10.5t-10.5 -18.5q-1 -5 -1.5 -10t-0.5 -9v-6v-35q4 2 7.5 4.5t7.5 4.5q22 11 42 13t29 2h10q6 0 11.5 -0.5t11.5 -1.5q45 -8 82 -45t37 -101q0 -60 -31.5 -89t-69.5 -40q-24 -7 -47 -8.5t-37 -1.5h-10h-212v35q20 5 28 19t8 36v86h-113v-86
q0 -21 8.5 -35.5t28.5 -19.5v-35h-10h-196v35q20 5 28 19t8 36v208q0 19 -8 35t-28 19v35h10h196v-35q-19 -2 -28 -17.5t-9 -36.5v-82h113v82v3v4v4q-2 15 -10.5 27.5t-26.5 15.5v35h10h196v0zM447 207v-167h19h0.5h1.5h7.5h6.5q21 2 38.5 17.5t17.5 73.5q0 38 -6.5 66.5
t-40.5 30.5q-6 -1 -14 -3t-17 -7q-3 -2 -6.5 -5t-6.5 -6v0z" />
    <glyph glyph-name="perthousand" unicode="&#x160;" horiz-adv-x="992" 
d="M232 700h236l101 -294q23 5 44.5 7t41.5 2h10q148 0 215 -62t67 -146q0 -91 -70 -149t-167 -58h-10h-164l-179 524h-2q-8 -40 -19 -86.5t-23 -94.5q-17 -66 -37 -128t-40 -106q-5 -10 -10.5 -22t-13.5 -24q-17 -28 -44.5 -50.5t-72.5 -22.5l-10 -1q-38 1 -57 17t-25 36
q-2 5 -2.5 10t-0.5 10q0 29 18 47t46 18h10q8 0 15.5 -2t14.5 -5q3 -1 5.5 -2t4.5 -3h1h1q6 -3 12 -5.5t12 -3.5q8 1 14.5 6t13.5 13q14 19 29.5 59t36.5 108q4 15 13.5 45.5t19.5 68.5q3 12 6.5 24.5t6.5 25.5q9 39 16 76.5t7 62.5q0 5 -1 13.5t-4 17.5q-5 14 -20 26
t-46 12h-2.5h-2.5h-2.5h-2.5v36h10v0zM585 361l102 -300q41 10 63 47.5t25 79.5v7.5v6.5q0 86 -43.5 122.5t-122.5 37.5h-12t-12 -1v0z" />
    <glyph glyph-name="eight" unicode="&#x161;" horiz-adv-x="613" 
d="M139 387h171l34 -133q3 2 6 4.5t7 4.5q14 9 35 16.5t49 7.5h10q59 0 96.5 -41.5t37.5 -106.5q0 -60 -30 -89t-66 -40q-24 -7 -45.5 -8.5t-35.5 -1.5h-10h-109l-65 256q-3 -10 -5.5 -19t-4.5 -16l-2 -6l-2 -6q-3 -8 -6 -17t-6 -20q-11 -34 -20.5 -61t-18.5 -48
q-16 -38 -35 -54t-49 -16l-10 -1q-30 1 -47.5 15t-17.5 40t16 39.5t36 13.5h10q8 0 14 -1.5t12 -2.5l6 -2l6 -2q12 3 20.5 20t15.5 37q4 10 6.5 20t5.5 18t7 20.5t9 27.5q2 6 3.5 12t3.5 12q5 18 8.5 34.5t3.5 28.5q0 20 -11 25t-28 5h-7.5h-7.5v35h10v0zM354 212l43 -170
q21 7 29.5 23t11.5 33q1 9 1 17.5v15.5q0 38 -6.5 66.5t-40.5 30.5q-10 -1 -17.5 -3.5t-12.5 -5.5q-3 -2 -5 -4l-3 -3v0z" />
    <glyph glyph-name="greater" unicode="&#x192;" horiz-adv-x="379" 
d="M365 387v-135h-10h-35q-6 41 -23 60.5t-37 26.5q-14 6 -27 7t-22 1h-10v-257q0 -22 7.5 -36t28.5 -19v-35h-10h-195v35q16 4 23.5 12.5t10.5 18.5q1 7 1.5 13t0.5 11v208q0 3 -0.5 10.5t-3.5 15.5q-3 10 -10 18t-22 10v35h10h323v0z" />
    <glyph glyph-name="glyph237" unicode="&#x2c6;" horiz-adv-x="10" 
 />
    <glyph glyph-name="seven" unicode="&#x2dc;" horiz-adv-x="10" 
 />
    <glyph glyph-name="dollar" unicode="&#x2013;" horiz-adv-x="769" 
d="M70 292v79h10h619v-79h-10h-619v0z" />
    <glyph glyph-name="numbersign" unicode="&#x2014;" horiz-adv-x="1098" 
d="M70 158v79h10h948v-79h-10h-948v0z" />
    <glyph glyph-name="four" unicode="&#x2018;" horiz-adv-x="310" 
d="M220 711l19 -29q-37 -22 -56 -42.5t-28 -35.5l1 -4h4q35 0 57.5 -22.5t22.5 -54.5q0 -30 -20.5 -53.5t-56.5 -23.5h-10q-34 0 -58.5 23.5t-24.5 69.5q0 60 43 105t97 67h10v0z" />
    <glyph glyph-name="quoteright" unicode="&#x2019;" horiz-adv-x="310" 
d="M90 446l-19 29q37 23 56 43t28 35l-1 4h-4q-34 0 -57 22.5t-23 54.5q0 30 20.5 53.5t56.5 23.5h10q34 0 58.5 -23t24.5 -70q0 -60 -43 -105t-97 -67h-10v0z" />
    <glyph glyph-name="parenleft" unicode="&#x201a;" horiz-adv-x="310" 
d="M90 -119l-19 29q37 23 56 43.5t28 35.5l-1 3h-4q-34 1 -57 23.5t-23 53.5q0 30 20.5 53.5t56.5 23.5h10q34 0 58.5 -23t24.5 -70q0 -59 -43 -104t-97 -67l-10 -1v0z" />
    <glyph glyph-name="oe" unicode="&#x201c;" horiz-adv-x="525" 
d="M220 711l19 -29q-37 -22 -56 -42.5t-28 -35.5l1 -4h4q35 0 57.5 -22.5t22.5 -54.5q0 -30 -20.5 -53.5t-56.5 -23.5h-10q-34 0 -58.5 23.5t-24.5 69.5q0 60 43 105t97 67h10v0zM435 711l19 -29q-37 -22 -56 -42.5t-28 -35.5l1 -4h4q35 0 57.5 -22.5t22.5 -54.5
q0 -30 -20.5 -53.5t-56.5 -23.5h-10q-34 0 -58.5 23.5t-24.5 69.5q0 60 43 105t97 67h10v0z" />
    <glyph glyph-name="B" unicode="&#x201d;" horiz-adv-x="525" 
d="M90 446l-19 29q37 23 56 43t28 35l-1 4h-4q-34 0 -57 22.5t-23 54.5q0 30 20.5 53.5t56.5 23.5h10q34 0 58.5 -23t24.5 -70q0 -60 -43 -105t-97 -67h-10v0zM305 446l-19 29q37 23 56 43t28 35l-1 4h-4q-34 0 -57 22.5t-23 54.5q0 30 20.5 53.5t56.5 23.5h10
q34 0 58.5 -23t24.5 -70q0 -60 -43 -105t-97 -67h-10v0z" />
    <glyph glyph-name="quotedblbase" unicode="&#x201e;" horiz-adv-x="525" 
d="M90 -119l-19 29q37 23 56 43.5t28 35.5l-1 3h-4q-34 1 -57 23.5t-23 53.5q0 30 20.5 53.5t56.5 23.5h10q34 0 58.5 -23t24.5 -70q0 -59 -43 -104t-97 -67l-10 -1v0zM305 -119l-19 29q37 23 56 43.5t28 35.5l-1 3h-4q-34 1 -57 23.5t-23 53.5q0 30 20.5 53.5t56.5 23.5h10
q34 0 58.5 -23t24.5 -70q0 -59 -43 -104t-97 -67l-10 -1v0z" />
    <glyph glyph-name="glyph233" unicode="&#x2020;" horiz-adv-x="543" 
d="M274 711q32 -1 56 -21.5t29 -49.5q-15 -12 -25 -27t-16 -30q-8 -20 -10.5 -38.5t-2.5 -32.5v-6t1 -5v-4.5v-3.5q7 1 14.5 2t15.5 3q25 6 47.5 20t32.5 35h10q35 -6 53.5 -31t18.5 -54v-4t-1 -4q-3 -27 -24.5 -49t-46.5 -23h-10q-16 26 -46 43t-64 20q5 -46 20 -78.5
t43 -61.5q-15 -31 -24.5 -54t-15.5 -44q-6 -24 -9 -50t-5 -63q0 -5 -0.5 -10.5t-0.5 -10.5l-16 -274h-10h-47l-16 274q0 4 -0.5 7.5t-0.5 7.5q-2 39 -5 66.5t-10 52.5q-5 21 -14.5 44t-24.5 54q27 29 42.5 62t20.5 79q-34 -4 -63.5 -21t-46.5 -43h-10q-28 1 -49.5 25.5
t-21.5 54.5q0 31 18.5 55t52.5 30h10q9 -18 26 -30t35 -19q9 -4 18.5 -6t17.5 -4l13 -1v4t1 5v5v6q0 14 -2.5 32.5t-9.5 37.5q-6 15 -16.5 29.5t-25.5 27.5q5 31 30 50t54 21h10v0z" />
    <glyph glyph-name="glyph236" unicode="&#x2021;" horiz-adv-x="757" 
d="M654 127l33 -31q-36 -40 -79.5 -73t-98.5 -33l-10 -1q-44 1 -84.5 20.5t-78.5 43.5q-1 1 -2 1.5t-2 1.5h-1q-13 -16 -28 -28t-30 -19q-22 -11 -43 -15t-37 -4l-10 -1q-55 1 -82.5 25t-27.5 55q0 8 1.5 17t5.5 18q12 31 47.5 57t99.5 26h10h9.5t9.5 -1q10 -1 19.5 -2
t15.5 -3l2 1q-6 25 -15 46.5t-22 41.5q-10 17 -22.5 34t-26.5 37h-137v53h115q-5 12 -8.5 25t-5.5 26q-2 11 -3 21.5t-1 20.5q0 109 80.5 166.5t183.5 57.5h10q76 0 118 -27.5t53 -60.5q2 -5 3 -11t1 -12q0 -31 -18.5 -54.5t-50.5 -23.5h-10q-5 0 -11.5 1t-12.5 2
q-17 5 -32 20t-15 45q0 16 4.5 27t10.5 18q0 1 0.5 1.5l1.5 1.5v6q-2 1 -4.5 2t-4.5 2q-7 3 -15 6t-15 4q-3 0 -5 0.5t-4 0.5q-7 0 -15 -1.5t-16 -4.5q-29 -9 -53.5 -34.5t-24.5 -72.5q0 -29 7 -56.5t15 -49.5q6 -17 12 -29t8 -17h183v-53h-170q6 -19 10.5 -50.5t4.5 -73.5
q0 -21 -4.5 -38.5t-10.5 -34.5q5 -3 10.5 -6t11.5 -6q17 -8 36 -16t38 -15q21 -6 41 -10.5t37 -5.5q16 1 39.5 9t49.5 33h10v0zM280 86q-17 12 -39 21.5t-47 10.5q-27 -1 -40 -12.5t-17 -25.5q0 -3 -0.5 -5.5t-0.5 -5.5q0 -13 14 -23.5t36 -12.5q5 0 9.5 1t8.5 2
q21 5 40.5 18.5t35.5 31.5v0z" />
    <glyph glyph-name="glyph257" unicode="&#x2022;" horiz-adv-x="360" 
d="M70 325v4v4q3 36 31 66.5t74 30.5h10q46 0 74 -30.5t31 -66.5v-4v-4q0 -46 -32 -75.5t-70 -30.5h-1.5h-1.5h-10h-1.5h-1.5q-38 1 -70 30.5t-32 75.5v0z" />
    <glyph glyph-name="glyph232" unicode="&#x2026;" horiz-adv-x="892" 
d="M70 69v1.5v1.5q1 28 22 51t55 23h10q33 0 53.5 -21.5t23.5 -47.5v-4v-4v-4v-4q-3 -26 -23.5 -47t-53.5 -21l-10 -1q-34 1 -55 23.5t-22 50.5v1.5v1.5v0zM364 69v1.5v1.5q1 28 22 51t55 23h10q33 0 53.5 -21.5t23.5 -47.5v-4v-4v-4v-4q-3 -26 -23.5 -47t-53.5 -21l-10 -1
q-34 1 -55 23.5t-22 50.5v1.5v1.5v0zM658 69v1.5v1.5q1 28 22 51t55 23h10q33 0 53.5 -21.5t23.5 -47.5v-4v-4v-4v-4q-3 -26 -23.5 -47t-53.5 -21l-10 -1q-34 1 -55 23.5t-22 50.5v1.5v1.5v0z" />
    <glyph glyph-name="v" unicode="&#x2030;" horiz-adv-x="1435" 
d="M568 109q0 90 39.5 136t87.5 60q11 3 22 4.5t22 1.5h10q11 0 22 -1.5t22 -4.5q48 -14 87.5 -60.5t39.5 -135.5t-39.5 -135t-87.5 -60q-11 -3 -22 -4.5t-22 -1.5l-10 -1q-11 1 -22 2.5t-22 4.5q-48 14 -87.5 59.5t-39.5 135.5v0zM692 155v-92v-1.5v-1.5v-1.5v-1.5
q0 -41 7 -75.5t45 -36.5q40 2 46.5 35.5t6.5 82.5v92q0 51 -6.5 84t-46.5 35q-37 -2 -44.5 -35t-7.5 -84v0zM1013 109q0 90 39.5 136t87.5 60q11 3 22 4.5t22 1.5h10q11 0 22 -1.5t22 -4.5q48 -14 87.5 -60.5t39.5 -135.5t-39.5 -135t-87.5 -60q-11 -3 -22 -4.5t-22 -1.5
l-10 -1q-11 1 -22 2.5t-22 4.5q-48 14 -87.5 59.5t-39.5 135.5v0zM1136 155v-92v-2.5v-3.5v-4v-4q0 -38 7.5 -69.5t45.5 -34.5q38 2 45 35.5t7 82.5v92q0 52 -6.5 84.5t-45.5 34.5q-39 -2 -46 -35.5t-7 -83.5v0zM289 -69l334 779h10l49 -21l-336 -778h-10l-47 20v0zM70 596
q0 93 49.5 147.5t121.5 54.5h10q72 0 121.5 -55t49.5 -147q0 -94 -49.5 -148t-121.5 -54h-10q-72 0 -121.5 54t-49.5 148v0zM194 642v-92v-1.5v-1.5v-6.5v-6.5q0 -38 8 -69.5t44 -34.5q40 3 46.5 38t6.5 82v92q0 49 -6.5 83t-46.5 36q-37 -2 -44.5 -36t-7.5 -83v0z" />
    <glyph glyph-name="glyph243" unicode="&#x2039;" horiz-adv-x="350" 
d="M231 16l-161 177l161 178h10l39 -38l-92 -140l92 -138l-39 -39h-10v0z" />
    <glyph glyph-name="less" unicode="&#x203a;" horiz-adv-x="350" 
d="M109 16l-39 39l92 138l-92 140l39 38h10l161 -178l-161 -177h-10v0z" />
    <glyph glyph-name="six" unicode="&#x2122;" horiz-adv-x="811" 
d="M178 678h-13q-4 0 -13.5 -1t-20.5 -7q-9 -5 -17.5 -14.5t-13.5 -25.5h-10h-20v77h10h17q4 -2 6.5 -3.5t4.5 -2.5q2 0 3.5 -0.5t4.5 -0.5h197q4 0 8 1.5t11 5.5h10h16v-77h-10h-20q-4 20 -20 34t-40 14h-18v-233q0 -8 3 -13t6 -7q2 -2 4.5 -2.5t3.5 -0.5h4v-16h-10h-104
v16h4q1 0 3 0.5t4 2.5q4 3 7 8t3 12v233v0zM648 640l-85 -234h-10h-29l-86 236v-198q0 -9 3 -13.5t7 -6.5q2 -1 4.5 -1.5t3.5 -0.5h5v-16h-10h-69v16q3 0 5.5 0.5t4.5 2.5q1 0 1.5 0.5t1.5 0.5t1.5 0.5l1.5 1.5q3 2 5 5.5t2 10.5v207v5t-1 6q-1 7 -5 13t-16 6v19h10h99
l73 -196l71 196h10h95v-17q-12 -2 -16.5 -6t-4.5 -17v-215q0 -13 4.5 -17t16.5 -6v-16h-10h-104v16q11 2 16 7t5 16v195v0z" />
    <glyph glyph-name="periodcentered" unicode="&#x2219;" horiz-adv-x="303" 
d="M70 189q0 29 21.5 52.5t55.5 23.5h10q29 0 52.5 -20.5t23.5 -55.5q0 -34 -23.5 -55.5t-52.5 -21.5h-10q-30 0 -50.5 20.5t-25.5 44.5q0 3 -0.5 6t-0.5 6v0z" />
    <glyph glyph-name="s" 
 />
    <glyph glyph-name="backslash" 
 />
    <glyph glyph-name="nine" 
 />
    <glyph glyph-name="colon" 
 />
    <glyph glyph-name="Y" 
 />
    <glyph glyph-name="X" 
 />
    <glyph glyph-name="asciicircum" 
 />
    <glyph glyph-name="semicolon" 
 />
    <glyph glyph-name="equal" 
 />
    <glyph glyph-name="exclam" 
 />
    <glyph glyph-name="five" 
 />
    <glyph glyph-name="Q" 
 />
    <glyph glyph-name="quotedblright" 
 />
    <glyph glyph-name="hyphen" 
 />
    <glyph glyph-name="space" 
 />
    <glyph glyph-name="E" 
 />
    <glyph glyph-name="M" 
 />
    <glyph glyph-name="plus" 
 />
    <glyph glyph-name="glyph229" 
 />
    <glyph glyph-name="glyph230" 
 />
    <glyph glyph-name="glyph231" 
 />
    <glyph glyph-name="glyph234" 
 />
    <glyph glyph-name="glyph235" 
 />
    <glyph glyph-name="glyph238" 
 />
    <glyph glyph-name="glyph239" 
 />
    <glyph glyph-name="glyph240" 
 />
    <glyph glyph-name="glyph241" 
 />
    <glyph glyph-name="glyph242" 
 />
    <glyph glyph-name="glyph244" 
 />
    <glyph glyph-name="glyph245" 
 />
    <glyph glyph-name="glyph246" 
 />
    <glyph glyph-name="glyph247" 
 />
    <glyph glyph-name="glyph248" 
 />
    <glyph glyph-name="glyph249" 
 />
    <glyph glyph-name="glyph250" 
 />
    <glyph glyph-name="glyph251" 
 />
    <glyph glyph-name="glyph252" 
 />
    <glyph glyph-name="glyph253" 
 />
    <glyph glyph-name="glyph254" 
 />
    <glyph glyph-name="glyph255" 
 />
    <glyph glyph-name="glyph256" 
 />
    <glyph glyph-name="glyph267" 
 />
    <glyph glyph-name="glyph268" 
 />
    <glyph glyph-name="glyph269" 
 />
    <glyph glyph-name="glyph270" 
 />
    <glyph glyph-name="glyph271" 
 />
    <glyph glyph-name="glyph272" 
 />
    <glyph glyph-name="glyph273" 
 />
    <glyph glyph-name="glyph274" 
 />
    <glyph glyph-name="glyph275" 
 />
    <glyph glyph-name="glyph276" 
 />
    <glyph glyph-name="glyph277" 
 />
    <glyph glyph-name="glyph278" 
 />
    <glyph glyph-name="glyph279" 
 />
    <glyph glyph-name="glyph280" 
 />
    <glyph glyph-name="glyph281" 
 />
    <glyph glyph-name="glyph282" 
 />
    <glyph glyph-name="glyph283" 
 />
    <glyph glyph-name="glyph284" 
 />
    <glyph glyph-name="glyph285" 
 />
    <glyph glyph-name="glyph286" 
 />
    <glyph glyph-name="glyph287" 
 />
    <glyph glyph-name="glyph288" 
 />
    <glyph glyph-name="glyph289" 
 />
    <glyph glyph-name="glyph290" 
 />
    <glyph glyph-name="glyph291" 
 />
    <glyph glyph-name="glyph292" 
 />
    <glyph glyph-name="glyph293" 
 />
    <glyph glyph-name="glyph294" 
 />
    <glyph glyph-name="glyph295" 
 />
    <glyph glyph-name="glyph296" 
 />
    <glyph glyph-name="glyph297" 
 />
    <glyph glyph-name="glyph298" 
 />
    <glyph glyph-name="glyph299" 
 />
    <glyph glyph-name="glyph300" 
 />
    <glyph glyph-name="glyph301" 
 />
    <glyph glyph-name="glyph302" 
 />
    <glyph glyph-name="glyph303" 
 />
    <glyph glyph-name="glyph304" 
 />
    <glyph glyph-name="glyph305" 
 />
    <glyph glyph-name="glyph306" 
 />
    <glyph glyph-name="glyph307" 
 />
    <glyph glyph-name="glyph308" 
 />
    <glyph glyph-name="glyph309" 
 />
    <glyph glyph-name="glyph310" 
 />
    <glyph glyph-name="glyph311" 
 />
    <glyph glyph-name="glyph312" 
 />
    <glyph glyph-name="glyph313" 
 />
    <glyph glyph-name="glyph314" 
 />
    <glyph glyph-name="glyph315" 
 />
    <glyph glyph-name="glyph316" 
 />
    <glyph glyph-name="glyph317" 
 />
    <glyph glyph-name="glyph318" 
 />
    <glyph glyph-name="glyph319" 
 />
    <glyph glyph-name="glyph320" 
 />
    <glyph glyph-name="glyph321" 
 />
    <glyph glyph-name="glyph322" 
 />
    <glyph glyph-name="glyph323" 
 />
    <glyph glyph-name="glyph324" 
 />
    <glyph glyph-name="glyph325" 
 />
    <glyph glyph-name="glyph326" 
 />
    <glyph glyph-name="glyph327" 
 />
    <glyph glyph-name="glyph328" 
 />
    <glyph glyph-name="glyph329" 
 />
    <glyph glyph-name="glyph330" 
 />
    <glyph glyph-name="glyph331" 
 />
    <glyph glyph-name="glyph332" 
 />
    <glyph glyph-name="glyph333" 
 />
    <glyph glyph-name="glyph334" 
 />
    <glyph glyph-name="glyph335" 
 />
    <glyph glyph-name="glyph336" 
 />
    <glyph glyph-name="glyph337" 
 />
    <glyph glyph-name="glyph338" 
 />
    <glyph glyph-name="glyph339" 
 />
    <glyph glyph-name="glyph340" 
 />
    <glyph glyph-name="glyph341" 
 />
    <glyph glyph-name="glyph342" 
 />
    <glyph glyph-name="glyph343" 
 />
    <glyph glyph-name="glyph344" 
 />
    <glyph glyph-name="glyph345" 
 />
    <glyph glyph-name="glyph346" 
 />
    <glyph glyph-name="glyph347" 
 />
    <glyph glyph-name="glyph348" 
 />
    <glyph glyph-name="glyph349" 
 />
    <glyph glyph-name="glyph350" 
 />
    <glyph glyph-name="glyph351" 
 />
    <glyph glyph-name="glyph352" 
 />
    <glyph glyph-name="glyph353" 
 />
    <glyph glyph-name="glyph354" 
 />
    <glyph glyph-name="glyph355" 
 />
    <glyph glyph-name="glyph356" 
 />
    <glyph glyph-name="glyph357" 
 />
    <glyph glyph-name="glyph358" 
 />
    <glyph glyph-name="glyph359" 
 />
    <glyph glyph-name="glyph360" 
 />
    <glyph glyph-name="glyph361" 
 />
    <glyph glyph-name="glyph362" 
 />
    <glyph glyph-name="glyph363" 
 />
    <glyph glyph-name="glyph364" 
 />
    <glyph glyph-name="glyph365" 
 />
    <glyph glyph-name="glyph366" 
 />
    <glyph glyph-name="glyph367" 
 />
    <glyph glyph-name="glyph368" 
 />
    <glyph glyph-name="glyph369" 
 />
    <glyph glyph-name="glyph370" 
 />
    <glyph glyph-name="glyph371" 
 />
    <glyph glyph-name="glyph372" 
 />
    <glyph glyph-name="glyph373" 
 />
    <glyph glyph-name="glyph374" 
 />
    <glyph glyph-name="glyph375" 
 />
    <glyph glyph-name="glyph376" 
 />
    <glyph glyph-name="glyph377" 
 />
    <glyph glyph-name="glyph378" 
 />
    <glyph glyph-name="glyph379" 
 />
    <glyph glyph-name="glyph380" 
 />
    <glyph glyph-name="glyph381" 
 />
    <glyph glyph-name="glyph382" 
 />
    <glyph glyph-name="glyph383" 
 />
    <glyph glyph-name="glyph384" 
 />
    <glyph glyph-name="glyph385" 
 />
    <glyph glyph-name="glyph386" 
 />
    <glyph glyph-name="glyph387" 
 />
    <glyph glyph-name="glyph388" 
 />
    <glyph glyph-name="glyph389" 
 />
    <glyph glyph-name="glyph390" 
 />
    <glyph glyph-name="glyph391" 
 />
    <glyph glyph-name="glyph392" 
 />
    <glyph glyph-name="glyph393" 
 />
    <glyph glyph-name="glyph394" 
 />
    <glyph glyph-name="glyph395" 
 />
    <glyph glyph-name="glyph396" 
 />
    <glyph glyph-name="glyph397" 
 />
    <glyph glyph-name="glyph398" 
 />
    <glyph glyph-name="glyph399" 
 />
    <glyph glyph-name="glyph400" 
 />
    <glyph glyph-name="glyph401" 
 />
    <glyph glyph-name="glyph402" 
 />
    <glyph glyph-name="glyph403" 
 />
    <glyph glyph-name="glyph404" 
 />
    <glyph glyph-name="glyph405" 
 />
    <glyph glyph-name="glyph406" 
 />
    <glyph glyph-name="glyph407" 
 />
    <glyph glyph-name="glyph408" 
 />
    <glyph glyph-name="glyph409" 
 />
    <glyph glyph-name="glyph410" 
 />
    <glyph glyph-name="glyph411" 
 />
    <glyph glyph-name="glyph412" 
 />
    <glyph glyph-name="glyph413" 
 />
    <glyph glyph-name="glyph414" 
 />
    <glyph glyph-name="glyph415" 
 />
    <glyph glyph-name="glyph416" 
 />
    <glyph glyph-name="glyph417" 
 />
    <glyph glyph-name="glyph418" 
 />
    <glyph glyph-name="glyph419" 
 />
    <glyph glyph-name="glyph420" 
 />
    <glyph glyph-name="glyph421" 
 />
    <glyph glyph-name="glyph422" 
 />
    <glyph glyph-name="glyph423" 
 />
    <glyph glyph-name="glyph424" 
 />
    <glyph glyph-name="glyph425" 
 />
    <glyph glyph-name="glyph426" 
 />
    <glyph glyph-name="glyph427" 
 />
    <glyph glyph-name="glyph428" 
 />
    <glyph glyph-name="glyph429" 
 />
    <glyph glyph-name="glyph430" 
 />
    <glyph glyph-name="glyph431" 
 />
    <glyph glyph-name="glyph432" 
 />
    <glyph glyph-name="glyph433" 
 />
    <glyph glyph-name="glyph434" 
 />
    <glyph glyph-name="glyph435" 
 />
    <glyph glyph-name="glyph436" 
 />
    <glyph glyph-name="glyph437" 
 />
    <glyph glyph-name="glyph438" 
 />
    <glyph glyph-name="glyph439" 
 />
    <glyph glyph-name="glyph440" 
 />
    <glyph glyph-name="glyph441" 
 />
  </font>
</defs>
</svg>
